<svg height="54.149" viewBox="0 0 39.128 54.149" width="39.128" xmlns="http://www.w3.org/2000/svg" xmlns:xlink="http://www.w3.org/1999/xlink"><linearGradient id="a" gradientUnits="objectBoundingBox" x1=".201" x2=".788" y1="1" y2=".083"><stop offset="0" stop-color="#4c2aff"/><stop offset="1" stop-color="#07b3ff"/></linearGradient><path d="m103.479 28.408a9.771 9.771 0 0 0 -5.695-3.351q4.849-2.473 4.263-8.4a8.3 8.3 0 0 0 -1.188-3.725 7.455 7.455 0 0 0 -2.685-2.532 14.78 14.78 0 0 0 -3.674-1.467 29.013 29.013 0 0 0 -4.559-.733v-8.2h-5.011v7.973q-1.3 0-3.97.065v-8.038h-5.012v8.2q-1.074.033-3.157.033l-6.9-.033v5.337h3.609a2.585 2.585 0 0 1 2.9 2.213v9.34a3.308 3.308 0 0 1 .521.033h-.521v13.077a1.738 1.738 0 0 1 -1.887 1.66h-3.613l-1.009 5.955h6.509q.618 0 1.79.015t1.757.016v8.3h5.012v-8.2q1.366.033 3.97.033v8.168h5.011v-8.3a38.96 38.96 0 0 0 4.734-.488 19.269 19.269 0 0 0 3.956-1.119 10.67 10.67 0 0 0 3.156-1.9 8.984 8.984 0 0 0 2.1-2.9 12.312 12.312 0 0 0 1.057-4.068q.424-4.523-1.464-6.964zm-22.422-14.513q.228 0 1.285-.016t1.757-.033q.7-.016 1.888.081a17.956 17.956 0 0 1 2 .26 11.147 11.147 0 0 1 1.79.537 4.85 4.85 0 0 1 1.562.911 4.52 4.52 0 0 1 .994 1.365 4.266 4.266 0 0 1 .407 1.9 4.527 4.527 0 0 1 -.292 1.66 3.128 3.128 0 0 1 -.878 1.253 8.9 8.9 0 0 1 -1.2.879 5.514 5.514 0 0 1 -1.578.6q-.959.228-1.675.358a13.718 13.718 0 0 1 -1.79.179q-1.074.049-1.627.065t-1.513 0q-.961-.016-1.123-.016v-9.99zm13.685 22.16a4.627 4.627 0 0 1 -.8 1.3 4.52 4.52 0 0 1 -1.286.976 11.025 11.025 0 0 1 -1.545.683 12.441 12.441 0 0 1 -1.806.456q-1.059.2-1.856.277t-1.9.13q-1.106.048-1.725.048t-1.562-.017q-.944-.015-1.2-.016v-11q.26 0 1.546-.033t2.1-.032q.813 0 2.246.1a19.188 19.188 0 0 1 2.408.292 15.833 15.833 0 0 1 2.131.6 6.181 6.181 0 0 1 1.871.992 4.884 4.884 0 0 1 1.2 1.5 4.649 4.649 0 0 1 .179 3.743z" fill="url(#a)" transform="translate(-65.893)"/></svg>