<svg xmlns="http://www.w3.org/2000/svg" xmlns:xlink="http://www.w3.org/1999/xlink" width="398.071" height="398.073" viewBox="0 0 398.071 398.073">
  <defs>
    <linearGradient id="linear-gradient" x1="0.5" x2="0.5" y2="1" gradientUnits="objectBoundingBox">
      <stop offset="0" stop-color="#fff"/>
      <stop offset="1" stop-color="#94fef7"/>
    </linearGradient>
    <linearGradient id="linear-gradient-2" x1="0.5" x2="0.5" y2="1" gradientUnits="objectBoundingBox">
      <stop offset="0" stop-color="#fff"/>
      <stop offset="1" stop-color="#ffecec"/>
    </linearGradient>
    <linearGradient id="linear-gradient-3" x1="0.5" x2="0.5" y2="1" gradientUnits="objectBoundingBox">
      <stop offset="0" stop-color="#fff"/>
      <stop offset="1" stop-color="#94d4fe"/>
    </linearGradient>
    <clipPath id="clip-path">
      <path id="Path_799" data-name="Path 799" d="M162,0A162,162,0,1,1,0,162,162,162,0,0,1,162,0Z" transform="translate(35 3638)" fill="url(#linear-gradient)"/>
    </clipPath>
    <linearGradient id="linear-gradient-4" x1="0.5" x2="0.5" y2="1" gradientUnits="objectBoundingBox">
      <stop offset="0" stop-color="#00ffed"/>
      <stop offset="1" stop-color="#00c2a8"/>
    </linearGradient>
    <linearGradient id="linear-gradient-5" x1="0.422" y1="-0.163" x2="0.44" y2="0.376" xlink:href="#linear-gradient-4"/>
    <linearGradient id="linear-gradient-6" x1="0.5" x2="0.5" y2="1" gradientUnits="objectBoundingBox">
      <stop offset="0" stop-color="#9ceeff"/>
      <stop offset="1" stop-color="#6454f0"/>
    </linearGradient>
    <linearGradient id="linear-gradient-11" x1="0.5" x2="0.5" y2="1" gradientUnits="objectBoundingBox">
      <stop offset="0" stop-color="#00ffed"/>
      <stop offset="1" stop-color="#00e3c5"/>
    </linearGradient>
    <clipPath id="clip-path-2">
      <path id="Union_25" data-name="Union 25" d="M4982.051,1086.3l-.1.015s-.184-.4-.5-1.2a33.931,33.931,0,0,1-2.156-5.661,13.848,13.848,0,0,1-.343-1.557,154.49,154.49,0,0,1-5.25-25.079c-2.769-21.455-2.823-52.332-2.823-52.332a42.691,42.691,0,0,0,9.337,5.583,69.353,69.353,0,0,0,12.08,3.586s-6.211-5.871-9.23-10.768a17.04,17.04,0,0,1-2.85-8.823,263.74,263.74,0,0,0,24.463,15.411,209.161,209.161,0,0,0,24.559,11.128l-4.064-13.515a64.466,64.466,0,0,0,11.594,10.153,56.363,56.363,0,0,0,13.477,6.094,17.688,17.688,0,0,1-6.214-6.094c-2.384-4.061-3.324-10.153-3.324-10.153l33.533,28.016s.821,30.3-.279,39.224a11.275,11.275,0,0,1-.218,2.18c-4.12,20.827-32.763,37.514-47.524,38.424-.566.035-1.149.052-1.747.052C5011.237,1110.987,4990.673,1102.459,4982.051,1086.3Z" transform="translate(-4912.015 2732.766)" fill="url(#linear-gradient-2)"/>
    </clipPath>
    <linearGradient id="linear-gradient-16" x1="0.5" y1="1" x2="0.5" gradientUnits="objectBoundingBox">
      <stop offset="0" stop-color="#9f2fff"/>
      <stop offset="1" stop-color="#0bb1d3"/>
    </linearGradient>
    <clipPath id="clip-path-3">
      <path id="Path_803" data-name="Path 803" d="M-4445.583,2732.625s6.46,5.117,13.958,5.865,15.014-3.988,15.014-3.988-6.108,10.952-13.606,10.2S-4445.583,2732.625-4445.583,2732.625Z" transform="translate(4555.985 -2496.233)" fill="#682b2b"/>
    </clipPath>
    <linearGradient id="linear-gradient-18" x1="0.057" y1="0.438" x2="0.82" y2="0.893" xlink:href="#linear-gradient"/>
  </defs>
  <g id="Group_258" data-name="Group 258" transform="translate(5 -3601)">
    <g id="Group_257" data-name="Group 257">
      <path id="Path_800" data-name="Path 800" d="M162,0A162,162,0,1,1,0,162,162,162,0,0,1,162,0Z" transform="translate(35 3638)" fill="url(#linear-gradient-3)"/>
      <g id="Mask_Group_54" data-name="Mask Group 54" clip-path="url(#clip-path)">
        <g id="Group_255" data-name="Group 255" transform="translate(85.124 -6.067)">
          <path id="Path_677" data-name="Path 677" d="M1670.864,1452.022c12.56-6.76,14.963-12.811,14.963-12.811l.8,3.649a74.144,74.144,0,0,0,14.435-28.5c4.138-16.848,7.017-36.1,7.017-36.1s4.509-11.047,4.066-27.155-8.867-35.173-8.867-35.173-8.039-15.48-23.794-24.385-33.986-11.02-39.059-11.462-18.256-1.035-28.328,3.779-12.314,10.834-12.314,10.834-15.505-.816-23.383,12.2-7.465,22.019-8.127,39.86a77.448,77.448,0,0,0,5.48,31.5s2.626,23.066,7.763,38.822,13.221,25.061,13.221,25.061l1.222-3.529s4.614,7.668,16.189,13.524S1658.3,1458.782,1670.864,1452.022Z" transform="translate(-1528.686 2377.802)" fill="#8e4939"/>
          <path id="Path_734" data-name="Path 734" d="M576.268,230.274l6.774,12.637L565.41,259.856l-14.223-4.923-6.577-13.063,6.577-10.552Z" transform="translate(-450.808 3607.14)" fill="#fcccac"/>
          <path id="Path_806" data-name="Path 806" d="M1670.864,1452.022c12.56-6.76,14.963-12.811,14.963-12.811l.8,3.649a74.144,74.144,0,0,0,14.435-28.5c4.138-16.848,7.017-36.1,7.017-36.1s4.509-11.047,4.066-27.155-8.867-35.173-8.867-35.173-8.039-15.48-23.794-24.385c-4.726-2.671,11.806,15.9-5.029,56.052s-70.411,100.441-62.309,104.54C1623.723,1457.994,1658.3,1458.782,1670.864,1452.022Z" transform="translate(-1528.685 2377.802)" fill="#804233" opacity="0.47"/>
          <g id="Group_247" data-name="Group 247" transform="translate(-61.537 3843.984)">
            <path id="Path_685" data-name="Path 685" d="M642.976,319.464s-101.013,9.662-225.619,9.662-225.619-9.662-225.619-9.662S292.752,309.8,417.358,309.8,642.976,319.464,642.976,319.464Z" transform="translate(-191.739 155.652)" fill="#b7b7b7"/>
            <g id="Group_246" data-name="Group 246" transform="translate(33.526 0)">
              <g id="Group_184" data-name="Group 184" transform="translate(37.133 24.983)">
                <path id="Path_686" data-name="Path 686" d="M249.784,340.832c14.226,33.231,30.942,65.84,54.494,93.266s54.556,49.514,89.849,57.329c-5.172-6.626-1.711-16.982,4.927-22.138s15.35-6.547,23.623-8.051c18.592-3.378,39.105-9.786,47.72-26.605,8.939-17.462,1.336-38.89,5.461-58.072,6.485-30.16,38.486-46.086,65.66-60.689,37.359-20.079,74-48.077,87-88.448a194.723,194.723,0,0,1-123.429-4.5c-30.753-11.645-58.131-30.98-88.84-42.746-53.892-20.649-136.687-34.414-180.424,8.184C199.232,224,232.868,301.311,249.784,340.832Z" transform="translate(-208.423 -160.503)" fill="url(#linear-gradient-4)"/>
                <path id="Path_687" data-name="Path 687" d="M269.984,326.5c24.758,46.248,55.14,93.425,102.78,115.389,5.833,2.691,14.8,3.717,16.787-2.393.835-2.575-.15-5.352-1.127-7.88q-11.984-31.026-23.965-62.058c10.942,21.681,23.85,43.076,42.837,58.214,5.809,4.632,12.361,8.712,19.7,9.874s15.583-1.13,19.905-7.169c4.063-5.679,3.936-13.518,1.5-20.062s-6.859-12.117-11.087-17.675a442.239,442.239,0,0,1-72.071-142.587c10.19,15.946,20.392,31.907,31.724,47.062,14.17,18.946,32.06,37.71,55.441,41.309,5.021.773,10.332.77,14.972-1.3s8.455-6.532,8.594-11.609c.077-2.838-.95-5.576-1.965-8.228Q468.9,304,463.782,290.61c5.673,5.844,11.462,11.774,18.607,15.681s15.984,5.555,23.49,2.393q-8.638-12.015-17.276-24.027c5.3,4.714,13.046,5.868,20.041,4.673s13.441-4.455,19.743-7.721c10.284-5.331,20.876-11.117,27.594-20.554-19.882-1.092-39.8-4.408-58.308-11.742C455.046,232.423,423.018,195.76,381.5,176.3a160.935,160.935,0,0,0-75.833-14.946c-15.362.752-30.918,3.847-44.2,11.6s-24.095,20.625-26.88,35.751c-3.372,18.309-30.8-7.715-12.86-12.71,8.579-2.387,10.046,17.457,11.022,22.917A350.031,350.031,0,0,0,269.984,326.5Z" transform="translate(-215.689 -159.208)" fill="url(#linear-gradient-5)"/>
              </g>
              <g id="Group_245" data-name="Group 245">
                <g id="Group_244" data-name="Group 244">
                  <g id="Group_215" data-name="Group 215">
                    <g id="Group_188" data-name="Group 188" transform="translate(14.973 154.167)">
                      <g id="Group_187" data-name="Group 187">
                        <g id="Group_185" data-name="Group 185" transform="translate(29.883)">
                          <path id="Path_688" data-name="Path 688" d="M312.95,204.291V290.3c-11.376,0-26.219,50.885-26.219,50.885s-1.776,49.868-10.76,61.571a18.539,18.539,0,0,0-1.676,2.726c-2.868,5.511-6.169,15.722-9.349,27.11-6.856,24.593-13.114,54.662-13.114,54.662H224.561s-.348-3.124-.885-8.175c-.168-1.617-.36-3.428-.555-5.393-2.095-20.427-5.638-57.807-4.641-68.369.407-4.293,2.57-11.642,5.434-19.908,6.983-20.15,18.126-45.743,18.126-45.743s-.994-30.027,3.2-50.387c2.885-14,16.813-47.915,25.239-67.743,1.41-3.316,2.664-6.24,3.688-8.612.1-.227.2-.448.286-.664.174-.4.333-.779.49-1.136.174-.4.336-.767.484-1.112.994-2.284,1.567-3.587,1.567-3.587Z" transform="translate(-218.307 -204.291)" fill="#ac1426"/>
                        </g>
                        <g id="Group_186" data-name="Group 186" transform="translate(29.886 5.72)">
                          <path id="Path_689" data-name="Path 689" d="M283.773,250.935a124.6,124.6,0,0,0-31.851,95.717,12.407,12.407,0,0,1,.024,3.664,12.647,12.647,0,0,1-2.5,4.676c-8.674,12.128-16.462,29.679-14.205,44.935,2.561,17.318,3.882,33.633.743,51.08-.838,4.67-1.991,9.447-4.824,13.255a16.334,16.334,0,0,1-8.042,5.641c-2.092-20.424-5.635-57.8-4.638-68.369.407-4.293,2.57-11.639,5.434-19.905,6.98-20.153,18.123-45.743,18.123-45.743s-.991-30.027,3.207-50.39c2.885-13.993,16.813-47.912,25.236-67.74,1.41-3.319,2.667-6.24,3.688-8.615.1-.227.2-.448.289-.664.171-.392.333-.776.49-1.136.174-.392.333-.764.484-1.112a51.924,51.924,0,0,1,21.959,13.63,11.374,11.374,0,0,1,3.1,4.88C301.067,227.076,289.367,244.849,283.773,250.935Z" transform="translate(-218.308 -206.23)" fill="#e01e3b"/>
                        </g>
                        <path id="Path_690" data-name="Path 690" d="M269.094,323.166c-5.039,3.915-11.476,2.236-22.4,10.922s-38.8,6.331-38.515,2.971,26.375-29.19,36.137-36.854h27.269l-.531,3.641S274.133,319.245,269.094,323.166Z" transform="translate(-208.178 -17.239)" fill="#e6ebf0"/>
                      </g>
                    </g>
                    <g id="Group_193" data-name="Group 193" transform="translate(83.003 154.167)">
                      <g id="Group_192" data-name="Group 192">
                        <g id="Group_190" data-name="Group 190" transform="translate(56.495)">
                          <g id="Group_189" data-name="Group 189">
                            <path id="Path_691" data-name="Path 691" d="M339.655,468.345c-1.334,11-2.393,18.908-2.393,18.908H311.5S306.7,464.227,300.913,442c-3.706-14.247-7.83-28.169-11.358-35.5a22.439,22.439,0,0,0-2.189-3.744c-8.989-11.7-10.759-61.571-10.759-61.571S261.763,290.3,250.387,290.3V204.291l14.5.859,21.448,1.274s.478,1.083,1.31,3c.351.8.764,1.752,1.23,2.835.9,2.086,2,4.649,3.251,7.573,8.322,19.531,22.991,55.039,25.962,69.445,4.192,20.359,3.2,50.387,3.2,50.387s18.173,41.749,22.646,60.586a39.427,39.427,0,0,1,.909,5.065C345.771,415.011,342.207,447.316,339.655,468.345Z" transform="translate(-250.387 -204.291)" fill="#ac1426"/>
                          </g>
                        </g>
                        <path id="Path_692" data-name="Path 692" d="M338.258,398.884v.174c-3.706-14.247-7.83-28.169-11.358-35.5a22.447,22.447,0,0,0-2.189-3.744c-8.989-11.7-10.759-61.571-10.759-61.571s-14.843-50.886-26.219-50.886-26.219,50.886-26.219,50.886-1.776,49.868-10.76,61.571a18.542,18.542,0,0,0-1.676,2.726c-2.868,5.511-6.169,15.722-9.349,27.11a31.056,31.056,0,0,0-2.838-6.951c-2.941-4.915-7.449-8.957-4.9-15.208,1.741-4.281,5.859-5.225,8.771-8.476,7.771-8.674,9.515-23.555,10.473-34.6,1.254-14.491,1.171-29.526,7.066-42.82,3.812-8.6,10.119-16.53,10.55-25.921.372-7.957-3.587-15.4-7.426-22.375a113.4,113.4,0,0,0,53.78-6.995c-4.4,4.939-9.01,10.376-9.535,16.964-.46,5.735,2.289,11.173,4.72,16.386a182.573,182.573,0,0,1,7.665,19.227c1.735,5.2,3.239,10.55,3.36,16.026.094,4.526-.767,9.028-.779,13.553-.024,9.5,3.658,18.566,6.685,27.576A212.059,212.059,0,0,1,338.258,398.884Z" transform="translate(-231.237 -161.353)" fill="#940c22"/>
                        <g id="Group_191" data-name="Group 191" transform="translate(63.135 0.861)">
                          <path id="Path_693" data-name="Path 693" d="M335.269,467.779a16.384,16.384,0,0,1-2.72-2.307c-6.594-6.983-5.452-17.934-4.649-27.5,2.658-31.792-3.647-64.7-20.386-91.855a43.281,43.281,0,0,1-4.2-7.78,39.325,39.325,0,0,1-1.652-7.954,361.552,361.552,0,0,0-22.6-84.722c-3.024-7.526-6.541-15.262-12.919-20.271l-9.426-.9c-3.186-1.2-4.585-5.2-3.909-8.535s2.9-6.133,5.175-8.668c.814-.909,1.658-1.811,2.525-2.7l21.448,1.275s.478,1.08,1.307,3c.354.8.767,1.752,1.233,2.832.9,2.086,2,4.652,3.251,7.576,8.323,19.528,22.991,55.036,25.962,69.442,4.189,20.362,3.2,50.39,3.2,50.39s18.173,41.749,22.646,60.586a39.4,39.4,0,0,1,.909,5.063C341.384,414.445,337.821,446.746,335.269,467.779Z" transform="translate(-252.638 -204.583)" fill="#e01e3b"/>
                        </g>
                        <path id="Path_694" data-name="Path 694" d="M334.779,337.058c.28,3.36-27.6,5.709-38.515-2.971s-17.362-7.007-22.407-10.922-1.956-19.321-1.956-19.321l-.537-3.641h25.764C307.879,308.562,334.5,333.7,334.779,337.058Z" transform="translate(-153.755 -17.239)" fill="#e6ebf0"/>
                      </g>
                    </g>
                    <g id="Group_194" data-name="Group 194" transform="translate(0 12.839)">
                      <path id="Path_695" data-name="Path 695" d="M293.967,217.61a54.689,54.689,0,0,1-4.065,4.378c-3.413,3.375-8.116,7.62-13.043,11.919-11.73,10.228-24.738,20.767-24.738,20.767,7.514,3.29,10.42,13.966,12.771,20.7a23.478,23.478,0,0,0,1.876,4.4c2.989,4.782,20.622,23.316,20.622,23.316l-12.553,19.728c-17.633-6.207-37.415-18.837-51.726-29.013-8.842-6.3-15.6-11.65-18.483-13.975-.994-.808-1.525-1.251-1.525-1.251,2.871-33.314,35.55-80.987,38.105-84.66l.153-.227s5.381-19.725,13.748-30.485,34.883-5.579,34.883-5.579.227,1.03.59,2.815v.006C292.79,171.277,300.124,209.919,293.967,217.61Z" transform="translate(-203.103 -156.387)" fill="#fff"/>
                    </g>
                    <g id="Group_195" data-name="Group 195" transform="translate(183.495 12.84)">
                      <path id="Path_696" data-name="Path 696" d="M358.572,278.585s-9.2,7.665-22.345,16.875c-14.085,9.86-32.694,21.487-49.39,27.363L274.28,303.1s17.637-18.533,20.625-23.316c1.083-1.732,2.045-4.953,3.3-8.559,2.186-6.343,5.245-13.881,11.349-16.548,0,0-11.937-9.671-23.248-19.474-4.7-4.071-9.281-8.166-12.869-11.6a68.154,68.154,0,0,1-5.726-5.986c-7.175-8.966,3.974-59.975,3.974-59.975s.646-.127,1.77-.3h.006c6.069-.932,26.045-3.2,33.1,5.877,8.37,10.76,13.751,30.485,13.751,30.485s30.467,43.377,37.164,77.337A69.168,69.168,0,0,1,358.572,278.585Z" transform="translate(-265.3 -156.387)" fill="#fff"/>
                    </g>
                    <path id="Path_697" data-name="Path 697" d="M367.843,231.764a85.923,85.923,0,0,1-5.549,10.612c-4.281,7.3-9.857,16.049-13.426,21.867-1.667,2.714-2.891,4.788-3.346,5.78-1.363,3-6.1,25.281-8.939,39.005-.286,1.375-.555,2.661-.794,3.832-.867,4.222-1.422,6.977-1.422,6.977L297.3,341.356l-37.07-21.519s-.389-1.944-1.03-5.057c-.118-.6-.251-1.239-.392-1.921-.1-.472-.2-.968-.307-1.481-2.756-13.362-7.986-38.17-9.432-41.356-1.478-3.245-11.252-18.064-17.516-28.939a76.745,76.745,0,0,1-4.8-9.32c-.938-2.469-.215-9.007,1.41-17.085,3.88-19.28,12.872-47.339,16.524-49.868,5.181-3.587,34.73-12.1,34.73-12.1l17.881,11.7,17.878-11.7s27.989,8.069,34.267,11.807h.006c.174.1.322.2.46.3,2.325,1.614,6.827,13.618,10.8,27.11C365.554,208.428,369.592,227.156,367.843,231.764Z" transform="translate(-157.796 -150.724)" fill="#fff"/>
                    <path id="Path_698" data-name="Path 698" d="M478.861,260.9s-9.2,7.665-22.345,16.875a291.007,291.007,0,0,1-26.393-12.695c-2.965-1.623-5.968-3.337-8.219-5.859a18.611,18.611,0,0,1-3.413-5.685c2.186-6.343,5.245-13.881,11.35-16.548,0,0-11.937-9.671-23.248-19.474-4.281,7.3-9.857,16.049-13.426,21.867-4.077-7.24-11-12.621-18.89-16.542-7.411-3.682-16.2-3.228-24.322-1.643s-16.1,4.207-24.363,4.608c-3.635.18-7.3-.077-10.877.563s-7.181,2.36-9.016,5.5c-1.758,3-1.6,6.718-1.322,10.184a283.244,283.244,0,0,0,8.674,50.413c-2.337,1.738-5.827.956-8.033-.944a11.469,11.469,0,0,1-1.519-1.6c-2.449-11.969-8.547-41.28-10.131-44.758-1.478-3.245-11.252-18.064-17.516-28.939-11.73,10.228-24.738,20.767-24.738,20.767,7.514,3.29,10.42,13.966,12.771,20.7a92.717,92.717,0,0,0-18.395,7.623c-7.736,4-15.3,8.565-23.386,10.813-8.842-6.3-15.6-11.65-18.483-13.975,9.438-9.034,22.817-13.937,35.453-18.277a32.822,32.822,0,0,1,11.562-31.461c-6-15.4.384-34.647,14.415-43.4.012,7.579,2.891,14.68,7.411,20.8a53.953,53.953,0,0,0,14.436,13.27c.658.419,1.328.826,2,1.215a69.87,69.87,0,0,0,47.059,8.452c6.467-1.148,12.786-3.222,19.345-3.658,12.373-.82,25.844,4.054,36.639-2.05a20.789,20.789,0,0,0,1.788-1.136c5.617-4.012,9.057-10.754,10.217-17.625,1.277-7.561.13-15.326-1.49-22.829.879.5,1.735,1.03,2.558,1.6,10.786,7.426,17.061,20.876,17.038,34.04a27.39,27.39,0,0,1,21.832,17.256c1.723,4.635,2.139,9.68,4,14.258a29.82,29.82,0,0,0,6.812,9.851,39.2,39.2,0,0,0,23.077,10.886A69.131,69.131,0,0,1,478.861,260.9Z" transform="translate(-202.095 -125.861)" fill="#d5dce2"/>
                    <path id="Path_717" data-name="Path 717" d="M360.2,164.366s-24.221,20.746-63.669,20.746v0c-38.807-.378-62.583-20.737-62.583-20.737l-7.5,6s17.215,48.275,30.647,61.2l8.479,66.073,5.653,3.051L264,229.359s-31.107-51.844-31.016-55.393l2.519-.985s23.428,18.12,61.9,18.12v-.015c38.076-.209,61.235-18.114,61.235-18.114l2.52.982c.091,3.549-31.019,55.4-31.019,55.4l-7.222,71.342,5.653-3.054,8.482-66.07c13.429-12.925,30.647-61.2,30.647-61.2Z" transform="translate(-157.575 -127.987)" fill="url(#linear-gradient-6)"/>
                    <g id="Group_196" data-name="Group 196" transform="translate(38.259 12.839)">
                      <path id="Path_699" data-name="Path 699" d="M265.293,160.45v.006a23.875,23.875,0,0,1-.693,4.868,37.241,37.241,0,0,1-11.093,18.262,42.264,42.264,0,0,1-36.621,10.568,3.736,3.736,0,0,1-.814-.454s.687-2.461,1.752-5.641c.345-1.041.741-2.189,1.183-3.413.484-1.328,1.015-2.744,1.608-4.216.443-1.112.915-2.248,1.416-3.4a66.756,66.756,0,0,1,7.789-13.819c3.632-4.664,10.665-6.331,17.468-6.732,1.221-.065,2.428-.094,3.611-.094,1.59,0,3.127.059,4.567.148,1.3.086,2.511.186,3.605.3,3.39.363,5.632.8,5.632.8s.047.221.142.64C264.941,158.759,265.1,159.494,265.293,160.45Z" transform="translate(-216.071 -156.387)" opacity="0.86" fill="url(#linear-gradient-6)"/>
                      <path id="Path_700" data-name="Path 700" d="M264.84,158.275c-6.246.891-22.793,3.372-29.016,5.535-7.617,2.643-19.345,28.962-19.752,29.865.071-.263.682-2.437,1.746-5.617.345-1.041.741-2.189,1.183-3.413.484-1.328,1.015-2.744,1.608-4.216.443-1.112.915-2.248,1.416-3.4a66.756,66.756,0,0,1,7.789-13.819c3.632-4.664,10.665-6.331,17.468-6.732,1.221-.065,2.428-.094,3.611-.094,1.59,0,3.127.059,4.567.148,1.3.086,2.511.186,3.605.3,3.39.363,5.632.8,5.632.8S264.746,157.856,264.84,158.275Z" transform="translate(-216.067 -156.387)" fill="url(#linear-gradient-6)"/>
                      <path id="Path_701" data-name="Path 701" d="M257.912,156.738c.083,9.612-6.325,18.675-14.208,24.151-7.821,5.42-17.743,8.857-27.039,7.072.345-1.041.741-2.189,1.183-3.413,8,1.369,16.421-1.729,23.248-6.225,7.281-4.794,13.45-13.084,13.211-21.885C255.605,156.523,256.818,156.623,257.912,156.738Z" transform="translate(-214.913 -156.289)" fill="#ffd455"/>
                      <path id="Path_702" data-name="Path 702" d="M217.611,180.428c.443-1.112.915-2.248,1.416-3.4,11.718.873,27.2-8.877,25.257-20.551,1.221-.065,2.428-.094,3.611-.094C249.8,170.53,231.684,182.169,217.611,180.428Z" transform="translate(-213.068 -156.387)" fill="#ffd455"/>
                    </g>
                    <g id="Group_197" data-name="Group 197" transform="translate(189.284 12.839)">
                      <path id="Path_704" data-name="Path 704" d="M267.414,158.275c6.249.891,22.793,3.372,29.018,5.535,7.615,2.643,19.345,28.962,19.749,29.865-.071-.263-.681-2.437-1.744-5.617-.348-1.041-.743-2.189-1.183-3.413-.484-1.328-1.018-2.744-1.608-4.216-.443-1.112-.918-2.248-1.419-3.4a66.626,66.626,0,0,0-7.789-13.819c-3.629-4.664-10.665-6.331-17.468-6.732-1.218-.065-2.425-.094-3.611-.094-1.587,0-3.124.059-4.567.148-1.3.086-2.511.186-3.6.3-3.39.363-5.632.8-5.632.8S267.511,157.856,267.414,158.275Z" transform="translate(-266.966 -156.387)" fill="url(#linear-gradient-6)"/>
                      <path id="Path_703" data-name="Path 703" d="M267.262,160.45v.009a24.09,24.09,0,0,0,.693,4.865,37.267,37.267,0,0,0,11.1,18.262,42.264,42.264,0,0,0,36.621,10.568,3.753,3.753,0,0,0,.814-.451s-.69-2.464-1.752-5.644c-.348-1.041-.743-2.189-1.183-3.413-.484-1.328-1.018-2.744-1.608-4.216-.443-1.112-.917-2.248-1.419-3.4a66.627,66.627,0,0,0-7.789-13.819c-3.629-4.664-10.665-6.331-17.468-6.732-1.218-.065-2.425-.094-3.611-.094-1.587,0-3.124.059-4.567.148-1.3.086-2.511.186-3.6.3-3.39.363-5.632.8-5.632.8s-.047.221-.145.64C267.616,158.759,267.46,159.494,267.262,160.45Z" transform="translate(-267.262 -156.387)" opacity="0.87" fill="url(#linear-gradient-6)"/>
                      <path id="Path_705" data-name="Path 705" d="M269.373,156.738c-.086,9.612,6.322,18.675,14.208,24.151,7.818,5.42,17.743,8.859,27.039,7.072-.348-1.041-.743-2.189-1.183-3.413-8.007,1.369-16.421-1.729-23.248-6.225-7.281-4.794-13.453-13.084-13.214-21.885C271.68,156.523,270.464,156.623,269.373,156.738Z" transform="translate(-263.147 -156.289)" fill="#ffd455"/>
                      <path id="Path_706" data-name="Path 706" d="M302.52,180.428c-.443-1.112-.918-2.248-1.419-3.4-11.715.873-27.192-8.877-25.257-20.551-1.218-.065-2.425-.094-3.611-.094C270.327,170.53,288.447,182.169,302.52,180.428Z" transform="translate(-257.839 -156.387)" fill="#ffd455"/>
                    </g>
                    <g id="Group_198" data-name="Group 198" transform="translate(75.62)">
                      <path id="Path_707" data-name="Path 707" d="M292.4,179.788c-.012,0-.082-.018-.2-.047l-1.59-.407c-7.438-1.888-36.214-9.163-53.963-12.907-3.006-.631-5.691-1.165-7.91-1.552,0,0,5.307-7.151,10.234-6.552s4.712-.029,4.712-.029,7.322-7.216,11.656-5.948a61.124,61.124,0,0,0,6.874,1.673,10.367,10.367,0,0,1,12.1,0c5.853,4.107,16.279,22.525,17.881,25.4v.006C292.318,179.631,292.389,179.758,292.4,179.788Z" transform="translate(-228.735 -152.035)" fill="url(#linear-gradient-11)"/>
                      <path id="Path_708" data-name="Path 708" d="M313.989,164.874c-2.422.422-5.411,1.021-8.759,1.732-20.619,4.393-54.913,13.188-54.913,13.188s8.069-14.657,14.447-22.206a21.307,21.307,0,0,1,3.641-3.57,10.369,10.369,0,0,1,12.1,0,61.065,61.065,0,0,0,6.877-1.673c4.334-1.269,11.656,5.948,11.656,5.948s-.227.625,4.7.029S313.989,164.874,313.989,164.874Z" transform="translate(-186.645 -152.035)" fill="url(#linear-gradient-11)"/>
                      <path id="Path_709" data-name="Path 709" d="M274.316,154.018a10.367,10.367,0,0,0-12.1,0,61.124,61.124,0,0,1-6.874-1.673c-4.334-1.269-11.656,5.948-11.656,5.948s.227.625-4.712.029-10.234,6.552-10.234,6.552c2.219.387,4.9.921,7.91,1.552a10.866,10.866,0,0,1,10.367-2.909,4.516,4.516,0,0,0,2.378.322,4.428,4.428,0,0,0,1.9-1.549,11.9,11.9,0,0,1,7.927-3.88,20.852,20.852,0,0,1,7.718,1.3l.032.009a6.661,6.661,0,0,0,5.712-.808,18.971,18.971,0,0,1,4.532-2.177A17.923,17.923,0,0,0,274.316,154.018Z" transform="translate(-228.735 -152.035)" fill="url(#linear-gradient-11)"/>
                      <path id="Path_710" data-name="Path 710" d="M304.438,164.874c-2.422.422-5.411,1.021-8.759,1.732a6.935,6.935,0,0,0-4.287-2.463c-.95-.094-1.918.086-2.862-.065-1.741-.268-3.1-1.59-4.647-2.428-4.3-2.319-9.541-.776-14.329.221a3.177,3.177,0,0,1-1.847.012,3.735,3.735,0,0,1-1.236-.991c-2.906-2.947-6.44-3.281-10.332-3.286-.28,0-.59-.006-.926-.018a21.307,21.307,0,0,1,3.641-3.57,10.369,10.369,0,0,1,12.1,0,61.062,61.062,0,0,0,6.877-1.673c4.334-1.269,11.656,5.948,11.656,5.948s-.227.625,4.7.029S304.438,164.874,304.438,164.874Z" transform="translate(-177.095 -152.035)" fill="url(#linear-gradient-11)"/>
                    </g>
                    <path id="Path_711" data-name="Path 711" d="M294.051,295.232a58.444,58.444,0,0,0-2.44,5.505c-1.021,2.611-2.08,5.65-3.151,8.972C280.327,335.034,271.585,377,271.585,377l-.531,3.641s3.077,15.4-1.962,19.321-11.476,2.236-22.4,10.922c-10.88,8.65-38.586,6.349-38.515,3.006v-.035c.28-3.36,26.375-29.19,36.137-36.854,0,0-7.473-67.18-6.08-81.94.024-.257.053-.525.089-.8a68.441,68.441,0,0,1,2.289-9.694c.856-2.894,1.9-6.075,3.056-9.408l16.247-10.234,6.511-4.1Z" transform="translate(-193.204 60.128)" fill="#e6ebf0"/>
                    <path id="Path_712" data-name="Path 712" d="M294.051,295.232a58.444,58.444,0,0,0-2.44,5.505c-1.021,2.611-2.08,5.65-3.151,8.972C280.327,335.034,271.585,377,271.585,377l-.531,3.641s3.077,15.4-1.962,19.321-11.476,2.236-22.4,10.922c-10.88,8.65-38.586,6.349-38.515,3.006,15.925,1.189,31.4-8.323,45-17.445a13.971,13.971,0,0,0,4.192-3.711c1.49-2.289,1.5-5.2,1.567-7.933a110.334,110.334,0,0,1,6.181-33.792c3.514-10.007,8.5-19.6,10.367-30.039,1.3-7.3,1.033-14.789.752-22.2-.336-8.913-14.241-25.177-16.321-33.845l6.511-4.1Z" transform="translate(-193.204 60.128)" fill="#d5dce2"/>
                    <path id="Path_713" data-name="Path 713" d="M349.023,407.931c.28,3.36-27.6,5.709-38.515-2.971s-17.362-7.007-22.407-10.922-1.956-19.321-1.956-19.321l-.537-3.641s-7.5-36.046-15.076-61.489c-1.118-3.75-2.236-7.275-3.331-10.414a87.854,87.854,0,0,0-3.537-8.854l24.295-26.458,7.06,4.741,23.032,15.471a39.4,39.4,0,0,1,.909,5.063c.047.49.083,1.041.106,1.643.083,2.068.035,4.765-.1,7.921-1.059,23.54-7.594,72.375-7.594,72.375,9.762,7.591,32.618,29.021,36.946,35.409A3.8,3.8,0,0,1,349.023,407.931Z" transform="translate(-84.995 66.055)" fill="#e6ebf0"/>
                    <path id="Path_714" data-name="Path 714" d="M349.023,407.931c.28,3.36-27.6,5.709-38.515-2.971s-17.362-7.007-22.407-10.922-1.956-19.321-1.956-19.321l-.537-3.641s-7.5-36.046-15.076-61.489c-1.118-3.75-2.236-7.275-3.331-10.414a87.854,87.854,0,0,0-3.537-8.854l24.295-26.458,7.06,4.741c-3.714,4.956-9.022,9.034-11.456,14.7-6.054,14.09-3.717,30.328.342,45.118s9.762,29.387,10.217,44.72c.142,4.735-.044,10.007,3.118,13.542a17.647,17.647,0,0,0,5.125,3.531c14.382,7.573,29.334,15.315,45.569,16.253l.384.021A3.8,3.8,0,0,1,349.023,407.931Z" transform="translate(-84.995 66.055)" fill="#d5dce2"/>
                    <path id="Path_715" data-name="Path 715" d="M271.684,294.811c-1.021,2.611-2.08,5.65-3.151,8.972l-23.221-30.057L218.4,288.335a68.437,68.437,0,0,1,2.289-9.694l26.608-14.778Z" transform="translate(-173.276 66.055)" fill="#005f98"/>
                    <path id="Path_716" data-name="Path 716" d="M316.628,291.59l-26.239-13.618-22.195,24.5c-1.118-3.75-2.236-7.275-3.331-10.414l22.92-24.552,28.945,16.158C316.811,285.736,316.763,288.433,316.628,291.59Z" transform="translate(-82.657 73.167)" fill="#005f98"/>
                    <g id="Group_200" data-name="Group 200" transform="translate(97.033 158.303)">
                      <path id="Path_718" data-name="Path 718" d="M320.2,217.1l-41.743,20.92L235.993,218.8c.478-1.124,1.024-2.534,1.537-3.956.354-.965.693-1.932,1-2.829a22.574,22.574,0,0,0,1.136-3.974l38.8,17.026,39.285-19.377a14.144,14.144,0,0,0,.378,3.726c.174.962.4,2.015.652,3.042A32.965,32.965,0,0,0,320.2,217.1Z" transform="translate(-235.993 -205.693)" fill="#ffd455"/>
                      <g id="Group_199" data-name="Group 199" transform="translate(1.537 3.726)">
                        <path id="Path_719" data-name="Path 719" d="M317.76,210l-40.268,21.755-40.979-19.368c.354-.965.693-1.932,1-2.829L277.4,228.4l39.71-21.448C317.282,207.918,317.509,208.971,317.76,210Z" transform="translate(-236.514 -206.956)" fill="#ac1426"/>
                      </g>
                    </g>
                    <g id="Group_207" data-name="Group 207" transform="translate(3.39 119.34)">
                      <g id="Group_206" data-name="Group 206">
                        <path id="Path_720" data-name="Path 720" d="M287.543,235.084,279.029,250.1l-.859,1.519-2.357,4.148-.316-.142v-.006L274.14,255l-4.257-1.968q-3.934-1.81-7.83-3.717a405.558,405.558,0,0,1-47.661-27.372l-10.14-6.78s5.3-2.708,12.662-6.249c1.033-.5,2.109-1.015,3.216-1.54,13.642-6.488,32.084-14.7,38.421-14.887l20.575,30.231,6.623,9.739.316.46Z" transform="translate(-204.252 -192.486)" fill="#005f98"/>
                        <g id="Group_205" data-name="Group 205" transform="translate(0 14.887)">
                          <g id="Group_204" data-name="Group 204">
                            <path id="Path_721" data-name="Path 721" d="M276.806,221.1c-1.03,2.67-18.551-6.488-18.551-6.488l-4.095,3.652,6.96,4.514L266.9,233.4s-1.4,1.882-3.263,4.083c-.227.28-.472.555-.711.835-.826.95-1.711,1.921-2.578,2.8q-.482.5-.962.932c-.106.109-.227.21-.333.313a15.5,15.5,0,0,1-1.682,1.316,3.3,3.3,0,0,1-1.5.6l-6.193-7.1s-12.987.449-14.742-.448c-.693-.363-2.452-3.31-4.316-6.73-.448-.82-.9-1.67-1.351-2.511v-.006c-.448-.85-.885-1.693-1.3-2.511l2.9-3.1,1.071-1.148,9.379-13.775c1.242-.3,14.692,1.752,17.731,2.16a9.739,9.739,0,0,1,3.3.95C268.483,213.347,277.839,218.436,276.806,221.1Z" transform="translate(-158.018 -179.234)" fill="#005f98"/>
                            <path id="Path_722" data-name="Path 722" d="M306.581,259.413q-.482.5-.962.932c-.106.109-.227.21-.333.313a15.525,15.525,0,0,1-1.682,1.316,3.3,3.3,0,0,1-1.5.6l-6.193-7.1s-12.987.448-14.742-.448c-.693-.363-2.452-3.31-4.316-6.729-.448-.82-.9-1.67-1.351-2.511v-.006l-1.357-.622-4.257-1.968q-3.934-1.81-7.83-3.717A405.558,405.558,0,0,1,214.392,212.1l-10.14-6.78s5.3-2.708,12.662-6.249c1.033-.5,2.109-1.015,3.216-1.54,8.591,11.541,17.5,21.548,29.93,29.552a105.552,105.552,0,0,0,23.912,11.473,7.927,7.927,0,0,1,2.918,1.416c.071.059.139.127.2.192a6.125,6.125,0,0,1,1.077,1.614c.3.593.543,1.218.829,1.811a13.52,13.52,0,0,0,8.638,7.066c3.163.82,6.553.454,9.68,1.4,3.461,1.053,6.269,3.605,8.541,6.42C306.1,258.782,306.347,259.091,306.581,259.413Z" transform="translate(-204.252 -197.532)" fill="#0092cd"/>
                            <g id="Group_203" data-name="Group 203" transform="translate(91.953 48.918)">
                              <g id="Group_201" data-name="Group 201" transform="translate(0 2.962)">
                                <path id="Path_723" data-name="Path 723" d="M244.834,226.05c-.106.109-.227.212-.333.316-.218-.327-.5-.758-.838-1.277-.776-1.168-1.853-2.732-3.048-4.4a31.382,31.382,0,0,0-3.416-4.051c-.257-.242-.493-.46-.7-.655-.224-.174-.416-.33-.578-.454-.316-.26-.5-.41-.5-.41s.23.05.652.162c.206.053.469.127.764.218.283.115.6.251.956.416a12.331,12.331,0,0,1,4.484,3.782,14.736,14.736,0,0,1,2.316,5.065C244.71,225.266,244.787,225.7,244.834,226.05Z" transform="translate(-235.42 -215.117)" fill="#004c77"/>
                              </g>
                              <g id="Group_202" data-name="Group 202" transform="translate(4.573)">
                                <path id="Path_724" data-name="Path 724" d="M246.063,223.445c-.23.277-.472.555-.714.838-.05-.065-.094-.136-.142-.2-.776-1.171-1.85-2.735-3.048-4.4a31.3,31.3,0,0,0-3.413-4.057l-.7-.649c-.224-.18-.422-.33-.575-.457l-.5-.4s.227.047.649.156c.207.059.466.127.761.221.283.112.608.254.959.413a12.282,12.282,0,0,1,4.482,3.788A14.536,14.536,0,0,1,246.063,223.445Z" transform="translate(-236.97 -214.113)" fill="#004c77"/>
                              </g>
                            </g>
                          </g>
                        </g>
                      </g>
                      <path id="Path_725" data-name="Path 725" d="M235.931,235.014s11.807-22.622,11.609-22.543l-6.623-9.739-17.073,26.6Z" transform="translate(-166.043 -172.502)" fill="#ffd455"/>
                      <path id="Path_726" data-name="Path 726" d="M240.734,203.743l-15.757,25.188,4.891,2.3,14.078-22.767Z" transform="translate(-163.834 -170.532)" fill="#b50008"/>
                    </g>
                    <g id="Group_214" data-name="Group 214" transform="translate(154.726 119.34)">
                      <g id="Group_213" data-name="Group 213">
                        <path id="Path_727" data-name="Path 727" d="M267.607,235.084l8.514,15.017.859,1.519,2.357,4.148.316-.142v-.006L281.01,255l4.257-1.968q3.934-1.81,7.83-3.717a405.327,405.327,0,0,0,47.661-27.372l10.14-6.78s-5.3-2.708-12.662-6.249c-1.033-.5-2.109-1.015-3.216-1.54-13.642-6.488-32.084-14.7-38.418-14.887l-20.578,30.231-6.623,9.739-.316.46Z" transform="translate(-232.031 -192.486)" fill="#005f98"/>
                        <g id="Group_212" data-name="Group 212" transform="translate(0 14.887)">
                          <g id="Group_211" data-name="Group 211">
                            <path id="Path_728" data-name="Path 728" d="M255.627,221.1c1.03,2.67,18.551-6.488,18.551-6.488l4.095,3.652-6.96,4.514L265.534,233.4s1.4,1.882,3.263,4.083c.227.28.472.555.711.835.826.95,1.711,1.921,2.578,2.8q.482.5.962.932c.106.109.227.21.333.313a15.505,15.505,0,0,0,1.682,1.316,3.3,3.3,0,0,0,1.5.6l6.193-7.1s12.984.449,14.742-.448c.693-.363,2.452-3.31,4.316-6.73.448-.82.9-1.67,1.351-2.511v-.006c.448-.85.885-1.693,1.3-2.511l-2.9-3.1L300.5,220.72l-9.379-13.775c-1.242-.3-14.692,1.752-17.731,2.16a9.739,9.739,0,0,0-3.3.95C263.95,213.347,254.595,218.436,255.627,221.1Z" transform="translate(-255.548 -179.234)" fill="#005f98"/>
                            <path id="Path_729" data-name="Path 729" d="M261.154,259.413q.482.5.962.932c.106.109.227.21.333.313a15.51,15.51,0,0,0,1.682,1.316,3.3,3.3,0,0,0,1.5.6l6.193-7.1s12.984.448,14.742-.448c.693-.363,2.452-3.31,4.316-6.729.448-.82.9-1.67,1.351-2.511v-.006l1.357-.622,4.257-1.968q3.934-1.81,7.83-3.717A405.321,405.321,0,0,0,353.343,212.1l10.14-6.78s-5.3-2.708-12.662-6.249c-1.033-.5-2.109-1.015-3.216-1.54-8.588,11.541-17.5,21.548-29.93,29.552a105.552,105.552,0,0,1-23.912,11.473,7.906,7.906,0,0,0-2.918,1.416c-.071.059-.139.127-.2.192a6.124,6.124,0,0,0-1.077,1.614c-.3.593-.543,1.218-.829,1.811a13.52,13.52,0,0,1-8.638,7.066c-3.163.82-6.553.454-9.68,1.4-3.461,1.053-6.269,3.605-8.541,6.42C261.632,258.782,261.387,259.091,261.154,259.413Z" transform="translate(-244.616 -197.532)" fill="#0092cd"/>
                            <g id="Group_210" data-name="Group 210" transform="translate(13.249 48.918)">
                              <g id="Group_208" data-name="Group 208" transform="translate(4.251 2.962)">
                                <path id="Path_730" data-name="Path 730" d="M261.48,226.05c.106.109.227.212.333.316.218-.327.5-.758.838-1.277.776-1.168,1.853-2.732,3.048-4.4a31.384,31.384,0,0,1,3.416-4.051c.257-.242.493-.46.7-.655.224-.174.416-.33.578-.454.316-.26.5-.41.5-.41s-.233.05-.652.162c-.206.053-.469.127-.764.218-.28.115-.6.251-.956.416a12.332,12.332,0,0,0-4.484,3.782,14.738,14.738,0,0,0-2.316,5.065C261.6,225.266,261.53,225.7,261.48,226.05Z" transform="translate(-261.48 -215.117)" fill="#004c77"/>
                              </g>
                              <g id="Group_209" data-name="Group 209">
                                <path id="Path_731" data-name="Path 731" d="M260.039,223.445c.23.277.472.555.714.838.05-.065.094-.136.139-.2.779-1.171,1.853-2.735,3.051-4.4a31.284,31.284,0,0,1,3.413-4.057l.7-.649c.224-.18.422-.33.575-.457l.5-.4s-.227.047-.649.156c-.207.059-.466.127-.761.221-.283.112-.608.254-.959.413a12.311,12.311,0,0,0-4.484,3.788A14.579,14.579,0,0,0,260.039,223.445Z" transform="translate(-260.039 -214.113)" fill="#004c77"/>
                              </g>
                            </g>
                          </g>
                        </g>
                      </g>
                      <path id="Path_732" data-name="Path 732" d="M291.913,229.329l-17.073-26.6-6.623,9.739c-.2-.08,11.609,22.543,11.609,22.543Z" transform="translate(-230.847 -172.502)" fill="#ffd455"/>
                      <path id="Path_733" data-name="Path 733" d="M271.9,203.743l15.757,25.188-4.891,2.3-14.078-22.767Z" transform="translate(-229.93 -170.532)" fill="#b50008"/>
                    </g>
                  </g>
                </g>
              </g>
            </g>
          </g>
          <path id="Union_24" data-name="Union 24" d="M4982.051,1086.3l-.1.015s-.184-.4-.5-1.2a33.931,33.931,0,0,1-2.156-5.661,13.848,13.848,0,0,1-.343-1.557,154.49,154.49,0,0,1-5.25-25.079c-2.769-21.455-2.823-52.332-2.823-52.332a42.691,42.691,0,0,0,9.337,5.583,69.353,69.353,0,0,0,12.08,3.586s-6.211-5.871-9.23-10.768a17.04,17.04,0,0,1-2.85-8.823,263.74,263.74,0,0,0,24.463,15.411,209.161,209.161,0,0,0,24.559,11.128l-4.064-13.515a64.466,64.466,0,0,0,11.594,10.153,56.363,56.363,0,0,0,13.477,6.094,17.688,17.688,0,0,1-6.214-6.094c-2.384-4.061-3.324-10.153-3.324-10.153l33.533,28.016s.821,30.3-.279,39.224a11.275,11.275,0,0,1-.218,2.18c-4.12,20.827-32.763,37.514-47.524,38.424-.566.035-1.149.052-1.747.052C5011.237,1110.987,4990.673,1102.459,4982.051,1086.3Z" transform="translate(-4912.015 2732.766)" fill="#fdd8bf"/>
          <path id="Path_679" data-name="Path 679" d="M1583.148,1305.229s7.311,9.489,17.316,15.252,22.707,7.8,22.707,7.8a142.56,142.56,0,0,1-21.56-9.748A123.667,123.667,0,0,1,1583.148,1305.229Z" transform="translate(-1509.974 2414.199)" fill="#63222b"/>
          <path id="Path_681" data-name="Path 681" d="M1583.382,1304.564a22.237,22.237,0,0,0,5.458,7.994,25.825,25.825,0,0,0,9.086,4.508s-4.261-2.673-8.029-5.423A29.807,29.807,0,0,1,1583.382,1304.564Z" transform="translate(-1464.513 2432.203)" fill="#63222b"/>
          <path id="Path_682" data-name="Path 682" d="M0,0A22.236,22.236,0,0,0,5.458,7.994,25.829,25.829,0,0,0,14.544,12.5S10.283,9.829,6.515,7.078A29.809,29.809,0,0,1,0,0Z" transform="matrix(0.985, 0.174, -0.174, 0.985, 120.064, 3733.344)" fill="#63222b"/>
          <path id="Path_683" data-name="Path 683" d="M1604.174,1338.03c-.235,5.686-7.734,9.748-6.91,12.482s8.513,0,8.513,0" transform="translate(-1492.861 2457.264)" fill="none" stroke="#eaaa7f" stroke-linecap="round" stroke-width="1.5"/>
          <g id="Mask_Group_56" data-name="Mask Group 56" clip-path="url(#clip-path-2)">
            <path id="Path_676" data-name="Path 676" d="M1578.458,1327.043c5.224-5.92,100.573-5.334,105.162,0,1.835,2.134,9.19,19.67,0,24.376-13.115,6.718-26.835-1.337-53.45-.973s-47.55,7.662-53.011,2.432C1572.216,1348.146,1575.878,1329.967,1578.458,1327.043Z" transform="translate(-1519.318 2436.255)" fill="url(#linear-gradient-11)"/>
          </g>
          <ellipse id="Ellipse_223" data-name="Ellipse 223" cx="10.015" cy="10.142" rx="10.015" ry="10.142" transform="translate(78.603 3763.988)" fill="#fdd8bf"/>
          <ellipse id="Ellipse_229" data-name="Ellipse 229" cx="10.015" cy="10.142" rx="10.015" ry="10.142" transform="translate(124.603 3763.988)" fill="#fdd8bf"/>
          <path id="exchange-rate" d="M31,55h2V53a4,4,0,0,0,2.643-7A4,4,0,0,0,33,39V37H31v2H29V53h2Zm0-14h2a2,2,0,0,1,0,4H31Zm0,6h2a2,2,0,0,1,2,2c0,1.1-.9,2-4,2Z" transform="translate(102.876 3728.067)" fill="url(#linear-gradient-16)"/>
          <path id="exchange-rate-2" data-name="exchange-rate" d="M31,55h2V53a4,4,0,0,0,2.643-7A4,4,0,0,0,33,39V37H31v2H29V53h2Zm0-14h2a2,2,0,0,1,0,4H31Zm0,6h2a2,2,0,0,1,2,2c0,1.1-.9,2-4,2Z" transform="translate(55.876 3728.067)" fill="url(#linear-gradient-16)"/>
        </g>
        <path id="Path_801" data-name="Path 801" d="M-4445.583,2732.625s7.232,4.109,14.731,4.857,15.927-1.691,15.927-1.691-7.793,9.664-15.292,8.916S-4445.583,2732.625-4445.583,2732.625Z" transform="matrix(0.998, -0.07, 0.07, 0.998, 4425.167, 778.632)" fill="#682b2b"/>
        <g id="Mask_Group_55" data-name="Mask Group 55" transform="matrix(0.998, -0.07, 0.07, 0.998, 54.409, 3586.594)" clip-path="url(#clip-path-3)">
          <path id="Path_802" data-name="Path 802" d="M-4445.583,2732.625s6.46,5.117,13.958,5.865,15.014-3.988,15.014-3.988-6.108,10.952-13.606,10.2S-4445.583,2732.625-4445.583,2732.625Z" transform="translate(-4304.208 2989.135) rotate(180)" fill="#943a3a"/>
        </g>
      </g>
      <path id="Union_26" data-name="Union 26" d="M121.561,382.432a199.693,199.693,0,1,1,77.474,15.641A199.071,199.071,0,0,1,121.561,382.432ZM29.669,200.273c0,94.071,76.532,170.6,170.6,170.6,76.88,0,142.047-51.123,163.3-121.155l-.394,0a29.952,29.952,0,0,1-29.952-29.952V178.3a29.951,29.951,0,0,1,29.576-29.95C340.78,79.593,276.245,29.669,200.273,29.669,106.2,29.669,29.669,106.2,29.669,200.273Z" transform="translate(-5 3601)" fill="url(#linear-gradient-18)"/>
    </g>
  </g>
</svg>
