<svg xmlns="http://www.w3.org/2000/svg" xmlns:xlink="http://www.w3.org/1999/xlink" width="117.85" height="117.852" viewBox="0 0 117.85 117.852">
  <defs>
    <linearGradient id="linear-gradient" x1="0.5" x2="0.5" y2="1" gradientUnits="objectBoundingBox">
      <stop offset="0" stop-color="#9ceeff"/>
      <stop offset="1" stop-color="#6454f0"/>
    </linearGradient>
    <clipPath id="clip-path">
      <path id="Path_1" data-name="Path 1" d="M61.965,76.989c21.024-13.8,54.5-20.86,54.5,11.3A58.23,58.23,0,1,1,0,88.289C0,56.13,40.941,90.793,61.965,76.989Z" transform="translate(0 -65.366)" fill="url(#linear-gradient)"/>
    </clipPath>
  </defs>
  <g id="Group_368" data-name="Group 368" transform="translate(13786.025 2689.83)">
    <path id="Path_3" data-name="Path 3" d="M58.925,0A58.926,58.926,0,1,1,0,58.926,58.925,58.925,0,0,1,58.925,0Z" transform="translate(-13786.025 -2689.83)" fill="#ddfefc"/>
    <g id="Mask_Group_69" data-name="Mask Group 69" transform="translate(-13784.637 -2653.658)" clip-path="url(#clip-path)">
      <g id="united-kingdom_1_" data-name="united-kingdom (1)" transform="translate(0 -30.736)">
        <ellipse id="Ellipse_269" data-name="Ellipse 269" cx="59.87" cy="59.871" rx="59.87" ry="59.871" transform="translate(0 0)" fill="#f0f0f0"/>
        <g id="Group_362" data-name="Group 362" transform="translate(2.062 2.063)">
          <path id="Path_1149" data-name="Path 1149" d="M10.681,4.169A59.653,59.653,0,0,0,.367,25H31.513Z" transform="translate(-0.367 17.189)" fill="#0052b4"/>
          <path id="Path_1150" data-name="Path 1150" d="M46.548,25A59.658,59.658,0,0,0,36.234,4.169L15.4,25Z" transform="translate(69.067 17.189)" fill="#0052b4"/>
          <path id="Path_1151" data-name="Path 1151" d="M.367,13.437A59.659,59.659,0,0,0,10.681,34.269L31.512,13.437Z" transform="translate(-0.367 59.99)" fill="#0052b4"/>
          <path id="Path_1152" data-name="Path 1152" d="M34.269,10.681A59.655,59.655,0,0,0,13.437.367V31.513Z" transform="translate(59.989 -0.367)" fill="#0052b4"/>
          <path id="Path_1153" data-name="Path 1153" d="M4.169,36.234A59.656,59.656,0,0,0,25,46.549V15.4Z" transform="translate(17.189 69.068)" fill="#0052b4"/>
          <path id="Path_1154" data-name="Path 1154" d="M25,.367A59.657,59.657,0,0,0,4.169,10.681L25,31.513Z" transform="translate(17.189 -0.367)" fill="#0052b4"/>
          <path id="Path_1155" data-name="Path 1155" d="M13.437,46.549A59.657,59.657,0,0,0,34.269,36.235L13.437,15.4Z" transform="translate(59.989 69.068)" fill="#0052b4"/>
          <path id="Path_1156" data-name="Path 1156" d="M15.4,13.437,36.234,34.269A59.656,59.656,0,0,0,46.548,13.437Z" transform="translate(69.067 59.99)" fill="#0052b4"/>
        </g>
        <g id="Group_363" data-name="Group 363" transform="translate(0 0)">
          <path id="Path_1157" data-name="Path 1157" d="M119.233,52.062H67.679V.507a60.419,60.419,0,0,0-15.618,0V52.061H.507a60.421,60.421,0,0,0,0,15.619H52.061v51.555a60.419,60.419,0,0,0,15.618,0V67.68h51.554a60.422,60.422,0,0,0,0-15.619Z" transform="translate(0 0)" fill="#d80027"/>
          <path id="Path_1158" data-name="Path 1158" d="M13.437,13.437h0L40.153,40.154Q42,38.311,43.672,36.31L20.8,13.437H13.437Z" transform="translate(62.051 62.053)" fill="#d80027"/>
          <path id="Path_1159" data-name="Path 1159" d="M29.838,13.437h0L3.121,40.153Q4.964,42,6.965,43.672L29.838,20.8Z" transform="translate(14.414 62.053)" fill="#d80027"/>
          <path id="Path_1160" data-name="Path 1160" d="M32.73,29.838h0L6.014,3.121Q4.171,4.964,2.495,6.965L25.368,29.838H32.73Z" transform="translate(11.521 14.414)" fill="#d80027"/>
          <path id="Path_1161" data-name="Path 1161" d="M13.437,32.731h0L40.153,6.014Q38.311,4.171,36.31,2.495L13.437,25.368Z" transform="translate(62.051 11.522)" fill="#d80027"/>
        </g>
      </g>
    </g>
  </g>
</svg>
