<svg height="294.052" viewBox="0 0 294.063 294.052" width="294.063" xmlns="http://www.w3.org/2000/svg" xmlns:xlink="http://www.w3.org/1999/xlink"><linearGradient id="a" gradientUnits="objectBoundingBox" x1=".5" x2=".5" y2="1"><stop offset="0" stop-color="#fff"/><stop offset="1" stop-color="#94fef7"/></linearGradient><path d="m85.028 195.738h10.209.988c-.33 0-.651 0-.981 0h-90.35l9.506-16.152a29.426 29.426 0 0 0 .139-30.347 97.9 97.9 0 1 1 180.393-64.385 97.889 97.889 0 0 1 70.223 148.294 29.443 29.443 0 0 0 .139 30.347l9.509 16.152h-90.342-.635a100.138 100.138 0 0 1 -98.798-83.909z" fill="url(#a)" transform="translate(7.193 7.412)"/><g fill="#fff"><path d="m278.5 267.351a22.311 22.311 0 0 1 0-23.075 104.892 104.892 0 0 0 -69.925-158.03 104.882 104.882 0 0 0 -31.325-57.409 105 105 0 0 0 -176.924 84.294 104.838 104.838 0 0 0 15.474 47.169 22.311 22.311 0 0 1 0 23.075l-9.72 16.218a6.993 6.993 0 0 0 6.013 10.558h74.4a107.338 107.338 0 0 0 104.887 83.91h90.62a6.991 6.991 0 0 0 6.014-10.559zm-254.176-71.184 3.356-5.667a36.291 36.291 0 0 0 0-37.55 90.9 90.9 0 1 1 168.31-46.357 92.65 92.65 0 0 1 -93.559 89.574zm167.331 83.91a93.358 93.358 0 0 1 -90.9-69.925h1.678a106.7 106.7 0 0 0 107.542-103.352v-6.084a90.9 90.9 0 0 1 56.639 136.144 36.292 36.292 0 0 0 0 37.55l3.357 5.664h-78.316z" transform="translate(0 -.01)"/><path d="m163.212 132.983c0 6.993-6.573 11.468-23.425 12.167l-.7.7 3.077 21.677h13.985l1.469-8.181c14.265-2.517 25.8-9.51 25.8-26.641 0-17.761-13.076-27.97-32.375-27.97a41.96 41.96 0 0 0 -32.725 14.474l12.307 13.5a27.543 27.543 0 0 1 20.069-9.23c7.972-.006 12.518 3.49 12.518 9.504z" transform="translate(-50.362 -44.579)"/><path d="m87.396 133.547h21.677v21.397h-21.677z"/></g></svg>