<svg xmlns="http://www.w3.org/2000/svg" xmlns:xlink="http://www.w3.org/1999/xlink" width="398.071" height="398.073" viewBox="0 0 398.071 398.073">
  <defs>
    <clipPath id="clip-path">
      <circle id="Ellipse_228" data-name="Ellipse 228" cx="162" cy="162" r="162" transform="translate(419 3506)" fill="#034efd"/>
    </clipPath>
    <linearGradient id="linear-gradient" x1="0.5" x2="0.5" y2="1" gradientUnits="objectBoundingBox">
      <stop offset="0" stop-color="#fff"/>
      <stop offset="1" stop-color="#94d4fe"/>
    </linearGradient>
    <linearGradient id="linear-gradient-2" x1="0.5" x2="0.5" y2="1" gradientUnits="objectBoundingBox">
      <stop offset="0" stop-color="#00ffed"/>
      <stop offset="1" stop-color="#00e3c5"/>
    </linearGradient>
    <clipPath id="clip-path-2">
      <path id="Path_798" data-name="Path 798" d="M-4445.583,2732.625s6.46,5.117,13.958,5.865,15.014-3.988,15.014-3.988-6.108,10.952-13.606,10.2S-4445.583,2732.625-4445.583,2732.625Z" transform="translate(4555.985 -2496.233)" fill="#682b2b"/>
    </clipPath>
    <linearGradient id="linear-gradient-8" x1="0.057" y1="0.438" x2="0.82" y2="0.893" gradientUnits="objectBoundingBox">
      <stop offset="0" stop-color="#fff"/>
      <stop offset="1" stop-color="#94fef7"/>
    </linearGradient>
  </defs>
  <g id="Group_256" data-name="Group 256" transform="translate(-292 -3397)">
    <g id="Group_253" data-name="Group 253" transform="translate(-1 -3)">
      <g id="Mask_Group_52" data-name="Mask Group 52" transform="translate(-89 -69)" clip-path="url(#clip-path)">
        <g id="Group_252" data-name="Group 252" transform="translate(218.465 3411.006)">
          <g id="Group_250" data-name="Group 250" transform="translate(200.55 45.227)">
            <path id="Path_794" data-name="Path 794" d="M162,0A162,162,0,1,1,0,162,162,162,0,0,1,162,0Z" transform="translate(-0.015 49.767)" fill="url(#linear-gradient)"/>
            <ellipse id="Ellipse_227" data-name="Ellipse 227" cx="206.638" cy="19.519" rx="206.638" ry="19.519" transform="translate(15.99 901.729)" opacity="0.1"/>
            <path id="Path_736" data-name="Path 736" d="M267.63,170.13S158.375,244.1,275.013,647.217l119.488,9.93Z" transform="translate(-172.728 123.162)" fill="#ffae00"/>
            <path id="Path_737" data-name="Path 737" d="M357.018,163.334s43.965-9.047,141.911,71.616c104.362,85.943,275.657,97.707,323.205,224.5,0,0-91.928-51.775-143.13,82.442C628.714,673.716,504.646,754.824,302.7,653.853c0,0-59.561,14.911-73.885-52.617s71.619-422.549,71.619-422.549Z" transform="translate(-164.61 113.591)" fill="url(#linear-gradient-2)"/>
            <path id="Path_738" data-name="Path 738" d="M463.1,377.908C383.6,300.18,356.993,265.739,349.164,185.9s-30.479,22.479-33.48,20.713a19.618,19.618,0,0,1-8.916-10.215c-3.013,12.657-9.585,40.564-17.583,76.374L267.62,189.992s-83.026,56.26-27.013,337.82c-4.98,37.8-6.955,68.28-3.68,83.714,6.319,29.8,21.448,43.53,36.38,49.588.571,2,1.113,3.952,1.7,5.964l50.678,4.213c89.728,41.677,164.118,46.921,222.685,27.633C548.265,689.8,607.462,506.818,463.1,377.908Z" transform="translate(-172.718 103.3)" opacity="0.1"/>
            <path id="Path_739" data-name="Path 739" d="M246.652,122.18s-1.533,41.414-19.95,50.671-12.279,34.1-6.65,38.977c0,0-1.024-14.129,8.7-19,0,0-19.95,28.746,12.279,53.106,0,0-2.045-11.694,0-20.464,0,0-6.138,44.338,76.735,40.926s116.64-57,123.8-84.773-22-16.078-19.952-55.543-32.74-16.564-32.74-16.564Z" transform="translate(-181.934 32.535)" fill="#3f2d6b"/>
            <path id="Path_740" data-name="Path 740" d="M246.652,122.18s-1.533,41.414-19.95,50.671-12.279,34.1-6.65,38.977c0,0-1.024-14.129,8.7-19,0,0-19.95,28.746,12.279,53.106,0,0-2.045-11.694,0-20.464,0,0-6.138,44.338,76.735,40.926s116.64-57,123.8-84.773-22-16.078-19.952-55.543-32.74-16.564-32.74-16.564Z" transform="translate(-181.934 32.535)" fill="#8e4939"/>
            <path id="Path_741" data-name="Path 741" d="M310.115,124.284s10.231-7.164,12.788,7.671-12.788,39.393-30.693,33.252S310.115,124.284,310.115,124.284Z" transform="translate(-83.738 59.023)" fill="#fdd8bf"/>
            <path id="Path_742" data-name="Path 742" d="M305.137,126.75s6.894-4.825,8.618,5.168-8.618,26.541-20.68,22.4S305.137,126.75,305.137,126.75Z" transform="translate(-80.368 63.108)" opacity="0.08"/>
            <path id="Path_743" data-name="Path 743" d="M330.732,178.551c-7-6.847-20.849-7.841-32.52-7.944V151.744h-22.85l.838,18.616a92.2,92.2,0,0,0-23.691,7.751c-18.9,29.444,12.3,35.6,36.913,41.748S350.947,198.327,330.732,178.551Z" transform="translate(-138.325 98.375)" fill="#f2c5a7"/>
            <path id="Path_744" data-name="Path 744" d="M332.656,112.438s-4.008-15.869-9.078-19.926-14.063-2.353-18.8-12.208c-2.592-5.4-.815-13.882.618-17.174,4.7-10.78,9.3-17.151,10.87-17.538,2.466-.611,9.43-.925,8.93,10.062,0,0-1.416-11.079,7.207-10.4,6.4.507,5.509,9.421,5.509,9.421s.763-9.6,6.518-7.972,2.78,6.354,2.78,6.354,2.973-7.012,7.141,1.371,3.806,24.651-1.97,35.779-3.534,53.925-.667,59.977S332.656,112.438,332.656,112.438Z" transform="translate(-60.813 22.773)" fill="#fdd8bf"/>
            <path id="Path_745" data-name="Path 745" d="M346.3,141.606s6.229,23.7-9.67,64.245-50.878,80.293-50.878,80.293l25.438,37.364s56.445-70.752,65.986-113.681-3.052-69.81-3.052-69.81Z" transform="translate(-85.684 -26.957)" fill="#fdd8bf"/>
            <path id="Path_746" data-name="Path 746" d="M303.086,167.948s-106.064,34.184-102.445,59.69,36.234,97.289,49.29,85.752,15.925-20.812,15.925-20.812l-16.444,2.247-6.2-56,70.921-33.252Z" transform="translate(-200.55 120.22)" fill="#fdd8bf"/>
            <path id="Path_747" data-name="Path 747" d="M230.742,228.448l48.783-22.873-11.043-37.627a437.693,437.693,0,0,0-42.262,15.895C228.088,198.455,228.189,210.452,230.742,228.448Z" transform="translate(-165.945 120.22)" opacity="0.08"/>
            <path id="Path_748" data-name="Path 748" d="M271.265,278.889l-2.729-14.664s-19.44-3.071-17.393-20.464l-12.279,3.069-12.278-47.064a280.483,280.483,0,0,1,55.25-19.44s.009,26.083,31.719,23.533c36.389-2.926,25.844-29.293,25.844-29.293l30.43-21.864,26.6,40.926-13.3,12.276S355.506,287.755,333,307.2,271.265,278.889,271.265,278.889Z" transform="translate(-165.449 99.665)" fill="#fff"/>
            <path id="Path_749" data-name="Path 749" d="M345.726,152.7l-24.437,17.557a19.994,19.994,0,0,1,1.731,3.748c.967,2.815,28.734,48.363,3.069,77.207-12.563,14.117-35.624,10.982-52.11,2.938a23.4,23.4,0,0,1-6.953,6.028c-4.884,2.515-8.568,3.987-14.131,4.461a44.576,44.576,0,0,1-8.428-.242l2.7,14.49s39.221,47.747,61.731,28.307S359.026,205.9,359.026,205.9l13.3-12.276Z" transform="translate(-141.345 99.665)" fill="#ededed"/>
            <path id="Path_750" data-name="Path 750" d="M242.419,425.3l38.879,87.99,23.874,12.959s-6.138-121.414-15.688-157.564S242.419,425.3,242.419,425.3Z" transform="translate(-144.105 379.568)" fill="#fdd8bf"/>
            <path id="Path_751" data-name="Path 751" d="M312.914,418.141l70.471,108.973,19.44-7.162s-39.491-134.7-57.067-167.7S312.914,418.141,312.914,418.141Z" transform="translate(-49.067 359.602)" fill="#fdd8bf"/>
            <path id="Path_752" data-name="Path 752" d="M375.044,430.42c-10.59-32.32-21.882-64.267-29.286-78.168-17.576-33-32.844,65.889-32.844,65.889l15.585,24.1C343.078,435.886,359.02,432.789,375.044,430.42Z" transform="translate(-49.067 359.602)" fill="#1b1918" opacity="0.1"/>
            <path id="Path_753" data-name="Path 753" d="M299.026,438.62c-2.538-28.124-5.774-55.67-9.543-69.938-9.55-36.152-47.064,56.614-47.064,56.614l7.028,14.937C265.91,439,282.457,438.794,299.026,438.62Z" transform="translate(-144.105 379.568)" fill="#1b1918" opacity="0.1"/>
            <path id="Path_754" data-name="Path 754" d="M262.905,431.648l1.005,2.139,9.416-2.355C269.853,431.516,266.38,431.6,262.905,431.648Z" transform="translate(-116.487 475.439)" fill="#1b1918" opacity="0.1"/>
            <path id="Path_755" data-name="Path 755" d="M293.448,206.44s-86.626,55.25-83.216,136.419S232.06,527.708,270.938,615.7l73.666-2.045s-8.186-153.133-8.867-229.528c0,0,36.833,107.431,115.616,231.233l55.931-33.424S475.569,318.3,368.478,218.719C368.478,218.719,335.055,226.221,293.448,206.44Z" transform="translate(-187.632 172.114)" fill="#7869a8"/>
            <path id="Path_756" data-name="Path 756" d="M316.721,421.977a47.438,47.438,0,0,1,4.774,32.743s-81.85,11.6-87.307,2.045,57.3-32.059,57.3-32.059S298.986,434.939,316.721,421.977Z" transform="translate(-155.655 462.692)" fill="#fff"/>
            <path id="Path_757" data-name="Path 757" d="M234.148,438.466a2.787,2.787,0,0,0,.028,2.524c5.457,9.55,87.307-2.045,87.307-2.045a44.846,44.846,0,0,0,.82-5.267C304.654,435.977,253.276,442.122,234.148,438.466Z" transform="translate(-155.643 478.467)" fill="#3f2d6b"/>
            <path id="Path_758" data-name="Path 758" d="M338.568,422.925s6.14,42.974,15.348,48.088,55.25,3.069,50.133-15.348c-1.916-6.9-42.971-45.017-42.971-45.017S351.87,430.087,338.568,422.925Z" transform="translate(-14.481 447.42)" fill="#fff"/>
            <path id="Path_759" data-name="Path 759" d="M397.4,430.712a6.755,6.755,0,0,0-.749-1.555c-3.039,14.7-41.37,16.728-53.155,12.567a11.331,11.331,0,0,0,3.771,4.335C356.479,451.177,402.519,449.129,397.4,430.712Z" transform="translate(-7.835 472.373)" fill="#3f2d6b"/>
            <path id="Path_760" data-name="Path 760" d="M215.549,238.574s10.574,22.85,23.193-5.114c0,0,14.664,24.555,3.069-4.436,0,0,29.329,21.829,3.41-3.75,0,0,32.059-12.279-5.8-3.069L229.192,226.3Z" transform="translate(-180.33 188.749)" fill="#fdd8bf"/>
            <path id="Path_761" data-name="Path 761" d="M289.549,103.247" transform="translate(-80.566 32.993)" fill="#fdd8bf"/>
            <path id="Path_762" data-name="Path 762" d="M285.427,156.415s-24.768-1.862-45.913,24.738c0,0,21.145,28.65,58.659,17.052,0,0-15.364-15.263-12.276-34.1Z" transform="translate(-148.021 104.634)" fill="url(#linear-gradient-2)"/>
            <path id="Path_763" data-name="Path 763" d="M275.858,156.2s14.119-.737,25.024,5.436c0,0-3.158,39.073-37.733,37.862a59.253,59.253,0,0,0,10.679-22.376A95.824,95.824,0,0,0,275.858,156.2Z" transform="translate(-116.156 104.349)" fill="url(#linear-gradient-2)"/>
            <path id="Path_764" data-name="Path 764" d="M279.437,172.894s-31.592,6.469-22.042,47.4C257.395,220.289,294.442,200.861,279.437,172.894Z" transform="translate(-126.34 126.888)" fill="url(#linear-gradient-2)"/>
            <path id="Path_765" data-name="Path 765" d="M264.176,173.923s-6.1,26.034,35.7,30.362C299.875,204.285,295.507,168.863,264.176,173.923Z" transform="translate(-115.193 127.609)" fill="url(#linear-gradient-2)"/>
            <path id="Path_766" data-name="Path 766" d="M285.891,379.014l-28.8-11.87s-27.542-67.683,8.855-156.913l10.94,2.47S245.418,307.527,285.891,379.014Z" transform="translate(-137.784 177.224)" fill="#3f2d6b" opacity="0.3"/>
            <path id="Path_767" data-name="Path 767" d="M264.027,211.722s7.044,129.931,105.667,111.927l-10.959-22.7S288.29,308,270.287,212.5Z" transform="translate(-114.974 179.235)" fill="#3f2d6b" opacity="0.3"/>
            <path id="Path_768" data-name="Path 768" d="M215.36,285.294S250,330.5,297.546,209.566L295.2,207.8s-52.834,90.4-71.619,62.813C223.579,270.618,215.36,279.424,215.36,285.294Z" transform="translate(-180.585 173.954)" fill="#3f2d6b" opacity="0.3"/>
            <path id="Path_769" data-name="Path 769" d="M220.36,268.751l104.1,37.571s21.133-11.741,46.181-42.267" transform="translate(-173.844 249.788)" fill="none" stroke="#3f2d6b" stroke-miterlimit="10" stroke-width="1.077"/>
            <path id="Path_770" data-name="Path 770" d="M305.928,394.514c5.229,8.7,10.616,17.475,16.28,26.375l55.931-33.424s-1.7-14.033-5.593-36.777Z" transform="translate(-58.485 366.583)" fill="#3f2d6b" opacity="0.3"/>
            <path id="Path_771" data-name="Path 771" d="M394.653,354.167s-60.756,26.544-91.571,45.4c0,0,18.212,27.708,25.689,26.175s68.193-26.774,71.248-33.705S394.653,354.167,394.653,354.167Z" transform="translate(-62.322 371.273)" fill="#aaa1d3"/>
            <path id="Path_772" data-name="Path 772" d="M231.162,368.832c3.593,9.451,7.383,18.788,11.426,27.936l73.666-2.045s-.448-8.4-1.144-22.2Z" transform="translate(-159.281 391.044)" fill="#3f2d6b" opacity="0.3"/>
            <path id="Path_773" data-name="Path 773" d="M229.637,374.789s61.39-4.093,94.812-1.364c0,0,6.821,32.059,0,34.1s-77.757,8.186-83.214,3.409S229.637,374.789,229.637,374.789Z" transform="translate(-161.337 395.971)" fill="#aaa1d3"/>
            <path id="Path_774" data-name="Path 774" d="M256.485,423.55s6.6-1.613,8.658,4.109" transform="translate(-125.142 464.53)" fill="none" stroke="#3f2d6b" stroke-linecap="round" stroke-miterlimit="10" stroke-width="1"/>
            <path id="Path_775" data-name="Path 775" d="M253.86,424.614s6.6-1.616,8.658,4.109" transform="translate(-128.681 465.963)" fill="none" stroke="#3f2d6b" stroke-linecap="round" stroke-miterlimit="10" stroke-width="1"/>
            <path id="Path_776" data-name="Path 776" d="M251.61,425.614s6.6-1.616,8.658,4.109" transform="translate(-131.714 467.311)" fill="none" stroke="#3f2d6b" stroke-linecap="round" stroke-miterlimit="10" stroke-width="1"/>
            <path id="Path_777" data-name="Path 777" d="M248.735,426.55s6.6-1.613,8.658,4.109" transform="translate(-135.59 468.575)" fill="none" stroke="#3f2d6b" stroke-linecap="round" stroke-miterlimit="10" stroke-width="1"/>
            <path id="Path_778" data-name="Path 778" d="M342.353,422.076a24.3,24.3,0,0,1,17.379-8.085" transform="translate(-9.378 451.925)" fill="none" stroke="#3f2d6b" stroke-linecap="round" stroke-miterlimit="10" stroke-width="1"/>
            <path id="Path_779" data-name="Path 779" d="M343.73,424.483a24.306,24.306,0,0,1,17.379-8.082" transform="translate(-7.522 455.174)" fill="none" stroke="#3f2d6b" stroke-linecap="round" stroke-miterlimit="10" stroke-width="1"/>
            <path id="Path_780" data-name="Path 780" d="M345.107,426.723a24.313,24.313,0,0,1,17.379-8.085" transform="translate(-5.665 458.19)" fill="none" stroke="#3f2d6b" stroke-linecap="round" stroke-miterlimit="10" stroke-width="1"/>
            <path id="Path_781" data-name="Path 781" d="M346.312,428.789a24.3,24.3,0,0,1,17.379-8.085" transform="translate(-4.041 460.975)" fill="none" stroke="#3f2d6b" stroke-linecap="round" stroke-miterlimit="10" stroke-width="1"/>
            <path id="Path_782" data-name="Path 782" d="M365.675,127.391s24.555,61.2-.512,93.52c-22.69,29.249-63.342,40.755-102.316,15.667C205.04,199.366,240.34,125.432,240.34,125.432S274.1,74.022,323.725,96.054C323.725,96.054,352.373,88.221,365.675,127.391Z" transform="translate(-161.295 15.896)" fill="#fdd8bf"/>
            <path id="Path_783" data-name="Path 783" d="M259.834,131.888l-.782,9s-25.83-2.74.39,13.3" transform="translate(-137.003 71.606)" fill="none" stroke="#eaaa7f" stroke-miterlimit="10" stroke-width="1"/>
            <path id="Path_784" data-name="Path 784" d="M368.135,107.3s-59.852,12.551-127.892-.721c0,0-14.836,22.878-10.062,54.938,0,0,55.252,21.826,143.923,4.774ZM262.414,158.423c-27.2,0-27.178-38.829-.8-38.829C288.816,119.594,288.788,158.423,262.414,158.423Zm75.141,3.132c-27.2,0-27.178-38.829-.8-38.829C363.957,122.727,363.929,161.556,337.555,161.556Z" transform="translate(-161.881 37.481)" fill="url(#linear-gradient-2)"/>
            <path id="Path_785" data-name="Path 785" d="M372.254,195.214c8.54-4.943,11.962-9.477,21.6-12.34,7.9-26.56,14.819-53.068-.679-67.935-20.145-19.321-44-7.674-44-7.674C334.343,60.2,275.019,81.3,248.4,112.383c-20.619,24.078-20.913,62.823-20.913,62.823,61.9.512,74.629-14.223,74.629-14.223-8.7,9.719-14.324,28.136-14.324,28.136,35.3-10.231,49.621-48.6,49.621-48.6-7.674,41.438,34.788,53.716,34.788,53.716C372.214,194.573,372.237,194.88,372.254,195.214Z" transform="translate(-164.238 1.282)" opacity="0.1"/>
            <path id="Path_788" data-name="Path 788" d="M270.235,136.386s2.642-19.372,8.219-19.079,6.457,17.9,6.457,17.9l5.87-2.642" transform="translate(-106.605 51.944)" fill="none" stroke="#1c1b1e" stroke-miterlimit="10" stroke-width="1"/>
            <path id="Path_789" data-name="Path 789" d="M259.031,136.386s-2.642-19.372-8.219-19.079-6.457,17.9-6.457,17.9l-5.87-2.642" transform="translate(-149.409 51.944)" fill="none" stroke="#1c1b1e" stroke-miterlimit="10" stroke-width="1"/>
            <path id="Path_790" data-name="Path 790" d="M337.412,137.062s-14.324,38.369-49.621,48.6c0,0,5.626-18.417,14.324-28.138,0,0-12.729,14.737-74.629,14.225,0,0,.294-38.745,20.913-62.823,26.621-31.087,85.945-52.181,100.781-5.117,0,0,23.85-11.647,44,7.674,25.067,24.043,7.674,82.364-13.812,113.569,0,0-6.14-9.719-7.162-34.276C372.2,190.776,329.738,178.5,337.412,137.062Z" transform="translate(-164.238 -3.379)" fill="#8e4939"/>
            <path id="Path_791" data-name="Path 791" d="M321.794,91.721c2.759,19.9-2.24,40.581-17.329,54.912a59.188,59.188,0,0,1-23.282,13.34,61.078,61.078,0,0,0,18.623,9.97c1.021,24.557,7.162,34.276,7.162,34.276C328.148,173.458,345.321,116.372,321.794,91.721Z" transform="translate(-91.845 17.454)" opacity="0.1"/>
            <path id="Path_792" data-name="Path 792" d="M304.64,62.907s.967-6.948,5.33-7.918,18.581-1.454,18.259.97-9.7,8.4-9.7,8.4,14.058-5.492,16.644,6.14" transform="translate(-59.221 34.865)" fill="none" stroke="#eaaa7f" stroke-miterlimit="10" stroke-width="1"/>
            <line id="Line_17" data-name="Line 17" x2="1.293" y2="6.632" transform="translate(253.143 14.422)" fill="none" stroke="#eaaa7f" stroke-miterlimit="10" stroke-width="1.053"/>
            <path id="Path_793" data-name="Path 793" d="M313.241,49.58s4.363,16.965,7.432,16.32,4.513-13.821,4.513-13.821,4.375,16.083,6.474,13.659,2.855-14.049,2.855-14.049,2.419,14.429,5.906,11.158.655-12.642.655-12.642" transform="translate(-47.626 28.641)" fill="none" stroke="#eaaa7f" stroke-miterlimit="10" stroke-width="1"/>
            <path id="Path_796" data-name="Path 796" d="M-4445.583,2732.625s7.232,4.109,14.731,4.857,15.927-1.691,15.927-1.691-7.793,9.664-15.292,8.916S-4445.583,2732.625-4445.583,2732.625Z" transform="translate(4555.985 -2496.233)" fill="#682b2b"/>
            <g id="Mask_Group_53" data-name="Mask Group 53" clip-path="url(#clip-path-2)">
              <path id="Path_797" data-name="Path 797" d="M-4445.583,2732.625s6.46,5.117,13.958,5.865,15.014-3.988,15.014-3.988-6.108,10.952-13.606,10.2S-4445.583,2732.625-4445.583,2732.625Z" transform="translate(-4304.208 2989.135) rotate(180)" fill="#943a3a"/>
            </g>
          </g>
        </g>
      </g>
    </g>
    <path id="Union_5" data-name="Union 5" d="M121.561,382.432a199.693,199.693,0,1,1,77.474,15.641A199.071,199.071,0,0,1,121.561,382.432ZM29.669,200.273c0,94.071,76.532,170.6,170.6,170.6,76.88,0,142.047-51.123,163.3-121.155l-.394,0a29.952,29.952,0,0,1-29.952-29.952V178.3a29.951,29.951,0,0,1,29.576-29.95C340.78,79.593,276.245,29.669,200.273,29.669,106.2,29.669,29.669,106.2,29.669,200.273Z" transform="translate(292 3397)" fill="url(#linear-gradient-8)"/>
  </g>
</svg>
