<svg height="138.846" viewBox="0 0 138.847 138.846" width="138.847" xmlns="http://www.w3.org/2000/svg" xmlns:xlink="http://www.w3.org/1999/xlink"><linearGradient id="a" gradientUnits="objectBoundingBox" x1=".5" x2=".5" y2="1"><stop offset="0" stop-color="#9ceeff"/><stop offset="1" stop-color="#0d9eff"/></linearGradient><linearGradient id="b" gradientUnits="objectBoundingBox" x1=".5" x2=".5" y2="1"><stop offset="0" stop-color="#80e9ff"/><stop offset="1" stop-color="#23bbff"/></linearGradient><linearGradient id="c" gradientUnits="objectBoundingBox" x1=".227" x2=".5" y1=".572" y2="1"><stop offset="0" stop-color="#fff"/><stop offset="1" stop-color="#dcfefc"/></linearGradient><linearGradient id="d" gradientUnits="objectBoundingBox" x1=".52" x2="1.218" y1=".406" y2=".751"><stop offset="0" stop-color="#fff"/><stop offset="1" stop-color="#94fef7"/></linearGradient><path d="m59.291 1.6c35.511 0 59.291 24.815 59.291 57.561a59.291 59.291 0 0 1 -118.582.005c0-32.746 23.78-57.566 59.291-57.566z" fill="url(#a)" opacity=".6" transform="translate(10.373 10.017)"/><path d="m59.291 52.3c30.231-28.522 59.291-31.066 59.291 1.679a59.291 59.291 0 0 1 -118.582-.005c0-32.745 29.06 26.843 59.291-1.674z" fill="url(#b)" opacity=".6" transform="translate(10.373 15.208)"/><path d="m23.921 58.021a4.179 4.179 0 0 1 -.562-.154 36.721 36.721 0 0 1 -13.737-8.124 29.256 29.256 0 0 1 -7.022-10.934c-2.834-7.695-2.672-16.172-2.542-22.984v-.105c.025-.562.042-1.153.052-1.805a6.158 6.158 0 0 1 5.8-6.033c6.681-.373 11.849-2.551 16.264-6.855l.038-.037a3.719 3.719 0 0 1 5.054 0l.038.036c4.415 4.3 9.583 6.483 16.263 6.855a6.158 6.158 0 0 1 5.8 6.033c.01.657.027 1.247.052 1.805v.045c.13 6.825.29 15.319-2.557 23.036a29.3 29.3 0 0 1 -7.019 10.937 36.748 36.748 0 0 1 -13.721 8.129 4.3 4.3 0 0 1 -.565.155 4.167 4.167 0 0 1 -1.635 0zm-13.663-28.969a14.48 14.48 0 1 0 14.479-14.48 14.5 14.5 0 0 0 -14.479 14.48zm3.409 0a11.07 11.07 0 1 1 11.07 11.071 11.083 11.083 0 0 1 -11.07-11.071zm4.271.405a1.7 1.7 0 0 0 0 2.41l3.03 3.031a1.7 1.7 0 0 0 2.411 0l7.931-7.931a1.7 1.7 0 0 0 -2.41-2.411l-6.727 6.726-1.825-1.825a1.7 1.7 0 0 0 -2.41 0z" fill="url(#c)" transform="translate(44.646 40.827)"/><path d="m5.791 0c3.746-2.62 6.27 3.968 6.27 8.864v20.09c0 4.9-2.807 8.864-6.27 8.864s-8.712-9.018-8.712-18.474 4.967-16.724 8.712-19.344z" fill="#fff" transform="translate(121.296 52.837)"/><path d="m42.4 133.391a69.66 69.66 0 1 1 27.022 5.455 69.21 69.21 0 0 1 -27.022-5.455zm-33.4-63.324a61.07 61.07 0 0 0 118.707 20.18c-3.322-1.845-7.331-9.669-7.331-17.822 0-9.082 4.975-18.571 8.434-19.068a61.071 61.071 0 0 0 -119.81 16.71z" fill="url(#d)"/><g fill="#fff"><circle cx="87.777" cy="92.069" opacity=".16" r="7"/><circle cx="46.277" cy="48.569" opacity=".16" r="7.5"/><path d="m1137.4 1421.4.8 2.705-2.432 1.992a7.811 7.811 0 0 0 1.439-2.292 5.4 5.4 0 0 0 .193-2.405z" transform="translate(-1011.223 -1370.931)"/><path d="m1137.379 1422.06.912 2.468-2.5 2.325a7.908 7.908 0 0 0 1.358-2.3 6.386 6.386 0 0 0 .23-2.493z" transform="matrix(.90630779 -.42261826 .42261826 .90630779 -1508.4 -720.025)"/></g></svg>