<svg height="138.846" viewBox="0 0 138.847 138.846" width="138.847" xmlns="http://www.w3.org/2000/svg" xmlns:xlink="http://www.w3.org/1999/xlink"><linearGradient id="a" gradientUnits="objectBoundingBox" x1=".5" x2=".5" y2="1"><stop offset="0" stop-color="#00ffed"/><stop offset="1" stop-color="#00c2a8"/></linearGradient><linearGradient id="b" gradientUnits="objectBoundingBox" x1=".5" x2=".5" y2="1"><stop offset="0" stop-color="#00ffed"/><stop offset="1" stop-color="#00ceb2"/></linearGradient><linearGradient id="c" gradientUnits="objectBoundingBox" x1=".52" x2="1.218" y1=".406" y2=".751"><stop offset="0" stop-color="#fff"/><stop offset="1" stop-color="#94fef7"/></linearGradient><linearGradient id="d" gradientUnits="objectBoundingBox" x1=".444" x2=".987" y1=".452" y2="1"><stop offset="0" stop-color="#fff"/><stop offset="1" stop-color="#dcfefc"/></linearGradient><path d="m59.291 1.6c35.511 0 59.291 24.815 59.291 57.561a59.291 59.291 0 0 1 -118.582.005c0-32.746 23.78-57.566 59.291-57.566z" fill="url(#a)" opacity=".6" transform="translate(10.373 10.017)"/><path d="m59.291 52.3c30.231-28.522 59.291-31.066 59.291 1.679a59.291 59.291 0 0 1 -118.582-.005c0-32.745 29.06 26.843 59.291-1.674z" fill="url(#b)" opacity=".6" transform="translate(10.373 15.208)"/><path d="m5.791 0c3.746-2.62 6.27 3.968 6.27 8.864v20.09c0 4.9-2.807 8.864-6.27 8.864s-8.712-9.018-8.712-18.474 4.967-16.724 8.712-19.344z" fill="#fff" transform="translate(121.296 52.837)"/><path d="m42.4 133.391a69.66 69.66 0 1 1 27.022 5.455 69.21 69.21 0 0 1 -27.022-5.455zm-33.4-63.324a61.07 61.07 0 0 0 118.707 20.18c-3.322-1.845-7.331-9.669-7.331-17.822 0-9.082 4.975-18.571 8.434-19.068a61.071 61.071 0 0 0 -119.81 16.71z" fill="url(#c)"/><g fill="#fff"><circle cx="46.277" cy="48.569" opacity=".16" r="7.5"/><path d="m1137.4 1421.4.8 2.705-2.432 1.992a7.811 7.811 0 0 0 1.439-2.292 5.4 5.4 0 0 0 .193-2.405z" transform="translate(-1011.223 -1370.931)"/><path d="m1137.379 1422.06.912 2.468-2.5 2.325a7.908 7.908 0 0 0 1.358-2.3 6.386 6.386 0 0 0 .23-2.493z" transform="matrix(.90630779 -.42261826 .42261826 .90630779 -1508.4 -720.025)"/></g><path d="m33.77 34.634h-6.009v-1.1a12.636 12.636 0 0 0 7.232-11.278v-9.58c0-6.989-5.966-12.676-13.299-12.676s-13.3 5.686-13.3 12.675v9.582a12.637 12.637 0 0 0 7.232 11.278v1.1h-6.008a9.128 9.128 0 0 0 -9.118 9.117s-1.06 8.72 0 9.848 8.868.6 9.5 0 0-8.2 0-8.2h3.14s-1.075 7.064 0 8.2 16.066.966 17.112 0 0-8.2 0-8.2h3.14s-.862 7.444 0 8.2 8.386 1.153 9.5 0 0-9.851 0-9.851a9.128 9.128 0 0 0 -9.118-9.118zm-10.519-7.857h-3.115v-3.114h3.115zm.013-7.64v2.637h-3.141v-5.546h1.57a2.3 2.3 0 1 0 -2.3-2.3h-3.14a5.443 5.443 0 1 1 7.014 5.213zm0 0" fill="url(#d)" transform="translate(47.277 45.069)"/></svg>