<svg height="138.846" viewBox="0 0 138.847 138.846" width="138.847" xmlns="http://www.w3.org/2000/svg" xmlns:xlink="http://www.w3.org/1999/xlink"><linearGradient id="a" gradientUnits="objectBoundingBox" x1=".5" x2=".5" y2="1"><stop offset="0" stop-color="#9ceeff"/><stop offset="1" stop-color="#6454f0"/></linearGradient><linearGradient id="b" gradientUnits="objectBoundingBox" x1=".52" x2="1.218" y1=".406" y2=".751"><stop offset="0" stop-color="#fff"/><stop offset="1" stop-color="#94fef7"/></linearGradient><linearGradient id="c" gradientUnits="objectBoundingBox" x1=".5" x2=".5" y2="1"><stop offset="0" stop-color="#fff"/><stop offset="1" stop-color="#dcfefc"/></linearGradient><path d="m59.291 1.6c35.511 0 59.291 24.815 59.291 57.561a59.291 59.291 0 0 1 -118.582.005c0-32.746 23.78-57.566 59.291-57.566z" fill="url(#a)" opacity=".6" transform="translate(10.373 10.017)"/><path d="m59.291 52.3c30.231-28.522 59.291-31.066 59.291 1.679a59.291 59.291 0 0 1 -118.582-.005c0-32.745 29.06 26.843 59.291-1.674z" fill="url(#a)" opacity=".6" transform="translate(10.373 15.208)"/><path d="m5.791 0c3.746-2.62 6.27 3.968 6.27 8.864v20.09c0 4.9-2.807 8.864-6.27 8.864s-8.712-9.018-8.712-18.474 4.967-16.724 8.712-19.344z" fill="#fff" transform="translate(121.296 52.837)"/><path d="m42.4 133.391a69.66 69.66 0 1 1 27.022 5.455 69.21 69.21 0 0 1 -27.022-5.455zm-33.4-63.324a61.07 61.07 0 0 0 118.707 20.18c-3.322-1.845-7.331-9.669-7.331-17.822 0-9.082 4.975-18.571 8.434-19.068a61.071 61.071 0 0 0 -119.81 16.71z" fill="url(#b)"/><circle cx="87.777" cy="92.069" fill="#fff" opacity=".16" r="7"/><circle cx="47.277" cy="48.569" fill="#fff" opacity=".16" r="7.5"/><g fill="url(#c)" transform="translate(41.777 43.569)"><path d="m37 36.5a2 2 0 0 0 1.414-3.414l-8-8a1.988 1.988 0 0 0 -.306-.25c-.05-.034-.1-.057-.158-.086a1.942 1.942 0 0 0 -.186-.1 1.885 1.885 0 0 0 -.206-.064c-.056-.017-.11-.038-.168-.05a1.99 1.99 0 0 0 -.784 0 1.622 1.622 0 0 0 -.168.05 1.158 1.158 0 0 0 -.392.163c-.052.029-.107.052-.157.085a1.988 1.988 0 0 0 -.306.25l-8 8a2 2 0 0 0 2.829 2.828l4.588-4.584v18.172a2 2 0 0 0 4 0v-18.172l4.586 4.586a1.99 1.99 0 0 0 1.414.586z"/><path d="m47.835 20.486a18.371 18.371 0 0 0 -4.684 0 .983.983 0 0 1 -.151.014 1 1 0 0 1 -.149-1.989 19.1 19.1 0 0 1 4.083-.124 15.1 15.1 0 0 0 -14.849-13.887 15.84 15.84 0 0 0 -12.285 6.129 8.979 8.979 0 0 1 3.2 6.871 1 1 0 0 1 -2 0 6.987 6.987 0 0 0 -3.911-6.272c-.069-.034-.139-.069-.21-.1a6.812 6.812 0 0 0 -.835-.321c-.035-.01-.071-.017-.106-.027a7.031 7.031 0 0 0 -.789-.177c-.078-.013-.155-.025-.233-.036a7.143 7.143 0 0 0 -.916-.067 7.009 7.009 0 0 0 -7 7c0 .082.006.163.012.244l.012.21-.009.16c-.007.13-.015.259-.015.386v.63l-.567.271a11.887 11.887 0 0 0 -6.433 10.253 10.857 10.857 0 0 0 10.845 10.846h14.184v-4.343l-1.171 1.171a4 4 0 0 1 -5.658-5.656l8-8a4.063 4.063 0 0 1 .61-.5c.1-.065.2-.111.307-.167a2.338 2.338 0 0 1 .788-.327c.114-.033.223-.077.34-.1a4.012 4.012 0 0 1 1.567 0 3.506 3.506 0 0 1 .34.1 3.886 3.886 0 0 1 .406.126 4.081 4.081 0 0 1 .382.2c.1.056.209.1.307.167a4 4 0 0 1 .61.5l8 8a4 4 0 0 1 -5.657 5.657l-1.171-1.171v4.343h2.324c.059 0 .116-.005.174-.009l.2-.011.271.011c.058 0 .115.009.174.009h9.8a10.04 10.04 0 0 0 10.028-10.028 10.251 10.251 0 0 0 -8.165-9.986z"/></g></svg>