<svg xmlns="http://www.w3.org/2000/svg" xmlns:xlink="http://www.w3.org/1999/xlink" width="115.963" height="110.628" viewBox="0 0 115.963 110.628">
  <defs>
    <linearGradient id="linear-gradient" x1="0.5" x2="0.5" y2="1" gradientUnits="objectBoundingBox">
      <stop offset="0" stop-color="#fff"/>
      <stop offset="1" stop-color="#dcfefc"/>
    </linearGradient>
  </defs>
  <g id="Group_189" data-name="Group 189" transform="translate(-908 -1820.415)">
    <path id="Polygon_8" data-name="Polygon 8" d="M28.96,21.15A49.275,49.275,0,0,1,87,21.15l.1.073A49.275,49.275,0,0,1,104.958,76.23l-.1.307a49.275,49.275,0,0,1-46.877,34.091h0A49.275,49.275,0,0,1,11.1,76.537L11,76.23A49.275,49.275,0,0,1,28.86,21.223Z" transform="translate(908 1820.415)" fill="url(#linear-gradient)"/>
    <g id="responsive-design" transform="translate(930.588 1845.882)">
      <path id="Path_589" data-name="Path 589" d="M67.538,0H3.873A3.878,3.878,0,0,0,0,3.873V44.861a3.878,3.878,0,0,0,3.873,3.873H9.01a1.056,1.056,0,1,0,0-2.112H3.873a1.763,1.763,0,0,1-1.76-1.761V3.873a1.762,1.762,0,0,1,1.76-1.76H67.538a1.762,1.762,0,0,1,1.76,1.76V25.39a2.619,2.619,0,0,0-.5-.05H66.9V5.564a1.056,1.056,0,0,0-1.056-1.056H56.19a1.056,1.056,0,0,0,0,2.113h8.6v18.72H51.349a2.618,2.618,0,0,0-2.615,2.615v14.16H6.62V6.62H51.261a1.056,1.056,0,1,0,0-2.113H5.563A1.056,1.056,0,0,0,4.507,5.564V43.171a1.056,1.056,0,0,0,1.056,1.056H48.734v2.395H13.97a1.056,1.056,0,0,0,0,2.113H26.06l-1.148,9.3H23.029A2.468,2.468,0,0,0,20.564,60.5v2.817a2.468,2.468,0,0,0,2.465,2.465H48.382A2.448,2.448,0,0,0,49.84,65.3a2.6,2.6,0,0,0,1.508.482H68.8a2.617,2.617,0,0,0,2.614-2.614V43.541a1.056,1.056,0,0,0-2.113,0V58.836H50.847V32.283H69.3V38.6a1.056,1.056,0,1,0,2.113,0V3.873A3.878,3.878,0,0,0,67.538,0Zm-18.8,58.059a2.416,2.416,0,0,0-.352-.028H46.5l-1.148-9.3h3.383ZM28.188,48.734H43.222l1.148,9.3H27.04ZM48.734,63.313a.352.352,0,0,1-.352.352H23.029a.353.353,0,0,1-.353-.352V60.5a.353.353,0,0,1,.353-.352H48.382a.353.353,0,0,1,.353.352v2.817ZM69.3,63.164a.5.5,0,0,1-.5.5H51.348a.5.5,0,0,1-.5-.5V60.948H69.3ZM50.847,30.17V27.955a.5.5,0,0,1,.5-.5H68.8a.5.5,0,0,1,.5.5V30.17Zm0,0" fill="#2bccff"/>
      <path id="Path_590" data-name="Path 590" d="M73.767,81.627H96.3a1.056,1.056,0,0,0,1.056-1.056v-16.9A1.056,1.056,0,0,0,96.3,62.613H73.767a1.056,1.056,0,0,0-1.056,1.056v16.9A1.056,1.056,0,0,0,73.767,81.627Zm1.056-16.9H95.247V79.515H74.824Zm0,0" transform="translate(-62.57 -53.88)" fill="#2bccff"/>
      <path id="Path_591" data-name="Path 591" d="M108.629,229.287a1.056,1.056,0,0,0-1.056-1.056h-33.8a1.056,1.056,0,1,0,0,2.113h33.8A1.057,1.057,0,0,0,108.629,229.287Zm0,0" transform="translate(-62.57 -196.398)" fill="#2bccff"/>
      <path id="Path_592" data-name="Path 592" d="M73.767,266.605a1.056,1.056,0,0,0,0,2.113H92.078a1.056,1.056,0,0,0,0-2.113Zm0,0" transform="translate(-62.57 -229.42)" fill="#2bccff"/>
      <path id="Path_593" data-name="Path 593" d="M287.9,76.75H265.642a1.056,1.056,0,0,0,0,2.113H287.9a1.056,1.056,0,0,0,0-2.113Zm0,0" transform="translate(-227.683 -66.045)" fill="#2bccff"/>
      <path id="Path_594" data-name="Path 594" d="M288.672,131.33a1.056,1.056,0,0,0-1.056-1.056H265.642a1.056,1.056,0,0,0,0,2.113h21.973A1.056,1.056,0,0,0,288.672,131.33Zm0,0" transform="translate(-227.683 -112.104)" fill="#2bccff"/>
      <path id="Path_595" data-name="Path 595" d="M272.4,185.909a1.056,1.056,0,0,0,0-2.112h-6.761a1.056,1.056,0,0,0,0,2.112Zm0,0" transform="translate(-227.683 -158.161)" fill="#2bccff"/>
      <path id="Path_596" data-name="Path 596" d="M393.207,246.455a1.056,1.056,0,0,0-1.056-1.056H379.756a1.056,1.056,0,0,0-1.056,1.056v9.3a1.056,1.056,0,0,0,1.056,1.056h12.395a1.056,1.056,0,0,0,1.056-1.056Zm-2.113,8.239H380.812v-7.183h10.282Zm0,0" transform="translate(-325.88 -211.172)" fill="#2bccff"/>
      <path id="Path_597" data-name="Path 597" d="M392.151,339.313H379.756a1.056,1.056,0,0,0,0,2.113h12.395a1.056,1.056,0,0,0,0-2.113Zm0,0" transform="translate(-325.88 -291.987)" fill="#2bccff"/>
      <path id="Path_598" data-name="Path 598" d="M393.207,369.658a1.056,1.056,0,0,0-1.056-1.056H379.756a1.056,1.056,0,1,0,0,2.112h12.395A1.056,1.056,0,0,0,393.207,369.658Zm0,0" transform="translate(-325.88 -317.191)" fill="#2bccff"/>
      <path id="Path_599" data-name="Path 599" d="M379.755,397.887a1.056,1.056,0,1,0,0,2.113h6.62a1.056,1.056,0,1,0,0-2.113Zm0,0" transform="translate(-325.88 -342.391)" fill="#2bccff"/>
    </g>
  </g>
</svg>
