<svg xmlns="http://www.w3.org/2000/svg" xmlns:xlink="http://www.w3.org/1999/xlink" width="115.963" height="110.628" viewBox="0 0 115.963 110.628">
  <defs>
    <linearGradient id="linear-gradient" x1="0.5" x2="0.5" y2="1" gradientUnits="objectBoundingBox">
      <stop offset="0" stop-color="#fff"/>
      <stop offset="1" stop-color="#dcfefc"/>
    </linearGradient>
  </defs>
  <g id="Group_188" data-name="Group 188" transform="translate(-209 -1820.415)">
    <path id="Polygon_7" data-name="Polygon 7" d="M28.96,21.15A49.275,49.275,0,0,1,87,21.15l.1.073A49.275,49.275,0,0,1,104.958,76.23l-.1.307a49.275,49.275,0,0,1-46.877,34.091h0A49.275,49.275,0,0,1,11.1,76.537L11,76.23A49.275,49.275,0,0,1,28.86,21.223Z" transform="translate(209 1820.415)" fill="url(#linear-gradient)"/>
    <g id="offer" transform="translate(234.665 1845.626)">
      <path id="Path_584" data-name="Path 584" d="M116.078,27.872l0,.041A6.911,6.911,0,0,0,120.02,34.5l.026.013a4.646,4.646,0,0,1,2.1,2.024l.01.019a7.22,7.22,0,0,0,6.786,3.787l.043,0a4.941,4.941,0,0,1,2.921.76,7.407,7.407,0,0,0,7.855,0,4.941,4.941,0,0,1,2.921-.76l.043,0a7.225,7.225,0,0,0,6.788-3.791l.006-.013a4.655,4.655,0,0,1,2.111-2.028l.021-.01a6.91,6.91,0,0,0,3.944-6.593l0-.038a4.421,4.421,0,0,1,.769-2.74,6.8,6.8,0,0,0,0-7.688,4.421,4.421,0,0,1-.77-2.739l0-.041a6.91,6.91,0,0,0-3.946-6.593l-.023-.012a4.642,4.642,0,0,1-2.1-2.017l-.013-.026a7.226,7.226,0,0,0-6.786-3.787l-.044,0a4.938,4.938,0,0,1-2.92-.76h0a7.407,7.407,0,0,0-7.855,0,4.945,4.945,0,0,1-2.921.759l-.043,0a7.221,7.221,0,0,0-6.785,3.786l-.01.018a4.649,4.649,0,0,1-2.106,2.027l-.024.012a6.91,6.91,0,0,0-3.944,6.593l0,.038a4.419,4.419,0,0,1-.769,2.74,6.8,6.8,0,0,0,0,7.689,4.418,4.418,0,0,1,.769,2.74Zm1.193-9.075a6.815,6.815,0,0,0,1.187-4.228l0-.041a4.532,4.532,0,0,1,2.6-4.31l.02-.01a7.019,7.019,0,0,0,3.179-3.06l.012-.022a4.834,4.834,0,0,1,4.548-2.514l.042,0a7.3,7.3,0,0,0,4.32-1.123,5.01,5.01,0,0,1,5.314,0,7.32,7.32,0,0,0,4.319,1.123l.042,0a4.826,4.826,0,0,1,4.546,2.51l.016.03a7.018,7.018,0,0,0,3.176,3.056l.02.01a4.533,4.533,0,0,1,2.606,4.312l0,.042a6.814,6.814,0,0,0,1.188,4.227,4.4,4.4,0,0,1,0,4.981,6.821,6.821,0,0,0-1.187,4.229l0,.04a4.535,4.535,0,0,1-2.606,4.313l-.017.008a7.027,7.027,0,0,0-3.182,3.065l-.009.017a4.831,4.831,0,0,1-4.549,2.514l-.041,0a7.317,7.317,0,0,0-4.321,1.123,5.01,5.01,0,0,1-5.313,0,7.305,7.305,0,0,0-3.916-1.134q-.2,0-.4.011l-.042,0a4.828,4.828,0,0,1-4.55-2.517l-.012-.023a7.011,7.011,0,0,0-3.174-3.055l-.022-.011a4.532,4.532,0,0,1-2.606-4.312l0-.042a6.821,6.821,0,0,0-1.188-4.227,4.4,4.4,0,0,1,0-4.98Zm0,0" transform="translate(-97.113)" fill="#2bccff"/>
      <path id="Path_585" data-name="Path 585" d="M205.065,81.762a1.192,1.192,0,0,0,1.642-.38L220.828,58.76a1.192,1.192,0,1,0-2.023-1.262L204.685,80.119a1.192,1.192,0,0,0,.38,1.643Zm0,0" transform="translate(-174.032 -48.15)" fill="#2bccff"/>
      <path id="Path_586" data-name="Path 586" d="M186.7,72.725c2.9,0,5.265-2.693,5.265-6s-2.362-6-5.265-6-5.264,2.693-5.264,6S183.8,72.725,186.7,72.725Zm0-9.622c1.588,0,2.881,1.623,2.881,3.619s-1.292,3.619-2.881,3.619-2.88-1.624-2.88-3.619S185.11,63.1,186.7,63.1Zm0,0" transform="translate(-154.399 -51.377)" fill="#2bccff"/>
      <path id="Path_587" data-name="Path 587" d="M267.684,146.518c0,3.31,2.361,6,5.264,6s5.265-2.693,5.265-6-2.361-6-5.264-6S267.684,143.208,267.684,146.518Zm8.145,0c0,2-1.292,3.619-2.881,3.619s-2.88-1.623-2.88-3.619,1.292-3.619,2.88-3.619S275.829,144.522,275.829,146.518Zm0,0" transform="translate(-227.797 -119.284)" fill="#2bccff"/>
      <path id="Path_588" data-name="Path 588" d="M63.872,272.678a6.021,6.021,0,0,0-7.951-2.424l-9.338,4.412a7.606,7.606,0,0,0-6.484-4l-8.62-.237a9.113,9.113,0,0,1-3.918-1.012l-.877-.455a15.472,15.472,0,0,0-14.331.015l.055-1.987a1.192,1.192,0,0,0-1.159-1.225l-9.452-.26a1.192,1.192,0,0,0-1.224,1.159L0,287.408a1.192,1.192,0,0,0,1.159,1.225l9.452.26h.033a1.193,1.193,0,0,0,1.191-1.159l.027-.992,2.456-1.315a4.214,4.214,0,0,1,3.144-.344L32.127,289.2c.026.008.051.013.077.019a15.7,15.7,0,0,0,3.223.332,15.9,15.9,0,0,0,6.644-1.45,1.169,1.169,0,0,0,.148-.08l21.261-13.753a1.191,1.191,0,0,0,.391-1.588Zm-61.455,13.6.505-18.36,7.07.194-.506,18.36ZM41,285.969a13.511,13.511,0,0,1-8.265.922l-14.625-4.1a6.589,6.589,0,0,0-4.914.537L11.939,284l.336-12.207a13.1,13.1,0,0,1,13.311-.71l.877.455a11.508,11.508,0,0,0,4.949,1.278l8.62.237A5.227,5.227,0,0,1,45,277.215l-12.84-.353a1.192,1.192,0,0,0-.065,2.384l14.17.39H46.3a1.193,1.193,0,0,0,1.191-1.159,7.606,7.606,0,0,0-.115-1.547l9.576-4.525.028-.013a3.641,3.641,0,0,1,4.119.576Zm0,0" transform="translate(0 -225.65)" fill="#2bccff"/>
    </g>
  </g>
</svg>
