<svg xmlns="http://www.w3.org/2000/svg" xmlns:xlink="http://www.w3.org/1999/xlink" width="115.963" height="110.628" viewBox="0 0 115.963 110.628">
  <defs>
    <linearGradient id="linear-gradient" x1="0.5" x2="0.5" y2="1" gradientUnits="objectBoundingBox">
      <stop offset="0" stop-color="#fff"/>
      <stop offset="1" stop-color="#dcfefc"/>
    </linearGradient>
  </defs>
  <g id="Group_187" data-name="Group 187" transform="translate(-908 -1589.415)">
    <path id="Polygon_10" data-name="Polygon 10" d="M28.96,21.15A49.275,49.275,0,0,1,87,21.15l.1.073A49.275,49.275,0,0,1,104.958,76.23l-.1.307a49.275,49.275,0,0,1-46.877,34.091h0A49.275,49.275,0,0,1,11.1,76.537L11,76.23A49.275,49.275,0,0,1,28.86,21.223Z" transform="translate(908 1589.415)" fill="url(#linear-gradient)"/>
    <g id="debit-card" transform="translate(933 1619)">
      <path id="Path_600" data-name="Path 600" d="M55.417,11.742v-6.2A5.549,5.549,0,0,0,49.875,0H5.542A5.549,5.549,0,0,0,0,5.542V29.925A5.531,5.531,0,0,0,4.97,35.41L9.136,46.224A5.543,5.543,0,0,0,16.3,49.4L42.316,39.381A16.022,16.022,0,0,0,43.7,53.607l.637,1.018V65.392A1.108,1.108,0,0,0,45.442,66.5h19.95A1.108,1.108,0,0,0,66.5,65.392V28.807a14.5,14.5,0,0,0-4.246-10.216Zm0,6.628L58.78,27.1a3.325,3.325,0,0,1-1.909,4.3l-1.923.743a5.543,5.543,0,0,0,.468-2.217ZM2.217,29.925V5.542A3.326,3.326,0,0,1,5.542,2.217H49.875A3.325,3.325,0,0,1,53.2,5.542v7.045h-.01l.01.025V29.925a3.37,3.37,0,0,1-.075.574L42.972,20.346a5.913,5.913,0,0,0-8.534,8.177l4.328,4.727H5.542A3.325,3.325,0,0,1,2.217,29.925Zm14.2,5.542L8.534,38.5,7.368,35.467ZM15.5,47.334a3.325,3.325,0,0,1-4.3-1.907l-1.87-4.862,13.23-5.1V35.46H40.8l1.441,1.571ZM64.283,64.283H46.55V55.417H64.283Zm0-11.083H46.057l-.481-.768A13.821,13.821,0,0,1,45.3,38.238a1.108,1.108,0,0,0-.145-1.3L36.068,27.03A3.7,3.7,0,0,1,41.4,21.918L59.066,39.575l1.567-1.567-4.1-4.1,1.137-.443a5.542,5.542,0,0,0,3.178-7.16L57.1,16.563l3.59,3.6a12.274,12.274,0,0,1,3.6,8.646Zm0,0" fill="#2bccff"/>
      <path id="Path_601" data-name="Path 601" d="M70.7,73.583A2.882,2.882,0,0,0,73.583,70.7v-5.32A2.882,2.882,0,0,0,70.7,62.5h-5.32A2.882,2.882,0,0,0,62.5,65.382V70.7a2.882,2.882,0,0,0,2.882,2.882ZM64.717,70.7V69.15h2.217V66.933H64.717V65.382a.665.665,0,0,1,.665-.665H70.7a.665.665,0,0,1,.665.665v1.552H69.15V69.15h2.217V70.7a.665.665,0,0,1-.665.665h-5.32A.665.665,0,0,1,64.717,70.7Zm0,0" transform="translate(-58.067 -58.067)" fill="#2bccff"/>
      <path id="Path_602" data-name="Path 602" d="M78.125,265.625h4.433v2.217H78.125Zm0,0" transform="translate(-72.583 -246.783)" fill="#2bccff"/>
      <path id="Path_603" data-name="Path 603" d="M78.125,359.375h4.433v2.217H78.125Zm0,0" transform="translate(-72.583 -333.883)" fill="#2bccff"/>
      <path id="Path_604" data-name="Path 604" d="M359.375,359.375h4.433v2.217h-4.433Zm0,0" transform="translate(-333.883 -333.883)" fill="#2bccff"/>
      <path id="Path_605" data-name="Path 605" d="M171.875,265.625h4.433v2.217h-4.433Zm0,0" transform="translate(-159.683 -246.783)" fill="#2bccff"/>
      <path id="Path_606" data-name="Path 606" d="M265.625,265.625h4.433v2.217h-4.433Zm0,0" transform="translate(-246.783 -246.783)" fill="#2bccff"/>
      <path id="Path_607" data-name="Path 607" d="M359.375,265.625h4.433v2.217h-4.433Zm0,0" transform="translate(-333.883 -246.783)" fill="#2bccff"/>
      <path id="Path_608" data-name="Path 608" d="M656.25,78.125h2.217V81.45H656.25Zm0,0" transform="translate(-609.7 -72.583)" fill="#2bccff"/>
      <path id="Path_609" data-name="Path 609" d="M593.75,78.125h2.217V81.45H593.75Zm0,0" transform="translate(-551.633 -72.583)" fill="#2bccff"/>
      <path id="Path_610" data-name="Path 610" d="M531.25,78.125h2.217V81.45H531.25Zm0,0" transform="translate(-493.567 -72.583)" fill="#2bccff"/>
      <path id="Path_611" data-name="Path 611" d="M468.75,78.125h2.217V81.45H468.75Zm0,0" transform="translate(-435.5 -72.583)" fill="#2bccff"/>
      <path id="Path_612" data-name="Path 612" d="M687.5,812.5h2.217v2.217H687.5Zm0,0" transform="translate(-638.733 -754.867)" fill="#2bccff"/>
    </g>
  </g>
</svg>
