<svg xmlns="http://www.w3.org/2000/svg" xmlns:xlink="http://www.w3.org/1999/xlink" width="114.963" height="109.628" viewBox="0 0 114.963 109.628">
  <defs>
    <linearGradient id="linear-gradient" x1="0.5" x2="0.5" y2="1" gradientUnits="objectBoundingBox">
      <stop offset="0" stop-color="#fff"/>
      <stop offset="1" stop-color="#dcfefc"/>
    </linearGradient>
  </defs>
  <g id="Group_185" data-name="Group 185" transform="translate(-197 -1303)">
    <path id="Polygon_1" data-name="Polygon 1" d="M28.714,20.956a48.857,48.857,0,0,1,57.534,0l.085.062a48.857,48.857,0,0,1,17.71,54.551l-.085.263a48.857,48.857,0,0,1-46.477,33.8h0A48.857,48.857,0,0,1,11,75.832l-.085-.263a48.857,48.857,0,0,1,17.71-54.551Z" transform="translate(197 1303)" fill="url(#linear-gradient)"/>
    <g id="profits_1_" data-name="profits (1)" transform="translate(225.211 1332.175)">
      <g id="Group_155" data-name="Group 155" transform="translate(9.831 0)">
        <g id="Group_154" data-name="Group 154">
          <path id="Path_549" data-name="Path 549" d="M120.006,44.861l-.7-4.967a.944.944,0,0,0-1.078-.8l-5.472.838a.944.944,0,0,0,.286,1.867l3.189-.488a77.521,77.521,0,0,1-13.653,13.36A55.892,55.892,0,0,1,89.646,62c-7.5,2.955-12.614,2.761-12.664,2.759a.944.944,0,0,0-.09,1.886c.031,0,.16.007.381.007A37.084,37.084,0,0,0,90.22,63.805a57.658,57.658,0,0,0,13.421-7.572,79.388,79.388,0,0,0,14.118-13.806l.377,2.695a.944.944,0,0,0,.934.813.954.954,0,0,0,.132-.009A.944.944,0,0,0,120.006,44.861Z" transform="translate(-75.993 -39.081)" fill="#2bccff"/>
        </g>
      </g>
      <g id="Group_157" data-name="Group 157" transform="translate(0 0.629)">
        <g id="Group_156" data-name="Group 156" transform="translate(0 0)">
          <path id="Path_550" data-name="Path 550" d="M64.494,94.24h-7.63a11.489,11.489,0,0,0,1.765-1.446,11.376,11.376,0,0,0-2.519-18V70.987a.944.944,0,0,0-1.888,0V73.96a11.353,11.353,0,0,0-7.914.233v-11.6a.222.222,0,0,1,.221-.221H54a.222.222,0,0,1,.221.221v2.343a.944.944,0,1,0,1.888,0V62.595A2.112,2.112,0,0,0,54,60.485H46.529a2.112,2.112,0,0,0-2.11,2.11v12.58a11.382,11.382,0,0,0-1.888,17.619A11.5,11.5,0,0,0,44.3,94.239H38.334V71.162a2.112,2.112,0,0,0-2.11-2.11H28.753a2.112,2.112,0,0,0-2.11,2.11V94.24H20.558V78.929a2.112,2.112,0,0,0-2.11-2.11H10.977a2.112,2.112,0,0,0-2.11,2.11V94.24H4.978V45.683a1.744,1.744,0,0,0-1.742-1.742H1.742A1.744,1.744,0,0,0,0,45.683v6.7a.944.944,0,0,0,1.888,0V45.829h1.2V94.386a1.744,1.744,0,0,0,1.742,1.742H64.348v1.421H1.888v-39.2a.944.944,0,0,0-1.888,0V97.695a1.744,1.744,0,0,0,1.742,1.742H64.494a1.744,1.744,0,0,0,1.742-1.742V95.982A1.744,1.744,0,0,0,64.494,94.24Zm-45.824,0H10.756V78.929a.222.222,0,0,1,.221-.221h7.471a.222.222,0,0,1,.221.221V94.24Zm9.862,0V71.162a.222.222,0,0,1,.221-.221h7.471a.222.222,0,0,1,.221.221V94.24Zm26.22-.965a9.551,9.551,0,0,1-3.054.9l-.053.007c-.072.008-.145.015-.217.022-.11.01-.221.018-.332.024l-.105,0c-.136.006-.272.01-.409.01s-.274,0-.41-.01l-.129-.006c-.1-.006-.205-.014-.308-.023q-.127-.011-.254-.027l-.181-.022c-.086-.012-.172-.024-.257-.038l-.033-.006a9.48,9.48,0,0,1-3.171-1.138l-.016-.008a9.541,9.541,0,0,1-1.953-1.5,9.5,9.5,0,0,1,2.27-15.1l.069-.036a9.533,9.533,0,0,1,7.91-.383l.059.023c.118.048.234.1.35.152l.138.065a9.5,9.5,0,0,1,.122,17.085Z" transform="translate(0 -43.941)" fill="#2bccff"/>
        </g>
      </g>
      <g id="Group_159" data-name="Group 159" transform="translate(46.596 34.803)">
        <g id="Group_158" data-name="Group 158">
          <path id="Path_551" data-name="Path 551" d="M364.605,313.822v-3.363c1.16.083,1.59.613,1.988.613.5,0,.729-.63.729-.944,0-.812-1.59-1.16-2.717-1.193v-.447c0-.2-.248-.381-.5-.381a.437.437,0,0,0-.48.381v.48c-1.574.166-3.148.994-3.148,3.081,0,2.121,1.657,2.717,3.148,3.247v3.893c-1.69-.132-2.137-1.292-2.684-1.292-.414,0-.762.547-.762.944,0,.812,1.392,1.922,3.446,1.955h0v.513a.437.437,0,0,0,.481.381c.248,0,.5-.182.5-.381v-.563a3.209,3.209,0,0,0,3.015-3.413C367.62,315.081,366.046,314.352,364.605,313.822Zm-.878-.315c-.878-.331-1.59-.679-1.59-1.623,0-.862.663-1.276,1.59-1.392Zm.779,5.649v-3.5a1.937,1.937,0,0,1,1.458,1.855A1.576,1.576,0,0,1,364.506,319.157Z" transform="translate(-360.182 -308.107)" fill="#2bccff"/>
        </g>
      </g>
    </g>
  </g>
</svg>
