<svg xmlns="http://www.w3.org/2000/svg" xmlns:xlink="http://www.w3.org/1999/xlink" width="115.963" height="110.628" viewBox="0 0 115.963 110.628">
  <defs>
    <linearGradient id="linear-gradient" x1="0.5" x2="0.5" y2="1" gradientUnits="objectBoundingBox">
      <stop offset="0" stop-color="#fff"/>
      <stop offset="1" stop-color="#dcfefc"/>
    </linearGradient>
  </defs>
  <g id="Group_186" data-name="Group 186" transform="translate(-209 -1589.415)">
    <path id="Polygon_9" data-name="Polygon 9" d="M28.96,21.15A49.275,49.275,0,0,1,87,21.15l.1.073A49.275,49.275,0,0,1,104.958,76.23l-.1.307a49.275,49.275,0,0,1-46.877,34.091h0A49.275,49.275,0,0,1,11.1,76.537L11,76.23A49.275,49.275,0,0,1,28.86,21.223Z" transform="translate(209 1589.415)" fill="url(#linear-gradient)"/>
    <g id="Group_172" data-name="Group 172" transform="translate(35.21 265)">
      <g id="cash-on-delivery" transform="translate(224.74 1363.235)">
        <path id="Path_570" data-name="Path 570" d="M13.272,46.878,16.3,43.854a1.008,1.008,0,0,1,1.426,1.426l-1.3,1.3H40.213V35.49a1.009,1.009,0,0,1,2.017,0v12.1A1.008,1.008,0,0,1,41.222,48.6h-24.8l1.3,1.3A1.008,1.008,0,1,1,16.3,51.331l-3.025-3.025a1.011,1.011,0,0,1-.219-1.1A1.025,1.025,0,0,1,13.272,46.878Z" transform="translate(-12.976 -3.235)" fill="#2bccff"/>
        <path id="Path_574" data-name="Path 574" d="M0,31.746V8.546c0-.04.019-.075.022-.113a1.041,1.041,0,0,1,.04-.2.98.98,0,0,1,.09-.189,1.067,1.067,0,0,1,.049-.1L3.225,3.906c.014-.019.035-.027.05-.045a1,1,0,0,1,.158-.141.985.985,0,0,1,.15-.1,1.046,1.046,0,0,1,.177-.063.989.989,0,0,1,.2-.04c.023,0,.043-.014.068-.014H26.224c.023,0,.044.012.068.014a.946.946,0,0,1,.2.041,1.025,1.025,0,0,1,.172.062,1.008,1.008,0,0,1,.156.1.987.987,0,0,1,.153.136c.016.018.037.027.052.046L30.06,7.94a1,1,0,0,1,.05.1.971.971,0,0,1,.087.186.961.961,0,0,1,.04.2.911.911,0,0,1,.024.116v23.2a1.008,1.008,0,0,1-1.009,1.009H1.006A1.008,1.008,0,0,1,0,31.746ZM4.535,5.52,3.022,7.537h8.294l.5-2.017Zm11.824,0H13.9l-.5,2.017h3.468Zm.786,4.034H13.112v2.02h4.032ZM25.72,5.52H18.436l.5,2.017h8.295ZM2.014,30.738h26.23V9.555H19.162v3.029a1.008,1.008,0,0,1-1.009,1.009H12.1a1.008,1.008,0,0,1-1.009-1.009V9.555H2.014Z" transform="translate(18.752 -3.501)" fill="#2bccff"/>
        <path id="Path_575" data-name="Path 575" d="M5.009,23.5H13.08a1.009,1.009,0,1,1,0,2.017H5.009a1.009,1.009,0,1,1,0-2.017Z" transform="translate(30.888 -3.329)" fill="#2bccff"/>
        <path id="Path_576" data-name="Path 576" d="M5.009,26.5H9.044a1.009,1.009,0,1,1,0,2.017H5.009a1.009,1.009,0,1,1,0-2.017Z" transform="translate(34.924 -3.304)" fill="#2bccff"/>
      </g>
      <g id="hand_3_" data-name="hand (3)" transform="translate(189.001 1363.291)">
        <path id="Path_577" data-name="Path 577" d="M52.585,235.789a3.913,3.913,0,0,0-3.892-2.746l-.377.015a4.382,4.382,0,0,0-2.926,1.281l-5.831,5.769a4.089,4.089,0,0,0-3.423-1.852H27.912a16.872,16.872,0,0,1-4.5-.6,11.058,11.058,0,0,0-10.3,2.157,14.9,14.9,0,0,0-2.739,2.953,3.7,3.7,0,0,0-4.77.475L.289,248.762a1.033,1.033,0,0,0,.019,1.453l4.275,4.216a1.034,1.034,0,0,0,1.452-1.472l-3.548-3.5,4.607-4.783a1.633,1.633,0,0,1,2.313-.039l8.22,7.976a1.633,1.633,0,0,1,.032,2.311l-4.527,4.645-1.165-1.11a1.033,1.033,0,1,0-1.425,1.5l1.9,1.814a1.034,1.034,0,0,0,1.453-.027l5.24-5.377a3.7,3.7,0,0,0,.8-3.934l1.846-.215a22.532,22.532,0,0,1,2.59-.15H36.883c.192,0,.386-.008.577-.024l1.2-.1a6.939,6.939,0,0,0,4.713-2.422L51.8,239.6a4.02,4.02,0,0,0,.781-3.814Zm-2.356,2.475-8.433,9.92a4.877,4.877,0,0,1-3.309,1.7l-1.2.1c-.134.011-.27.017-.4.017H24.37a24.622,24.622,0,0,0-2.828.164l-2.989.348-6.612-6.376a12.791,12.791,0,0,1,2.478-2.719,8.954,8.954,0,0,1,8.445-1.769,18.928,18.928,0,0,0,5.049.672h8.224a2.034,2.034,0,0,1,1.457.62,2.011,2.011,0,0,1,.526,1.011,1.018,1.018,0,0,0,.034.277,2.018,2.018,0,0,1-.441,1.38l-.032.04a2.013,2.013,0,0,1-1.577.757h-7.16a1.033,1.033,0,1,0,0,2.067H36.1a4.069,4.069,0,0,0,3.19-1.531l.032-.04a4.077,4.077,0,0,0,.9-2.545l6.624-6.555a2.325,2.325,0,0,1,1.553-.681l.377-.015a1.839,1.839,0,0,1,1.833,1.293,1.963,1.963,0,0,1-.381,1.862Zm0,0" transform="translate(0 -213.709)" fill="#2bccff"/>
        <path id="Path_578" data-name="Path 578" d="M68.533,394.566a2.8,2.8,0,1,0,2.8,2.8A2.8,2.8,0,0,0,68.533,394.566Zm0,3.531a.732.732,0,1,1,.732-.732A.733.733,0,0,1,68.533,398.1Zm0,0" transform="translate(-60.315 -361.918)" fill="#2bccff"/>
        <path id="Path_579" data-name="Path 579" d="M288.322,372.461l-.053.013a1.033,1.033,0,1,0,.472,2.012l.053-.012a1.034,1.034,0,0,0-.473-2.012Zm0,0" transform="translate(-263.769 -341.61)" fill="#2bccff"/>
        <path id="Path_580" data-name="Path 580" d="M88.6,505.132l-.053.013a1.034,1.034,0,0,0,.473,2.012l.053-.012a1.034,1.034,0,0,0-.473-2.013Zm0,0" transform="translate(-80.513 -463.343)" fill="#2bccff"/>
        <path id="Path_581" data-name="Path 581" d="M245.158,20.459a10.939,10.939,0,1,0,0-21.877,10.828,10.828,0,0,0-6.749,2.33,10.939,10.939,0,0,0,6.749,19.548Zm-7.7-15.346a8.928,8.928,0,0,1,2.228-2.575A8.783,8.783,0,0,1,245.158.649a8.867,8.867,0,1,1-7.7,4.464Zm0,0" transform="translate(-214.907 1.418)" fill="#2bccff"/>
        <path id="Path_582" data-name="Path 582" d="M325.7,58.914a2.767,2.767,0,0,1-1.325.336c-.7,0-1.308-.821-1.308-1.757a1.034,1.034,0,0,0-2.067,0,3.77,3.77,0,0,0,2.559,3.71,1.033,1.033,0,0,0,2.063-.044,3.448,3.448,0,0,0,2.781-3.441,3.877,3.877,0,0,0-3.6-3.6c-.015,0-1.533-.135-1.533-1.105a1.529,1.529,0,0,1,1.533-1.532,1.4,1.4,0,0,1,.912.446c.132.133.147.147.147.7a1.034,1.034,0,0,0,2.067,0,2.666,2.666,0,0,0-.752-2.161,3.636,3.636,0,0,0-1.558-.933,1.033,1.033,0,0,0-2.064.06v.068a3.427,3.427,0,0,0-2.352,3.353c0,2.368,2.462,3.169,3.592,3.172.31.025,1.539.569,1.539,1.532a1.25,1.25,0,0,1-.635,1.2Zm0,0" transform="translate(-294.533 -44.438)" fill="#2bccff"/>
      </g>
    </g>
  </g>
</svg>
