<svg xmlns="http://www.w3.org/2000/svg" xmlns:xlink="http://www.w3.org/1999/xlink" width="112" height="133" viewBox="0 0 112 133">
  <defs>
    <linearGradient id="linear-gradient" x1="0.644" y1="1" x2="0.628" gradientUnits="objectBoundingBox">
      <stop offset="0" stop-color="#9ceeff"/>
      <stop offset="1" stop-color="#6454f0"/>
    </linearGradient>
    <linearGradient id="linear-gradient-2" x1="0.5" x2="0.5" y2="1" gradientUnits="objectBoundingBox">
      <stop offset="0" stop-color="#00ffed"/>
      <stop offset="1" stop-color="#00c2a8"/>
    </linearGradient>
    <linearGradient id="linear-gradient-3" x1="0.5" x2="0.5" y2="1" gradientUnits="objectBoundingBox">
      <stop offset="0" stop-color="#fff"/>
      <stop offset="1" stop-color="#94fef7"/>
    </linearGradient>
  </defs>
  <g id="Group_165" data-name="Group 165" transform="translate(-987.568 -1023)">
    <rect id="Rectangle_176" data-name="Rectangle 176" width="74" height="2" rx="1" transform="translate(1006 1113)" fill="#aaf3ed"/>
    <path id="Rectangle_177" data-name="Rectangle 177" d="M0,0H16a6,6,0,0,1,6,6V45a6,6,0,0,1-6,6H6a6,6,0,0,1-6-6V0A0,0,0,0,1,0,0Z" transform="translate(1024 1115) rotate(180)" fill="url(#linear-gradient)"/>
    <path id="Rectangle_178" data-name="Rectangle 178" d="M7,0h8a7,7,0,0,1,7,7V65a0,0,0,0,1,0,0H0a0,0,0,0,1,0,0V7A7,7,0,0,1,7,0Z" transform="translate(1033 1050)" fill="url(#linear-gradient-2)"/>
    <path id="Rectangle_179" data-name="Rectangle 179" d="M6,0H16a6,6,0,0,1,6,6V86a6,6,0,0,1-6,6H0a0,0,0,0,1,0,0V6A6,6,0,0,1,6,0Z" transform="translate(1064 1023)" fill="url(#linear-gradient-3)"/>
    <text id="_2nd_Level" data-name="2nd Level" transform="translate(1043.568 1150)" fill="#6e70f2" font-size="24" font-family="Helvetica-Bold, Helvetica" font-weight="700"><tspan x="-55.354" y="0">2nd Level</tspan></text>
  </g>
</svg>
