<svg xmlns="http://www.w3.org/2000/svg" xmlns:xlink="http://www.w3.org/1999/xlink" width="410.671" height="410.673" viewBox="0 0 410.671 410.673">
  <defs>
    <linearGradient id="linear-gradient" x1="0.5" x2="0.5" y2="1" gradientUnits="objectBoundingBox">
      <stop offset="0" stop-color="#fff"/>
      <stop offset="1" stop-color="#94d4fe"/>
    </linearGradient>
    <clipPath id="clip-path">
      <path id="Path_937" data-name="Path 937" d="M162,0A162,162,0,1,1,0,162,162,162,0,0,1,162,0Z" transform="translate(293 3529)" fill="url(#linear-gradient)"/>
    </clipPath>
    <linearGradient id="linear-gradient-3" x1="0.5" x2="0.5" y2="1" gradientUnits="objectBoundingBox">
      <stop offset="0" stop-color="#63222b"/>
      <stop offset="1" stop-color="#88313d"/>
    </linearGradient>
    <linearGradient id="linear-gradient-5" x1="0.5" x2="0.5" y2="1" gradientUnits="objectBoundingBox">
      <stop offset="0" stop-color="#00ffed"/>
      <stop offset="1" stop-color="#00e3c5"/>
    </linearGradient>
    <linearGradient id="linear-gradient-12" x1="0.5" x2="0.5" y2="1" gradientUnits="objectBoundingBox">
      <stop offset="0" stop-color="#00ffed"/>
      <stop offset="1" stop-color="#00c2a8"/>
    </linearGradient>
    <clipPath id="clip-path-2">
      <path id="Path_798" data-name="Path 798" d="M-4445.583,2732.625s6.46,5.117,13.958,5.865,15.014-3.988,15.014-3.988-6.108,10.952-13.606,10.2S-4445.583,2732.625-4445.583,2732.625Z" transform="translate(4555.985 -2496.233)" fill="#682b2b"/>
    </clipPath>
    <linearGradient id="linear-gradient-18" x1="0.5" x2="0.5" y2="1" gradientUnits="objectBoundingBox">
      <stop offset="0" stop-color="#9ceeff"/>
      <stop offset="1" stop-color="#6454f0"/>
    </linearGradient>
    <linearGradient id="linear-gradient-19" x1="0.057" y1="0.438" x2="0.82" y2="0.893" gradientUnits="objectBoundingBox">
      <stop offset="0" stop-color="#fff"/>
      <stop offset="1" stop-color="#94fef7"/>
    </linearGradient>
  </defs>
  <g id="Group_283" data-name="Group 283" transform="translate(-250 -3485.4)">
    <g id="Group_282" data-name="Group 282">
      <path id="Path_794" data-name="Path 794" d="M162,0A162,162,0,1,1,0,162,162,162,0,0,1,162,0Z" transform="translate(293 3529)" fill="url(#linear-gradient)"/>
      <g id="Mask_Group_57" data-name="Mask Group 57" clip-path="url(#clip-path)">
        <g id="Group_281" data-name="Group 281" transform="translate(-80.035 3541.047)">
          <path id="Path_807" data-name="Path 807" d="M425.4,114.055c13.974-7.465,20.217-8.295,20.217-8.295a81.986,81.986,0,0,1-24.229,15.672l-.044-.087A47.3,47.3,0,0,0,425.4,114.055Z" transform="translate(266.908 278.193)" fill="#960027"/>
          <path id="Path_808" data-name="Path 808" d="M343.83,105.76s5.937.087,19.907,7.552a47.694,47.694,0,0,0,4.366,8.033l-.044.087A81.99,81.99,0,0,1,343.83,105.76Z" transform="translate(6.041 278.193)" fill="#960027"/>
          <path id="Path_809" data-name="Path 809" d="M426.859,176.843c-1,3.143-16.939,53.566-36.191,77.14-11.831,5.937-24.011,4.191-34.139.087l.044-.087a47.694,47.694,0,0,1-4.366-8.033c-15.673-36.54,10.87-91.9,10.87-91.9-8.251-97.178,67.841-85.26,67.841-85.26,54.09,5.5,85.7-2.445,85.7-2.445s35.23,8.862,79.716,2.445c0,0,76.092-11.918,67.841,85.26,0,0,26.931,56.141,10.56,92.638a47.3,47.3,0,0,1-4.056,7.29l.044.087c-10.128,4.1-22.308,5.85-34.139-.087-19.514-23.88-35.623-75.306-36.234-77.227-6.941,22.832-25.932,49.549-34.357,82.728,0,0,1.048,4.628,2.576,11.307-12.835,1.834-25.19,2.881-36.715,3.361a11.235,11.235,0,0,0-5.151-1.266H501.466a10.8,10.8,0,0,0-5.282,1.353,320.29,320.29,0,0,1-37.5-3.449c1.484-6.679,2.576-11.307,2.576-11.307C452.834,226.305,433.887,199.675,426.859,176.843Z" transform="translate(17.571 145.555)" fill="#fff"/>
          <path id="Path_810" data-name="Path 810" d="M414.763,69.01a68.626,68.626,0,0,1-7.247,15.149h-.044c.131-1.179.218-2.4.306-3.623.7-4.06,1.222-7.858,1.484-11.481,1.353-16.24-2.183-27.721-16.153-33.222,1,.218,2.008.393,2.969.611,9.517,1.965,16.2.349,20.78-2.183C421.181,39.411,419.653,55,414.763,69.01Z" transform="translate(171.897 37.553)" fill="url(#linear-gradient-3)"/>
          <path id="Path_811" data-name="Path 811" d="M379.606,42.066a46.376,46.376,0,0,0,3.231,4.671,37.866,37.866,0,0,0,.7,7.771c.48,6.461,1.048,12.136,1.659,17.2C372.84,75.332,368.648,40.189,379.606,42.066Z" transform="translate(105.162 63.58)" fill="#ffe6d1"/>
          <path id="Path_812" data-name="Path 812" d="M375.5,71.968a49.616,49.616,0,0,1,10.521-27.5c10.958-17.375,43.874-10.3,66.27-5.675.044,0,.044.044.087.044,13.97,5.5,17.506,16.982,16.153,33.222l-1.179-.087c-20.082-.917-25.626,3.754-45.8,3.8h-.305a104.3,104.3,0,0,1-11.22-.568C398.07,73.976,391.26,71.27,375.5,71.968Z" transform="translate(112.629 34.551)" fill="#fdd8bf"/>
          <path id="Path_813" data-name="Path 813" d="M384.36,76.505c-.131,1.353-.131,2.619-.131,3.8A46.372,46.372,0,0,1,381,75.632c-9.3-15.5-11.874-40.076-1.048-43.612,4.365,7.029,9.866,13.359,14.93,16.982A49.616,49.616,0,0,0,384.36,76.505Z" transform="translate(103.769 30.014)" fill="url(#linear-gradient-3)"/>
          <path id="Path_814" data-name="Path 814" d="M376.169,53.871a37.866,37.866,0,0,1-.7-7.771c0-1.179,0-2.445.131-3.8,15.76-.7,22.57,2.008,34.532,3.231a104.3,104.3,0,0,0,11.22.568h.305c20.169-.044,25.713-4.715,45.8-3.8l1.179.087c-.262,3.623-.786,7.421-1.484,11.481-.087,1.222-.175,2.445-.306,3.623-.437,5.02-.873,9.561-1.353,13.664-.175,1.484-.349,2.925-.568,4.278l-.262-.044c-21.217,3.056-23.53-7.64-36.147-10.739a31.5,31.5,0,0,0-6.854-.786h-.305c-19.165.175-18.384,15.061-42.957,11.525-.218-1.4-.393-2.838-.567-4.322C377.216,66.007,376.649,60.332,376.169,53.871Z" transform="translate(112.528 64.218)" fill="url(#linear-gradient-5)"/>
          <path id="Path_815" data-name="Path 815" d="M469.138,229.262c-16.113,29.555-35.361,44.7-47.764,36.889-9.163-5.763-13.835-10.958-15.232-15.585-2.969-9.91,8.6-17.244,21.479-22.439l3.274-1.091h.044c6.767-8.862,10.041-21.391,9.037-44.311-2.052-46.013,0-61.38,0-61.38,11.831,5.937,24.011,4.191,34.139.087a81.986,81.986,0,0,0,24.229-15.672C498.343,155.615,485.29,199.664,469.138,229.262Z" transform="translate(214.177 278.193)" fill="#c4002a"/>
          <path id="Path_816" data-name="Path 816" d="M452.48,330c5.854,10.085,26.023,24.753,18.6,39.421-3.8,7.509-.873,11-17.2,11.918-11.351.655-37.195-7.334-33.79-25.67,0,0,1.31-12.311-5.763-22.919-5.5-8.251-10.085-12.835-6.417-21.086,6.679-15.1,12.617-16.72-5.588-50.379a69.2,69.2,0,0,1-5.893-14.668c21.042-13.49,29.031-47.017,40.251-60.813,3.274-4.016,6.461-5.5,9.124-4.453,5.806,2.226,9.211,16.327,6.024,41.735-.393,2.794-.829,5.719-1.353,8.818h-.087a127.953,127.953,0,0,1-4.191,19.3C429.128,308.913,446.678,319.914,452.48,330Z" transform="translate(183.071 531.505)" fill="#c4002a"/>
          <path id="Path_817" data-name="Path 817" d="M507.709,412.611A123.6,123.6,0,0,1,515.7,384.5c5.021-12.18-8.033-22.919-8.033-42.172.044-19.252-7.989-25.888-16.022-37.5-17.724-25.67-20.387-70.679-22.221-96.349a64,64,0,0,1-16.938,0c-1.79,25.67-4.453,70.679-22.221,96.349-7.989,11.612-16.022,18.248-16.022,37.5.044,19.252-13.009,29.992-7.989,42.172a121.526,121.526,0,0,1,8.644,33.309,81.662,81.662,0,0,1-2.27,30.908c-21.086-13.446-29.119-47.061-40.338-60.856-3.231-3.973-6.33-5.457-8.949-4.584,1.441-5.2,3.143-10.521,5.151-16.24-9.08-24.666,5.763-47.629,5.763-47.629-19.339-18.641-10.608-72.556,1.353-119.137,9.168-36.016,20.3-67.623,21.915-75.219.262-1.266.568-2.619.873-4.06,0,0,17.681,3.58,44.223,4.933a10.86,10.86,0,0,0,6.2,1.921H474.05a10.7,10.7,0,0,0,6.068-1.834,319.718,319.718,0,0,0,43.438-5.02c.3,1.441.611,2.794.873,4.06,1.611,7.6,12.748,39.2,21.915,75.219,11.962,46.581,20.693,100.5,1.353,119.137,0,0,14.887,22.963,5.719,47.672,2.052,5.763,3.754,11.132,5.239,16.327-2.663-1.048-5.85.436-9.124,4.453-11.219,13.8-19.208,47.323-40.251,60.813C505.832,436.316,505.919,423.831,507.709,412.611Z" transform="translate(70.22 329.45)" fill="#00606d"/>
          <path id="Path_818" data-name="Path 818" d="M676.92,208.061c-15.878-2.977-28.424-17.585-35.4-35.012-3.733-18.645,2.135-34.091,17.523-43.643l-.061-.013c-20.335-7.4-35.152-20.278-44.171-35.986-1.532,20.409-10.233,38.112-30.044,44.717-48.021,17.462-109.14,21.828-152.8,0-21-12-19.322-38.439-11.966-63.72-7.731,21.859-25.809,41.255-44.071,54.461a34.29,34.29,0,0,1,8.015,13.625c13.1,30.559-8.731,56.753-30.559,65.484a55,55,0,0,1-5.7,1.2,56.724,56.724,0,0,0,3.039,9.674,47.693,47.693,0,0,0,4.366,8.033l-.044.087c10.128,4.1,22.308,5.85,34.139-.087,19.252-23.574,35.187-74,36.191-77.14,7.029,22.832,25.975,49.462,34.4,82.64,0,0-1.091,4.628-2.576,11.307.524.1,5.435.912,13.677,1.759-7.042-29.944,22.557-59.385,39.67-63.663,28.682-8.434,47.559,5.339,61.214,28.643,9.3-23.334,21.762-43.211,27.1-60.773.611,1.921,16.72,53.347,36.234,77.227,11.831,5.937,24.011,4.191,34.139.087l-.044-.087a47.3,47.3,0,0,0,4.056-7.291A56.8,56.8,0,0,0,676.92,208.061Z" transform="translate(19.046 172.661)" fill="#228491"/>
          <path id="Path_819" data-name="Path 819" d="M545.8,322.309c-8.644-7.483-15.747-17.44-21.278-26.652-33.288-41.613-46.694-122.856,1.262-164.4-.816-2.737-1.41-4.868-1.7-6.208-.262-1.266-.572-2.619-.873-4.06a319.716,319.716,0,0,1-43.438,5.02,10.7,10.7,0,0,1-6.068,1.834H448.478a10.86,10.86,0,0,1-6.2-1.921c-26.543-1.353-44.223-4.933-44.223-4.933-.306,1.441-.611,2.794-.873,4.06-.45,2.109-1.65,6.125-3.322,11.521,2.449-.048,4.064.4,4.064,1.925,26.193,43.656,21.828,91.677,13.1,135.333-7.085,23.024-22.077,35.986-40.3,41.809a25.652,25.652,0,0,0,3.191,3.768,53.9,53.9,0,0,0-3.549,6.985c4.226.319,7.177,1.27,10.1,4.191,5.365,18.781-2.471,39.2-16.4,49.113-.349,1.192-.742,2.405-1.065,3.58,2.619-.873,5.719.611,8.949,4.584,11.219,13.8,19.252,47.41,40.338,60.856a81.661,81.661,0,0,0,2.27-30.908,121.526,121.526,0,0,0-8.644-33.309c-5.02-12.18,8.033-22.919,7.989-42.172,0-19.252,8.033-25.888,16.022-37.5,17.768-25.67,20.431-70.679,22.221-96.349a64,64,0,0,0,16.938,0c1.834,25.67,4.5,70.679,22.221,96.349,8.033,11.612,16.065,18.248,16.022,37.5,0,19.252,13.053,29.992,8.033,42.172a123.6,123.6,0,0,0-7.989,28.114c-1.79,11.22-1.877,23.705,1.572,36.06,21.042-13.49,29.031-47.017,40.251-60.813,3.274-4.016,6.461-5.5,9.124-4.453-.546-1.908-1.152-3.872-1.768-5.837a36.51,36.51,0,0,1-10.193-3.331C531.66,366.89,526.343,334.9,545.8,322.309Z" transform="translate(70.559 329.45)" fill="#c0d8db"/>
          <path id="Path_820" data-name="Path 820" d="M454.266,34.5c15.542,13.752,37.649,34.488,31.493,37.85-4.584,2.532-10.931,2.619-20.448.655-.961-.218-1.965-.393-2.969-.611-.044,0-.044-.044-.087-.044-22.4-4.628-55.312-11.7-66.27,5.675-5.064-3.623-20.132,4.259-24.5-2.769-9.473-15.236-3.4-38.879,12.575-40.756C407.462,31.748,438.768,20.747,454.266,34.5Z" transform="translate(102.665 0.993)" fill="url(#linear-gradient-3)"/>
          <path id="Path_823" data-name="Path 823" d="M426.255,113.18c2.226,9.648,5.37,23.574,7.64,34.1a319.718,319.718,0,0,1-43.438,5.02,10.965,10.965,0,0,0,4.933-9.168V126.277a11.057,11.057,0,0,0-5.85-9.735C401.065,116.061,413.42,115.014,426.255,113.18Z" transform="translate(159.882 303.165)" fill="#c4002a"/>
          <path id="Path_824" data-name="Path 824" d="M404.734,42.22c6.243,5.457,1.833,31.258-8.644,28.813.48-4.1.917-8.644,1.353-13.664h.044A68.626,68.626,0,0,0,404.734,42.22Z" transform="translate(181.927 64.343)" fill="#ffe6d1"/>
          <path id="Path_825" data-name="Path 825" d="M435.949,62.93c12.922,10.652,29.817,17.375,29.817,17.375C421.28,86.722,386.05,77.86,386.05,77.86S413.9,73.014,435.949,62.93Z" transform="translate(148.136 134.045)" fill="url(#linear-gradient-5)"/>
          <path id="Path_826" data-name="Path 826" d="M426.257,47.936c12.617,3.1,14.93,13.8,36.147,10.739l.262.044c-2.314,17.419-5.239,26.325-7.683,32.48-3.318,8.338-24.011,17.462-35.58,17.462S387.141,99.537,383.823,91.2c-2.445-6.155-5.37-15.061-7.683-32.524,24.574,3.536,23.792-11.351,42.957-11.525h.305A31.5,31.5,0,0,1,426.257,47.936Z" transform="translate(114.783 80.936)" fill="#fdd8bf"/>
          <path id="Path_827" data-name="Path 827" d="M462.387,57.24c-.742,9.386,5.937,17.943,14.319,24.84-22.046,10.084-49.9,14.93-49.9,14.93-18.466-1.528-51.863-13.883-52.867-14.275,9.954-7.029,18.073-15.8,17.288-25.5,3.318,8.338,24.011,17.462,35.58,17.462S459.069,65.578,462.387,57.24Z" transform="translate(107.379 114.894)" fill="#f2c5a7"/>
          <path id="Path_829" data-name="Path 829" d="M385.745,115.013a10.8,10.8,0,0,1,5.282-1.353h25.233a11.236,11.236,0,0,1,5.152,1.266,11.057,11.057,0,0,1,5.85,9.735v16.851a10.965,10.965,0,0,1-4.933,9.168,10.7,10.7,0,0,1-6.068,1.834H391.028a10.86,10.86,0,0,1-6.2-1.921,10.987,10.987,0,0,1-4.758-9.08V124.661A10.985,10.985,0,0,1,385.745,115.013Z" transform="translate(128.01 304.781)" fill="#ff8303"/>
          <path id="Path_830" data-name="Path 830" d="M377.18,46.58Z" transform="translate(118.284 71.508)" fill="#fff"/>
          <path id="Path_831" data-name="Path 831" d="M416.17,116.629a10.985,10.985,0,0,0-5.675,9.648v16.851a10.987,10.987,0,0,0,4.758,9.08c-26.543-1.353-44.223-4.933-44.223-4.933,2.27-10.521,5.409-24.447,7.64-34.1A320.292,320.292,0,0,0,416.17,116.629Z" transform="translate(97.585 303.165)" fill="#c4002a"/>
          <path id="Path_832" data-name="Path 832" d="M399.249,63.08c1,.393,34.4,12.748,52.867,14.275,0,0-31.607,7.945-85.7,2.445,0,0,18.292-6.461,32.785-16.72Z" transform="translate(82.07 134.549)" fill="url(#linear-gradient-5)"/>
          <path id="Path_833" data-name="Path 833" d="M433.056,246.7a65.626,65.626,0,0,1-5.85,14.625C408.954,294.98,414.9,296.6,421.618,311.7c3.623,8.251-.917,12.835-6.418,21.086-7.072,10.608-5.763,22.919-5.763,22.919,3.405,18.335-22.439,26.324-33.79,25.67-16.371-.917-13.4-4.409-17.2-11.918C351.027,354.788,371.2,340.12,377,330.036c5.85-10.085,23.4-21.086,6.33-78.8a131.147,131.147,0,0,1-4.278-19.514l.044-.044c-.393-2.445-.786-4.8-1.091-7.029-3.667-26.717-.218-41.342,5.763-43.35v-.044c2.619-.873,5.719.611,8.949,4.584C403.938,199.635,411.97,233.25,433.056,246.7Z" transform="translate(49.791 531.469)" fill="#c4002a"/>
          <g id="Group_259" data-name="Group 259" transform="translate(342.144 322.311)">
            <path id="Path_834" data-name="Path 834" d="M497.114,276.785c-16.113,29.555-35.361,44.7-47.764,36.889-9.163-5.763-13.835-10.958-15.232-15.585-2.969-9.91,8.6-17.244,21.479-22.439l3.274-1.091h.044c6.767-8.862,10.041-21.391,9.037-44.311-2.052-46.013,0-61.38,0-61.38-19.514-23.88-35.623-75.306-36.234-77.227-6.941,22.832-25.932,49.549-34.357,82.728,0,0,1.048,4.628,2.576,11.307,2.226,9.648,5.37,23.574,7.64,34.1.3,1.441.611,2.794.873,4.06,1.611,7.6,12.748,39.2,21.915,75.219,11.962,46.581,20.693,100.5,1.353,119.137,0,0,14.887,22.963,5.719,47.672,2.052,5.763,3.754,11.132,5.239,16.327,5.806,2.226,9.211,16.327,6.024,41.735,13.97,1,25.233-1.179,31.3-9.255,16.022-21.3,24.273-39.378,61.86-37.675C541.861,476.99,504.71,310.53,497.114,276.785Z" transform="translate(-155.943 -91.64)" fill="#dd4f00"/>
            <path id="Path_835" data-name="Path 835" d="M459.107,237.379c-17.724-25.67-20.387-70.679-22.221-96.349a64,64,0,0,1-16.938,0c-1.79,25.67-4.453,70.679-22.221,96.349-7.989,11.612-16.022,18.248-16.022,37.5.044,19.252-13.009,29.992-7.989,42.172a121.526,121.526,0,0,1,8.644,33.309c22.264-8.993,39.814-19.383,70.155-11.481,7.334,1.965,14.93,4.1,22.657,6.286a123.6,123.6,0,0,1,7.989-28.114c5.02-12.18-8.033-22.919-8.033-42.172C475.173,255.627,467.14,248.991,459.107,237.379Z" transform="translate(-239.387 74.586)" fill="#dd4f00"/>
            <path id="Path_836" data-name="Path 836" d="M478.747,174.3c-8.426-33.178-27.372-59.809-34.4-82.64-1,3.143-16.939,53.566-36.191,77.14,0,0,5.937,15.672,0,61.38-3.362,25.757.087,37.457,7.116,45.009l5.239.393c12.835,5.2,24.447,12.529,21.435,22.439-1.4,4.628-6.025,9.823-15.236,15.585-11.569,7.291-29.031-5.413-44.446-31.127-.52,2.226-33.833,147.033-40.2,194.312,0,0,30.908-3.8,40.2,14.625,6.989,13.752,21.221,29.642,45.1,34.008l.349-.044c-3.667-26.717-.218-41.342,5.763-43.35v-.044c1.441-5.2,3.143-10.521,5.151-16.24-9.08-24.666,5.763-47.629,5.763-47.629-19.339-18.641-10.608-72.556,1.353-119.137,9.168-36.016,20.3-67.623,21.915-75.219.262-1.266.568-2.619.873-4.06,2.27-10.521,5.409-24.447,7.64-34.1C477.655,178.928,478.747,174.3,478.747,174.3Z" transform="translate(-342.06 -91.573)" fill="#dd4f00"/>
          </g>
          <g id="Group_260" data-name="Group 260" transform="translate(361.837 323.48)">
            <path id="Path_837" data-name="Path 837" d="M449.35,312.772c-9.163-5.763-13.835-10.958-15.232-15.585-2.969-9.91,8.6-17.244,21.479-22.439l2.938-.982c-9.307-60.559-17.493-121.4-27.2-181.857-7.225,22.579-25.687,48.943-33.973,81.558,0,0,1.048,4.628,2.576,11.307,2.226,9.648,5.37,23.574,7.64,34.1.3,1.441.611,2.794.873,4.06,1.611,7.6,12.748,39.2,21.915,75.219,11.962,46.581,20.693,100.5,1.353,119.137,0,0,14.887,22.963,5.719,47.672,2.052,5.763,3.754,11.132,5.239,16.327,5.806,2.226,9.211,16.327,6.024,41.735,13.97,1,25.233-1.179,31.3-9.255,7.474-9.936,13.284-19.143,21.147-26C485.728,430.245,474.4,371.7,464.712,312.741,459.028,315.374,453.755,315.548,449.35,312.772Z" transform="translate(-175.636 -91.908)" fill="#f6d2be"/>
            <path id="Path_838" data-name="Path 838" d="M475.129,274.879c.044-19.252-7.989-25.888-16.022-37.5-17.724-25.67-20.387-70.679-22.221-96.349a64,64,0,0,1-16.938,0c-1.79,25.67-4.453,70.679-22.221,96.349-7.989,11.612-16.022,18.248-16.022,37.5.044,19.252-13.009,29.992-7.989,42.172a121.526,121.526,0,0,1,8.644,33.309c12.328-4.981,23.216-10.373,35.628-12.87,7.046-37.609,13.621-74.748,21.955-113.645,12.088,37.989,17.978,77.358,20.741,117.268,4.767,1.318,9.582,2.667,14.489,4.051a123.6,123.6,0,0,1,7.989-28.114C488.182,304.87,475.129,294.131,475.129,274.879Z" transform="translate(-259.08 73.416)" fill="#f6d2be"/>
            <path id="Path_839" data-name="Path 839" d="M436.205,95.7c-10.552,55.155-21.719,110.72-34.366,166.028l3.488.262c12.835,5.2,24.447,12.529,21.435,22.439-1.4,4.628-6.025,9.823-15.236,15.585-5.169,3.257-11.521,2.5-18.331-1.6-13.529,55.928-28.765,111.419-46.624,165.757,8.037,1.7,16.393,5.492,20.51,13.656,6.989,13.752,21.221,29.642,45.1,34.008l.349-.044c-3.667-26.717-.218-41.342,5.763-43.35v-.044c1.441-5.2,3.143-10.521,5.151-16.24-9.08-24.666,5.763-47.629,5.763-47.629-19.339-18.641-10.608-72.556,1.353-119.137,9.168-36.016,20.3-67.623,21.915-75.219.262-1.266.568-2.619.873-4.06,2.27-10.521,5.409-24.447,7.64-34.1,1.484-6.679,2.576-11.307,2.576-11.307C457.217,135.714,444.906,114.436,436.205,95.7Z" transform="translate(-346.571 -79.149)" fill="#f6d2be"/>
          </g>
          <path id="Path_840" data-name="Path 840" d="M409.314,227.734l5.239.393c12.835,5.2,24.447,12.529,21.435,22.439-1.4,4.628-6.025,9.823-15.236,15.585-11.569,7.29-29.031-5.413-44.446-31.127v-.044c-17.633-29.468-32.476-76.049-32.476-129.221a81.99,81.99,0,0,0,24.229,15.672c10.128,4.1,22.308,5.85,34.139-.087,0,0,5.937,15.672,0,61.38C398.836,208.482,402.285,220.182,409.314,227.734Z" transform="translate(6.041 278.193)" fill="#c4002a"/>
          <path id="Path_841" data-name="Path 841" d="M464.927,334.405c-3.1-8.068-5.483-16.3-8.251-24.434l-7.112-24.692c-4.71-16.467-8.583-33.122-12.433-49.776-3.593-16.716-7.181-33.436-9.914-50.344l-4.082-25.364c-.965-8.544-2.305-17-2.947-25.617l.642-.148,22.688,100.046,22.051,100.186Z" transform="translate(263.031 373.334)" fill="#ff8303"/>
          <path id="Path_842" data-name="Path 842" d="M409.166,228.2c9.211-1.187,18.742-2.632,24.858-7.718a21.046,21.046,0,0,0,3.8-4.374l3.833-5.736c2.6-3.824,5.317-7.653,8.281-11.447a67.194,67.194,0,0,1,10.464-10.4,43.387,43.387,0,0,1,13.354-6.9c9.582-2.973,19.458-2.549,28.586-.362-9.3,1.419-18.349,3.034-26.146,6.723-7.806,3.641-13.97,9.438-19.479,16.432-2.872,3.405-5.549,7.116-8.386,10.783l-4.387,5.466a22.469,22.469,0,0,1-6.016,5.361,29.048,29.048,0,0,1-14.6,3.995A49.781,49.781,0,0,1,409.166,228.2Z" transform="translate(225.935 526.402)" fill="#ff6603"/>
          <path id="Path_843" data-name="Path 843" d="M374.857,203.322a134.452,134.452,0,0,1,21.169-12.267,67.553,67.553,0,0,1,24.369-6.238,65.951,65.951,0,0,1,24.932,3.636,146.489,146.489,0,0,1,22.378,9.709,200.363,200.363,0,0,1-24.068-3.108,103.217,103.217,0,0,0-22.775-1.524,107.141,107.141,0,0,0-22.548,3.916C390.739,199.484,382.995,201.99,374.857,203.322Z" transform="translate(110.465 543.922)" fill="#ff6603"/>
          <path id="Path_844" data-name="Path 844" d="M342.109,181.565a48.14,48.14,0,0,1,26.792-.537,29.586,29.586,0,0,1,12.743,7.155,24.781,24.781,0,0,1,4.553,6.147c1.021,1.93,1.947,3.51,3.087,5.265a75.139,75.139,0,0,0,16.153,18.1A87.355,87.355,0,0,0,427.4,230.206a48.649,48.649,0,0,1-25.8-6.885A58.208,58.208,0,0,1,381.932,204.3a68.488,68.488,0,0,1-3.37-5.994,19.4,19.4,0,0,0-2.886-4.435,26.554,26.554,0,0,0-9.093-6.465C359.31,184.158,350.823,182.591,342.109,181.565Z" transform="translate(0.249 525.965)" fill="#ff6603"/>
          <path id="Path_845" data-name="Path 845" d="M382.875,135.494c-.624,8.338-1.921,16.524-2.838,24.792l-3.894,24.539c-2.593,16.354-5.981,32.528-9.3,48.711-3.589,16.131-7.1,32.262-11.311,48.257l-6.164,24.015-6.679,23.985-.65-.087c2.257-16.406,5.387-32.659,8.508-48.9q4.754-24.353,9.892-48.633,10.53-48.491,21.8-96.82Z" transform="translate(0 377.78)" fill="#ff8303"/>
          <g id="Group_261" data-name="Group 261" transform="translate(406.19 322.079)">
            <path id="Path_846" data-name="Path 846" d="M395.844,91.976a148.779,148.779,0,0,1-2.838,21.863A218.893,218.893,0,0,1,387.65,135.2a202.258,202.258,0,0,1-8,20.824c-3.309,6.775-6.819,13.638-11.857,20.2l1.833-11.2c.415,1.153.45,1.34.629,1.921l.376,1.358.589,2.5c.34,1.611.607,3.165.838,4.7.463,3.065.768,6.042.991,9a124.49,124.49,0,0,1,.035,17.4c-.345,5.71-.733,11.364-1.515,16.952l-1.362,8.33-1.454,7.993c-1.873,10.045-3.353,20.2-1.86,28.752a24.785,24.785,0,0,0,5.95,11.957c3.239,3.872,7.561,7.6,11.368,11.765l-.707,1.1c-4.562-2.925-9.382-5.522-13.773-8.915a29.86,29.86,0,0,1-10.054-13.154c-3.89-10.6-3.148-21.941-2.157-32.764,1.332-10.84,2.436-21.614,2.737-32.467.157-5.413.1-10.831-.14-16.218-.306-5.33-.777-10.888-2.222-15.786l-.2-.681.393-.476a118.867,118.867,0,0,0,11.691-17.681c3.449-6.212,6.566-12.621,9.482-19.117a411.826,411.826,0,0,0,15.328-39.91Z" transform="translate(-356.731 -91.587)" fill="#e1c6ae"/>
          </g>
          <g id="Group_262" data-name="Group 262" transform="translate(617.499 322.079)">
            <path id="Path_847" data-name="Path 847" d="M406.387,91.587a411.949,411.949,0,0,0,15.336,39.91c2.916,6.5,6.033,12.9,9.482,19.117a119.188,119.188,0,0,0,11.7,17.676l.306.367-.044.537c-.921,10.486-.742,21.265-.79,31.921.048,10.7.389,21.365.76,32.078.175,10.722-.175,21.745-4.008,32.039a38.513,38.513,0,0,1-8.805,13.677,73.644,73.644,0,0,1-12.848,9.844l-.707-1.1a93.564,93.564,0,0,0,9.975-12.25,35.724,35.724,0,0,0,5.186-12.878c1.65-8.963,1.03-18.977-.057-28.931l-1.545-16.057c-.463-5.4-.554-10.831-.768-16.275-.127-5.444-.375-10.91-.074-16.419l.419-8.325.314-4.248c.135-1.524.231-2.7.493-4.724l2.475,8.692c-5.095-6.527-8.565-13.424-11.887-20.2a194.084,194.084,0,0,1-8.006-20.824,213.85,213.85,0,0,1-5.352-21.37,147.661,147.661,0,0,1-2.8-21.876Z" transform="translate(-405.134 -91.587)" fill="#e1c6ae"/>
          </g>
          <path id="Path_848" data-name="Path 848" d="M355.965,111.869c-.057-.14.179.655.262,1.087l.336,1.659c.205,1.153.38,2.362.528,3.589.288,2.458.471,4.994.585,7.557.157,5.134.279,10.364.162,15.629-.1,5.265-.463,10.556-.795,15.869-.279,5.4-.747,10.469-1.214,16.179a108.68,108.68,0,0,0,.083,17.227,50.4,50.4,0,0,0,4.34,17.506,30.545,30.545,0,0,0,12.306,13.389c4.955,3.06,10.036,5.029,15.118,7.168l.476-.733c-4.571-2.995-9.355-5.64-13.59-8.98a28.487,28.487,0,0,1-9.5-12.678c-3.641-10.176-2.855-21.37-1.751-32.061,1.436-10.779,2.663-21.666,3.078-32.589.2-5.461.249-10.94-.1-16.415a73.82,73.82,0,0,0-2.4-15.9Z" transform="translate(45.407 290.336)" fill="#a3002a"/>
          <path id="Path_849" data-name="Path 849" d="M364.858,169.161a121.074,121.074,0,0,0,11.46-17.759c3.418-6.308,6.487-12.782,9.351-19.34a415,415,0,0,0,14.983-40.2l-.838-.262-9.787,19.178c-3.431,6.278-6.479,12.66-9.949,18.816-3.235,6.251-6.758,12.311-10.342,18.2a121.842,121.842,0,0,1-11.586,16.4l-2.908,3.427,1.685,4.043Z" transform="translate(44.446 230.543)" fill="#096972"/>
          <path id="Path_850" data-name="Path 850" d="M449.209,171.737c.039-.6.087-1.192.14-1.755l.3-3.466-1.952-2.331a125.706,125.706,0,0,1-11.577-16.4c-3.554-5.9-7.112-11.949-10.338-18.2-3.466-6.151-6.509-12.538-9.949-18.816L406.016,91.6l-.834.262a415.046,415.046,0,0,0,14.978,40.2c2.864,6.557,5.937,13.031,9.351,19.335a123.747,123.747,0,0,0,10.814,16.938Z" transform="translate(212.527 230.543)" fill="#096972"/>
          <path id="Path_851" data-name="Path 851" d="M431.43,109.18c.231.3.463.589.7.886a292.339,292.339,0,0,0-.886,31.864c.162,10.713.611,21.431,1.091,32.118.288,10.6.022,21.483-3.6,31.471a37.03,37.03,0,0,1-8.373,13.3,72.353,72.353,0,0,1-12.538,9.805l.471.733a57.116,57.116,0,0,0,14.376-8.282,37.931,37.931,0,0,0,10.866-13.752,60.2,60.2,0,0,0,4.916-16.707,116.749,116.749,0,0,0,1.388-16.842l-.057-31.947.118-15.821c.035-4.475.127-9.312.41-13.433Z" transform="translate(221.422 289.703)" fill="#a3002a"/>
          <path id="Path_855" data-name="Path 855" d="M376.854,63.494a16.575,16.575,0,0,1-1.764-8.037,22.746,22.746,0,0,1,5.68-14.782,16.692,16.692,0,0,1,6.7-4.789l.34.266a49.814,49.814,0,0,0-7.138,12.966,50.623,50.623,0,0,0-3.379,14.415Z" transform="translate(111.245 43.026)" fill="url(#linear-gradient-3)"/>
          <path id="Path_857" data-name="Path 857" d="M393.291,34.571a19.374,19.374,0,0,1,12.878,5.453c3.715,3.427,5.8,8.3,6.714,12.979a38.323,38.323,0,0,1-.205,13.843,41.287,41.287,0,0,1-4.5,12.7l-.424-.079c1.332-8.482,2.406-17.218.843-25.665a24.552,24.552,0,0,0-5.06-11.569,25.393,25.393,0,0,0-10.416-7.264Z" transform="translate(171.934 38.6)" fill="url(#linear-gradient-3)"/>
          <path id="Path_859" data-name="Path 859" d="M406.3,34.217c2.825,3.715,2.838,8.548,2.759,12.878a72.966,72.966,0,0,1-1.834,13.123c-2.2,8.522-5.226,16.978-10.285,24.26l-.546-.362c.458-4.885,1.126-9.08,1.925-13.236.7-4.165,1.689-8.155,2.536-12.167.554-1.969,1-3.968,1.454-5.946.616-1.96.93-3.942,1.541-5.9.458-1.969,1.021-3.938,1.4-5.928a17.658,17.658,0,0,0,.519-6.334Z" transform="translate(182.946 37.408)" fill="url(#linear-gradient-3)"/>
          <path id="Path_861" data-name="Path 861" d="M431.537,68.452c-10.691,1.489-20.78,4.427-29.14,9.22a48.483,48.483,0,0,0-11.049,8.382,41.83,41.83,0,0,0-7.884,10.613,56.588,56.588,0,0,0-5.073,12.372,114.536,114.536,0,0,0-2.658,13.682c-1.183,9.438-.891,19.335-.411,29.354l.162,3.418-1.262,2.563c-1.589,3.239-3.3,7.238-4.772,10.975-1.567,3.785-3.161,7.579-4.549,11.447-1.432,3.85-2.637,7.766-3.855,11.669-1.266,3.894-2.4,7.827-3.313,11.791-.873,3.964-1.733,7.941-2.388,11.949a117.784,117.784,0,0,0-1.148,12.1,64.944,64.944,0,0,0,3.645,24.622l-1.083.738c-5-7.273-7.762-15.878-8.923-24.539a100.769,100.769,0,0,1,.271-26.167,166.159,166.159,0,0,1,5.527-25.556,192.756,192.756,0,0,1,9.05-24.561l-.122.637a132.6,132.6,0,0,1,.672-32.292c1.659-10.661,5.012-21.287,11.193-30.31A52.55,52.55,0,0,1,399.773,70.8a68.694,68.694,0,0,1,31.961-3.645Z" transform="translate(17.058 146.557)" fill="#e7f3f5"/>
          <g id="Group_265" data-name="Group 265" transform="translate(421.254 257.412)">
            <path id="Path_864" data-name="Path 864" d="M366.047,76.844c-.7,9.054-.69,18.222,1.078,27.093,1.738,8.8,5.662,17.41,12.564,23.12,6.749,5.889,15.8,8.509,24.74,9.316a113.024,113.024,0,0,0,27.119-1.327l.135.86a63.294,63.294,0,0,1-27.831,7.3,50.387,50.387,0,0,1-15.279-1.82,42.1,42.1,0,0,1-14.542-7.683,40.349,40.349,0,0,1-9.9-13.319,46.206,46.206,0,0,1-3.759-15.131,58.921,58.921,0,0,1,4.806-28.477Z" transform="translate(-360.181 -76.774)" fill="#e3cac8"/>
          </g>
          <g id="Group_266" data-name="Group 266" transform="translate(420.575 309.777)">
            <path id="Path_865" data-name="Path 865" d="M382.475,88.769c.738,8.412,3.685,16.441,7.042,24.216,3.4,7.788,7.295,15.376,11.084,23.033,7.618,15.271,14.839,30.969,19.143,47.681l.083.3-.074.314L412.9,215.057l-3.313,15.389a138.041,138.041,0,0,1-4.095,15.345c-6.221,20.073-12.25,40.15-17.676,60.4-5.335,20.252-9.984,40.74-12.407,61.5a160.633,160.633,0,0,0-.925,31.179,68.274,68.274,0,0,0,2.86,15.17,31.464,31.464,0,0,0,7.57,13l.651.637-.485.8a60.8,60.8,0,0,0-6.107,13.869,57.5,57.5,0,0,0-2.528,14.978,47.48,47.48,0,0,0,8.4,28.708l-1.441.987a48.231,48.231,0,0,1-9.316-13.415,52.619,52.619,0,0,1-4.3-16.454,65.583,65.583,0,0,1,1-17.248,68.322,68.322,0,0,1,2.13-8.461,55.985,55.985,0,0,1,3.593-8.517l1.318,11.473a43.3,43.3,0,0,1-11.617-16.672,72.887,72.887,0,0,1-4.649-17.689,159.621,159.621,0,0,1-1.1-33.982c.8-11.045,2.222-21.876,3.964-32.58,1.794-10.7,4.326-21.169,6.845-31.594,4.868-20.863,11.8-41.172,18.253-61.035l2.353-7.208.943-2.86.96-3.719,4.025-15.367,4.1-15.28,4.553-15.166.065,5.815a210.92,210.92,0,0,0-5.907-23.3c-2.357-7.862-5.287-15.7-8.229-23.705-2.776-8.085-5.95-16.183-8.295-24.731a118.737,118.737,0,0,1-2.907-13.031,62.007,62.007,0,0,1-.45-13.341Z" transform="translate(-360.026 -88.769)" fill="#e1c6ae"/>
          </g>
          <path id="Path_866" data-name="Path 866" d="M362.531,174.1a13.549,13.549,0,0,0,6.679-3.348c1.991-1.764,3.885-3.54,5.719-5.317,3.54-3.549,6.806-7.557,7.19-10.993a7.66,7.66,0,0,0-1.262-4.964,23.131,23.131,0,0,0-4.54-4.981,67.207,67.207,0,0,0-6.024-4.636c-2.179-1.414-4.427-2.807-6.666-4.344l.419.1c-1.729-.445-3.453-.908-5.173-1.524l.035-.437,5.252.341.039,0,.039.013a68.073,68.073,0,0,1,14.319,7.426,23.689,23.689,0,0,1,5.811,5.7,11.013,11.013,0,0,1,2.008,7.9c-.991,5.627-5.278,9.648-9.386,12.979a69.086,69.086,0,0,1-6.64,4.593,13.48,13.48,0,0,1-7.828,1.925Z" transform="translate(56.67 372.066)" fill="#a3002a"/>
          <path id="Path_867" data-name="Path 867" d="M353.733,134.968q1.48,2.554,3.056,5.051a105.083,105.083,0,0,0,14.118,18.1c5.322,5.282,11.687,10.434,19.222,11.115l-.061,1.31a20.51,20.51,0,0,1-6.43.293,32.131,32.131,0,0,1-6.335-1.589,51.6,51.6,0,0,1-11.351-6.094,88.031,88.031,0,0,1-15.271-14.262Z" transform="translate(29.099 376.495)" fill="#e1c6ae"/>
          <g id="Group_267" data-name="Group 267" transform="translate(349.836 383.713)">
            <path id="Path_868" data-name="Path 868" d="M344.285,105.705c5.431,1.938,10.259,4.025,14.978,6.046,4.745,1.93,9.264,3.925,13.843,5.387a75.8,75.8,0,0,0,13.769,3.558,74.78,74.78,0,0,0,15.419.533l.3.585a34.776,34.776,0,0,1-15.607,4.082,46.412,46.412,0,0,1-15.991-2.563,76.509,76.509,0,0,1-27.172-17.161Z" transform="translate(-343.822 -105.705)" fill="#e1c6ae"/>
          </g>
          <path id="Path_869" data-name="Path 869" d="M404.335,67.156A68.63,68.63,0,0,1,436.3,70.8a52.5,52.5,0,0,1,25.347,19.754c6.186,9.024,9.539,19.65,11.193,30.306a132.644,132.644,0,0,1,.672,32.3l-.122-.637a193.441,193.441,0,0,1,9.054,24.561,166.649,166.649,0,0,1,5.522,25.556,100.768,100.768,0,0,1,.271,26.167c-1.161,8.661-3.925,17.266-8.923,24.539l-1.083-.738a64.942,64.942,0,0,0,3.645-24.622,117.793,117.793,0,0,0-1.148-12.1c-.651-4.008-1.515-7.985-2.388-11.949-.917-3.964-2.048-7.9-3.314-11.791-1.218-3.9-2.419-7.819-3.855-11.669-1.388-3.868-2.982-7.662-4.549-11.447-1.471-3.737-3.183-7.736-4.772-10.975l-1.262-2.563.161-3.418c.48-10.019.777-19.92-.406-29.354a115.3,115.3,0,0,0-2.659-13.686,56.882,56.882,0,0,0-5.068-12.372,41.966,41.966,0,0,0-7.893-10.613,48.367,48.367,0,0,0-11.049-8.378c-8.356-4.793-18.449-7.731-29.14-9.22Z" transform="translate(209.676 146.556)" fill="#e4f5f8"/>
          <g id="Group_268" data-name="Group 268" transform="translate(570.045 257.412)">
            <path id="Path_872" data-name="Path 872" d="M460.769,76.774a58.973,58.973,0,0,1,4.811,28.477,46.428,46.428,0,0,1-3.759,15.131,40.3,40.3,0,0,1-9.906,13.319,42.1,42.1,0,0,1-14.542,7.683,50.376,50.376,0,0,1-15.275,1.82,63.3,63.3,0,0,1-27.835-7.3l.135-.86a113.033,113.033,0,0,0,27.119,1.327c8.936-.808,17.991-3.427,24.74-9.316,6.9-5.706,10.827-14.319,12.569-23.12C460.59,95.066,460.6,85.9,459.9,76.844Z" transform="translate(-394.264 -76.774)" fill="#e3cac8"/>
          </g>
          <path id="Path_873" data-name="Path 873" d="M362.673,76.844c2.3,9.307,3.925,18.122,6.548,26.028,1.454,3.89,2.781,7.618,4.841,10.744a28.269,28.269,0,0,0,6.78,8.124c5.138,4.628,12.49,7.238,20.684,9.1,8.238,1.777,17.2,2.624,26.647,4.2l.135.86a113.934,113.934,0,0,1-27.363,1.768c-9.1-.677-18.523-3.191-25.757-9.29-7.208-6.147-11.1-15.205-12.726-24.2-1.655-9.076-1.51-18.327-.659-27.412Z" transform="translate(64.447 180.638)" fill="#2a7a85"/>
          <path id="Path_874" data-name="Path 874" d="M460.769,76.774c.851,9.085,1,18.335-.659,27.412-1.624,8.993-5.518,18.056-12.721,24.2-7.238,6.1-16.664,8.613-25.761,9.29a113.934,113.934,0,0,1-27.363-1.768l.135-.86c9.451-1.58,18.41-2.427,26.647-4.2,8.194-1.86,15.546-4.47,20.689-9.1a28.187,28.187,0,0,0,6.776-8.124c2.06-3.126,3.388-6.85,4.846-10.744,2.619-7.906,4.248-16.72,6.544-26.028Z" transform="translate(175.781 180.638)" fill="#2a7a85"/>
          <g id="Group_269" data-name="Group 269" transform="translate(582.435 309.777)">
            <path id="Path_875" data-name="Path 875" d="M436.2,88.948a61.74,61.74,0,0,1-.45,13.341,119.7,119.7,0,0,1-2.912,13.031c-2.344,8.548-5.518,16.646-8.295,24.731-2.938,8.006-5.872,15.843-8.225,23.705a211.659,211.659,0,0,0-5.907,23.3l.065-5.815,4.553,15.166,4.095,15.28,4.025,15.367.96,3.724.943,2.859,2.353,7.208c6.452,19.859,13.38,40.172,18.253,61.031,2.515,10.425,5.047,20.9,6.841,31.594,1.742,10.709,3.169,21.535,3.964,32.58a159.68,159.68,0,0,1-1.1,33.986,72.983,72.983,0,0,1-4.649,17.685,43.275,43.275,0,0,1-11.621,16.672l1.318-11.473A56,56,0,0,1,444,431.437a67.591,67.591,0,0,1,2.13,8.461,65.387,65.387,0,0,1,1,17.248,52.466,52.466,0,0,1-4.3,16.454,48.262,48.262,0,0,1-9.32,13.42l-1.441-1a47.463,47.463,0,0,0,8.408-28.7,57.691,57.691,0,0,0-2.528-14.978,61.2,61.2,0,0,0-6.108-13.869l-.489-.8.655-.637a31.513,31.513,0,0,0,7.57-13,68.526,68.526,0,0,0,2.859-15.17,160.978,160.978,0,0,0-.925-31.179c-2.423-20.763-7.072-41.25-12.4-61.5-5.431-20.248-11.455-40.325-17.676-60.4a137.108,137.108,0,0,1-4.1-15.345l-3.313-15.389-6.849-30.742L397.1,184l.083-.3c4.3-16.711,11.525-32.41,19.143-47.681,3.785-7.657,7.688-15.245,11.08-23.033,3.357-7.78,6.3-15.8,7.046-24.216Z" transform="translate(-397.102 -88.769)" fill="#e1c6ae"/>
          </g>
          <path id="Path_876" data-name="Path 876" d="M398.112,120.934a144.369,144.369,0,0,1-4.309,15.79c-6.33,20.012-12.7,40.076-17.868,60.476-5.2,20.374-9.731,40.993-12.023,61.969a163.016,163.016,0,0,0-.7,31.642,70.357,70.357,0,0,0,3.073,15.633,34.044,34.044,0,0,0,7.74,13.271,63.286,63.286,0,0,0-5.911,13.835,59.33,59.33,0,0,0-2.493,15.472,49.118,49.118,0,0,0,8.9,29.616l1.074-.742a48.349,48.349,0,0,1-4.985-28.747,53.969,53.969,0,0,1,3.636-13.765,65.131,65.131,0,0,1,3.043-6.4,43.661,43.661,0,0,1,3.479-5.684l3.012-3.942-4-4.662c-4.968-5.784-6.461-15.3-6.88-24.753-.371-9.6.856-19.58,2.218-29.546,1.423-9.984,3.444-20,5.793-29.979,2.323-9.988,4.689-20.016,7.435-29.983,5.584-19.938,11.276-39.832,17.436-60,.747-2.549,1.541-5.082,2.222-7.788.358-1.414.672-2.615,1.074-4.514l.725-3.946.227-1.2Z" transform="translate(69.621 329.262)" fill="#2a7a85"/>
          <path id="Path_877" data-name="Path 877" d="M382.746,149.411l2.667-14.2,2.99-15.432.877-4.951-10.674-1.751-4.518,19.606c-1.17,4.9-2.165,9.809-3.261,14.677Z" transform="translate(96.905 302.832)" fill="#ff1a3d"/>
          <path id="Path_878" data-name="Path 878" d="M409.505,196.639l1.864-10.552.476-2.689-.52-1.672a167.415,167.415,0,0,0-9.87-24.967c-3.929-7.919-8.155-15.537-12.534-22.941-4.488-7.356-8.884-14.607-13.04-21.92-4.047-7.356-7.889-14.791-9.757-23.125l-1.305.135c.7,8.639,3.663,16.877,6.994,24.74,3.366,7.884,7.221,15.515,10.949,23.194,7.461,15.232,14.45,30.769,18.58,47.175l-2.51,10.87Z" transform="translate(76.681 221.025)" fill="#2a7a85"/>
          <path id="Path_879" data-name="Path 879" d="M408.262,194.954l-2.519-10.936c4.125-16.406,11.115-31.943,18.576-47.179,3.728-7.675,7.579-15.306,10.949-23.19,3.327-7.862,6.3-16.1,6.994-24.74l-1.305-.135c-1.868,8.33-5.71,15.769-9.757,23.125-4.16,7.312-8.557,14.564-13.04,21.92-4.383,7.4-8.609,15.022-12.534,22.945a167.692,167.692,0,0,0-9.871,24.962l-.52,1.672.476,2.689,1.855,10.473Z" transform="translate(179.049 221.025)" fill="#2a7a85"/>
          <path id="Path_880" data-name="Path 880" d="M414.244,147.361c-1.1-4.881-2.1-9.805-3.274-14.725l-4.505-19.54-10.7,1.607.886,5.029,2.991,15.432,2.672,14.2Z" transform="translate(180.846 302.883)" fill="#ff1a3d"/>
          <path id="Path_881" data-name="Path 881" d="M397.269,122.944l.223,1.2.725,3.947c.4,1.895.712,3.1,1.074,4.514.677,2.707,1.471,5.239,2.222,7.788,6.155,20.169,11.848,40.063,17.432,60,2.746,9.967,5.112,20,7.435,29.983,2.353,9.98,4.37,19.994,5.793,29.978,1.362,9.971,2.589,19.946,2.218,29.546-.419,9.456-1.917,18.968-6.885,24.753l-4,4.667,3.017,3.942a44.255,44.255,0,0,1,3.488,5.68,66.077,66.077,0,0,1,3.034,6.4,53.991,53.991,0,0,1,3.641,13.765,48.352,48.352,0,0,1-4.99,28.747l1.074.742a49.112,49.112,0,0,0,8.906-29.616,59.324,59.324,0,0,0-2.493-15.472,63.21,63.21,0,0,0-5.915-13.835A33.988,33.988,0,0,0,441,306.408a70.377,70.377,0,0,0,3.078-15.629,163.037,163.037,0,0,0-.7-31.646c-2.292-20.977-6.819-41.6-12.023-61.969-5.164-20.4-11.534-40.465-17.864-60.476a144.2,144.2,0,0,1-4.3-15.742Z" transform="translate(185.895 329.299)" fill="#2a7a85"/>
          <path id="Path_882" data-name="Path 882" d="M430.162,175.01a13.7,13.7,0,0,1-7.958-1.637,66.864,66.864,0,0,1-6.749-4.58c-4.152-3.34-8.535-7.308-9.67-12.953a10.93,10.93,0,0,1,1.851-8.006,23.259,23.259,0,0,1,5.815-5.789,67.429,67.429,0,0,1,14.437-7.5l.009,0,0,0,3.314-1.035.14.419c-1.017.637-2.017,1.305-3.065,1.838l.074-.026c-4.47,3.148-9.111,5.828-12.713,9.294-3.807,3.239-6.282,6.924-5.6,10.106.467,3.492,3.89,7.483,7.478,11.032,1.851,1.755,3.824,3.61,5.767,5.278a13.744,13.744,0,0,0,6.85,3.139Z" transform="translate(214.015 371.547)" fill="#a3002a"/>
          <path id="Path_883" data-name="Path 883" d="M453.677,149.138c-.214.266-.428.533-.642.795a90.139,90.139,0,0,1-17.785,17.528,52.724,52.724,0,0,1-11.237,6.164,33.222,33.222,0,0,1-6.269,1.681,21.335,21.335,0,0,1-6.4-.118l-.113-1.305c7.483-.939,13.756-6.1,19.03-11.42a106.639,106.639,0,0,0,14-18.108q3.3-5.272,6.2-10.779Z" transform="translate(232.882 371.806)" fill="#e1c6ae"/>
          <path id="Path_884" data-name="Path 884" d="M344.456,105.758c2.174,15.467,4.868,30.59,8.046,45.5,1.733,7.426,3.366,14.852,5.518,22.134,1.991,7.317,4.2,14.568,6.758,21.68,2.379,7.177,5.186,14.2,8.2,21.1a215.844,215.844,0,0,0,9.98,20.234,123.42,123.42,0,0,0,12.56,18.545c4.7,5.728,10.294,11.049,17.759,12.918l-.035.65c-8.041-.607-14.612-5.832-20.143-11.11a106.358,106.358,0,0,1-14.481-18.231A202.68,202.68,0,0,1,358.6,197.226,281.1,281.1,0,0,1,343.8,105.762Z" transform="translate(5.939 278.186)" fill="#ff1a3d"/>
          <path id="Path_885" data-name="Path 885" d="M480.156,105.762a281.249,281.249,0,0,1-14.7,91.2,203.2,203.2,0,0,1-19.881,41.862,107.657,107.657,0,0,1-14.358,18.239c-5.483,5.313-11.953,10.547-19.925,11.42l-.052-.65c7.374-2.117,12.892-7.448,17.541-13.21a125.3,125.3,0,0,0,12.446-18.558,218.947,218.947,0,0,0,9.9-20.2c2.995-6.889,5.789-13.887,8.142-21.046,2.554-7.094,4.741-14.323,6.723-21.623,2.139-7.264,3.768-14.664,5.488-22.072,3.165-14.869,5.85-29.939,8.024-45.363Z" transform="translate(232.905 278.186)" fill="#ff1a3d"/>
          <g id="Group_270" data-name="Group 270" transform="translate(654.205 383.713)">
            <path id="Path_886" data-name="Path 886" d="M472.3,106.172a76.491,76.491,0,0,1-27.167,17.161,46.412,46.412,0,0,1-15.991,2.563,34.758,34.758,0,0,1-15.6-4.082l.3-.585a75.121,75.121,0,0,0,15.424-.533,75.9,75.9,0,0,0,13.76-3.558c4.579-1.462,9.1-3.458,13.843-5.387,4.715-2.017,9.543-4.108,14.974-6.046Z" transform="translate(-413.542 -105.705)" fill="#e1c6ae"/>
          </g>
          <path id="Path_887" data-name="Path 887" d="M344.146,105.723a83.078,83.078,0,0,0,12.747,9.648,69.885,69.885,0,0,0,14.393,6.867,45.292,45.292,0,0,0,15.62,2.724,35.647,35.647,0,0,0,15.376-3.693l.2.389a27.34,27.34,0,0,1-15.5,6.736,39.5,39.5,0,0,1-17.1-2.026,52.369,52.369,0,0,1-14.812-8.081,44.6,44.6,0,0,1-11.224-12.254Z" transform="translate(6.075 278.068)" fill="#d91a3d"/>
          <path id="Path_888" data-name="Path 888" d="M472.184,106.033a44.585,44.585,0,0,1-11.22,12.254,52.373,52.373,0,0,1-14.812,8.081,39.488,39.488,0,0,1-17.1,2.026,27.314,27.314,0,0,1-15.493-6.736l.2-.389a35.694,35.694,0,0,0,15.376,3.693,45.286,45.286,0,0,0,15.616-2.724,69.525,69.525,0,0,0,14.389-6.867,83.089,83.089,0,0,0,12.748-9.648Z" transform="translate(240.703 278.068)" fill="#d91a3d"/>
          <path id="Path_889" data-name="Path 889" d="M362.42,339.04a13.409,13.409,0,0,1-2.279-4.475,43.1,43.1,0,0,0-1.921-4.523,15.174,15.174,0,0,1-1.043-9.892c1.519-6.653,5.854-12.027,9.984-17.1l6.356-7.57a43.671,43.671,0,0,0,2.873-3.947c.808-1.38,1.746-2.855,2.711-4.173,3.981-5.252,7.43-10.848,9.12-17.17,3.558-12.617,2.135-26.1-.284-38.932-2.3-12.94-7.36-25.329-8.84-38.548l.651-.087a182.948,182.948,0,0,0,6.78,18.523,152.117,152.117,0,0,1,6.457,19.108c3.375,13.057,5.378,27.232,1.532,41.739-1.978,7.138-6.356,13.992-10.408,18.982l-1.358,1.772c-.375.5-.7,1.022-1.331,1.978a46.633,46.633,0,0,1-3.44,4.361c-2.279,2.65-4.619,4.968-6.863,7.282-4.339,4.649-8.692,9.251-10.556,14.52a12.261,12.261,0,0,0-.358,8.268,46.8,46.8,0,0,1,1.367,4.9,12.668,12.668,0,0,0,1.362,4.584Z" transform="translate(49.661 570.521)" fill="#ff1a3d"/>
          <path id="Path_890" data-name="Path 890" d="M418.72,212.239c.4,3.549-1.275,7.024-2.96,10.041-1.65,3.091-3.746,5.946-5.086,8.923a35.828,35.828,0,0,0-2.894,9.456,39.065,39.065,0,0,0-.463,9.757l-.022-.161a18.08,18.08,0,0,1-4.654,16.174c-3.868,4.222-8.849,6.81-13.9,8.613a43.981,43.981,0,0,1-15.816,2.51,49.594,49.594,0,0,1-7.841-1.2c-2.5-.615-5.313-1.414-6.95-3.558,2.026,1.681,4.662,1.96,7.164,2.222a72.951,72.951,0,0,0,7.618.1,48.441,48.441,0,0,0,14.494-3.6,33.288,33.288,0,0,0,12.036-7.958,14.592,14.592,0,0,0,3.715-12.542l-.022-.109,0-.061a39.237,39.237,0,0,1,.956-10.927,36.482,36.482,0,0,1,3.933-10.115,89.576,89.576,0,0,1,6.278-8.487C416.4,218.626,418.314,215.745,418.72,212.239Z" transform="translate(54.199 636.557)" fill="#8a0014"/>
          <path id="Path_891" data-name="Path 891" d="M392.708,196.227a77.345,77.345,0,0,1-7.264,17.541,151.178,151.178,0,0,0-7.823,17.161c-2.218,5.776-3.816,12.167-1.694,18.1a81.3,81.3,0,0,0,3.811,8.6c1.305,2.825,2.881,5.789,2.829,9.115h-.659a15.264,15.264,0,0,0-2.318-3.938l-2.96-3.671a44.036,44.036,0,0,1-5.575-8.465,22.747,22.747,0,0,1-2.017-11.543,44.42,44.42,0,0,1,2.449-10.473,79.278,79.278,0,0,1,9.395-17.305c1.877-2.733,3.781-4.933,5.553-7.491l5.64-7.814Z" transform="translate(90.68 582.051)" fill="#a3002a"/>
          <path id="Path_892" data-name="Path 892" d="M388.086,351.147c.061-11.062-1.956-22.033-4.981-32.742l-.6-2.013-.284-.939-.087-.52a6.613,6.613,0,0,1-.057-1.733,16.442,16.442,0,0,1,1.288-4.5c1.532-3.759,4.274-8.557,6.5-14.149a61.331,61.331,0,0,0,2.86-8.976,44.963,44.963,0,0,0,.86-4.846l.245-2.624.14-2.109a33.6,33.6,0,0,1,2.571-11.442c1.419-3.231,3.58-6.151,6.723-9.94a106.738,106.738,0,0,0,10.311-13.808c6.4-10.621,10.386-21.64,13.463-32.541.869-3.017,1.615-6.033,2.3-9.054.677,3.021,1.414,6.038,2.257,9.054,3.082,10.905,7.051,21.906,13.472,32.558a106.742,106.742,0,0,0,10.29,13.808c3.148,3.789,5.309,6.706,6.727,9.927a33.264,33.264,0,0,1,2.576,11.486l.144,2.2.24,2.467a46.557,46.557,0,0,0,.843,4.846,61.918,61.918,0,0,0,2.859,8.98c2.231,5.6,4.977,10.4,6.518,14.158a16.543,16.543,0,0,1,1.3,4.488,12.4,12.4,0,0,1,.022,1.532l-.258.947c-.031.087.214-.533.1-.24l-.022.061-.039.127-.074.249-.153.5-.6,2a124.688,124.688,0,0,0-4.881,28.106l6.4.2a122.3,122.3,0,0,1,6.915-25.028c.445-1.183,1.017-2.436,1.454-3.667a16.479,16.479,0,0,0,.838-4.143,22.92,22.92,0,0,0-1.109-8.133c-1.589-5.143-3.877-9.84-5.426-14.747a46.232,46.232,0,0,1-2.445-15.061,47.8,47.8,0,0,0-2.449-15.847c-3.6-10.447-11.783-17.838-16.668-26.752-5.051-8.958-8.356-18.877-10.822-28.935-4.894-20.208-6.474-41.08-7.841-61.939l-.118-1.833-1.833.253a59.913,59.913,0,0,1-8.216.519,61.129,61.129,0,0,1-8.194-.511l-1.86-.253-.118,1.825c-1.362,20.859-2.942,41.735-7.841,61.948-2.467,10.063-5.771,19.977-10.822,28.939-4.9,8.919-13.075,16.305-16.668,26.757a47.905,47.905,0,0,0-2.453,15.856,46.224,46.224,0,0,1-2.449,15.052c-1.55,4.911-3.837,9.6-5.422,14.751a22.719,22.719,0,0,0-1.1,8.133c.118,2.846,1.38,5.492,2.3,7.81a118.438,118.438,0,0,1,7.644,30.642Z" transform="translate(102.069 395.402)" fill="#e1c6ae"/>
          <path id="Path_893" data-name="Path 893" d="M481.183,391.639c-5.706-20.5-2.292-42.442,5.182-61.961.991-2.515,2.043-4.763,2.126-7.251a21.008,21.008,0,0,0-1.074-7.422c-1.537-4.894-3.872-9.635-5.5-14.681a48.264,48.264,0,0,1-2.641-15.681,45.621,45.621,0,0,0-2.414-15.118c-3.361-9.74-11.425-16.991-16.659-26.285-5.274-9.233-8.688-19.322-11.254-29.52-5.086-20.47-6.793-41.508-8.277-62.362l1.467,1.187a63.225,63.225,0,0,1-17.3-.009l1.484-1.179c-1.489,20.859-3.191,41.9-8.277,62.367-2.571,10.2-5.985,20.3-11.259,29.524-5.239,9.286-13.3,16.546-16.659,26.294a45.723,45.723,0,0,0-2.41,15.114,48.26,48.26,0,0,1-2.65,15.686c-1.628,5.047-3.964,9.788-5.5,14.681a21.035,21.035,0,0,0-1.065,7.426c.1,2.5,1.157,4.75,2.135,7.251,7.465,19.532,10.875,41.46,5.156,61.983l-1.262-.349c3.222-20.7-1.729-41.089-10.194-59.189l-.812-1.685-.437-.882-.528-1.222a21.793,21.793,0,0,1-1.31-5.413,28.859,28.859,0,0,1,.926-10.15c1.572-5.937,3.562-10.6,4.684-15.135a41.882,41.882,0,0,0,1.406-13.057,54.9,54.9,0,0,1,2.331-18.431c1.938-6.265,5.392-11.835,8.469-16.336,3.108-4.575,5.832-8.338,7.91-12.206,4.252-7.989,7.164-17.253,9.281-26.822,4.165-19.274,5.924-39.5,7.094-60.372l.69-12.385,12.818,1.65c.637.083,2.056.218,3.139.266,1.166.066,2.344.092,3.51.083a52.207,52.207,0,0,0,6.806-.393l12.63-1.659.7,12.438c1.179,20.868,2.912,41.093,7.111,60.359,2.113,9.561,5.029,18.842,9.264,26.8a140.825,140.825,0,0,0,7.919,12.206c3.073,4.5,6.535,10.071,8.478,16.34a54.778,54.778,0,0,1,2.327,18.388,42.416,42.416,0,0,0,1.406,13.1c1.117,4.531,3.108,9.194,4.68,15.127a29.053,29.053,0,0,1,.934,10.154,21.737,21.737,0,0,1-1.353,5.566l-.4.9c-.314.738-.327.685-.507,1.065l-.816,1.69c-8.487,18.1-13.442,38.456-10.242,59.18Z" transform="translate(97.903 386.679)" fill="#01505c"/>
          <path id="Path_894" data-name="Path 894" d="M407.021,270a13.529,13.529,0,0,1,1.17-9.814c1.336-3.03,2.9-5.946,4.165-8.945a20.454,20.454,0,0,0,1.8-9.382,34.5,34.5,0,0,0-2.126-9.434,135.338,135.338,0,0,0-7.989-17.956,80.465,80.465,0,0,1-7.636-18.257l.633-.175c2.069,2.82,3.824,5.584,5.776,8.172,1.812,2.606,3.863,5.016,5.78,7.867a78.669,78.669,0,0,1,9.626,18.218,38.824,38.824,0,0,1,2.1,11.289,23.3,23.3,0,0,1-3.222,11.678,85.12,85.12,0,0,1-5.749,8.351,14.143,14.143,0,0,0-3.7,8.229Z" transform="translate(182.997 582.031)" fill="#a3002a"/>
          <path id="Path_895" data-name="Path 895" d="M459.044,270.365c-1.633,2.144-4.449,2.947-6.95,3.571a49.283,49.283,0,0,1-7.823,1.2,43.713,43.713,0,0,1-15.838-2.515,33.62,33.62,0,0,1-13.9-8.626,18.121,18.121,0,0,1-4.636-16.174l-.022.162a36.984,36.984,0,0,0-.306-9.019,36.411,36.411,0,0,0-2.349-8.849c-1.065-2.851-2.842-5.466-4.427-8.29-1.585-2.772-3.313-5.658-3.885-8.866a35.146,35.146,0,0,0,5.269,7.919,47.352,47.352,0,0,1,5.675,8.011,37.736,37.736,0,0,1,3.353,9.425,40.22,40.22,0,0,1,.812,10.1v.057l-.022.109a14.584,14.584,0,0,0,3.741,12.542,33.5,33.5,0,0,0,12.036,7.945,49.041,49.041,0,0,0,14.463,3.593,75.752,75.752,0,0,0,7.64-.1C454.381,272.321,457.014,272.037,459.044,270.365Z" transform="translate(191.424 638.99)" fill="#8a0014"/>
          <path id="Path_896" data-name="Path 896" d="M422.4,192.77c-1.515,13.184-6.561,25.556-8.836,38.483-2.4,12.809-3.8,26.276-.214,38.862,1.694,6.313,5.165,11.883,9.137,17.131a49.8,49.8,0,0,1,2.711,4.178,43.559,43.559,0,0,0,2.873,3.925l6.343,7.557c4.13,5.069,8.443,10.447,9.953,17.087a15.169,15.169,0,0,1-1.056,9.879,44.247,44.247,0,0,0-1.917,4.514,13.144,13.144,0,0,1-2.3,4.483l-.476-.445a12.951,12.951,0,0,0,1.349-4.549,45.813,45.813,0,0,1,1.375-4.907,12.325,12.325,0,0,0-.349-8.251c-1.855-5.265-6.195-9.862-10.525-14.507-2.231-2.314-4.575-4.619-6.854-7.26a47.153,47.153,0,0,1-3.493-4.431l-1.283-1.908-1.345-1.764c-4.051-4.955-8.434-11.8-10.438-18.907-3.9-14.485-1.917-28.647,1.436-41.691a151.706,151.706,0,0,1,6.435-19.1,186.5,186.5,0,0,0,6.823-18.475Z" transform="translate(211.613 570.709)" fill="#ff1a3d"/>
          <g id="Group_272" data-name="Group 272" transform="translate(476.39 415.843)">
            <path id="Path_898" data-name="Path 898" d="M372.89,113.344l13.843-.057c4.584.1,9.159.166,13.73.122,2.288-.048,4.571-.061,6.845.035l3.27.065,3.449-.1,13.782-.349,13.786.306,3.449.079.864.022.69-.017,1.724-.044c2.314-.1,4.549-.087,6.845-.044,4.575.039,9.146-.057,13.73-.144,4.614.135,9.2-.079,13.865.122l.061.428q-13.653,1.978-27.429,2.973c-3.235.288-6.479.441-9.727.524-1.982.052-2.4-1.6-4.383-1.585-3.968.026-9.508,1.685-13.468,1.738-9.172-.057-18.405.179-27.578-.62-9.176-.664-18.335-1.558-27.429-3.03Z" transform="translate(-372.811 -113.065)" fill="#e3cac8"/>
          </g>
          <path id="Path_899" data-name="Path 899" d="M389.234,116.393c3.619-.052,7.238-.179,10.853-.476q13.745-.9,27.412-2.776l.044.323c-4.466,1.253-9.011,2.1-13.551,3.03-4.558.747-9.142,1.388-13.73,1.956-2.3.288-4.628.568-6.911.681l-.7.048Z" transform="translate(158.852 303.034)" fill="#d91a3d"/>
          <path id="Path_900" data-name="Path 900" d="M408.97,119.3l-1.964-.118c-2.309-.122-4.61-.362-6.911-.659-4.588-.568-9.176-1.187-13.738-1.938-4.54-.943-9.093-1.759-13.542-3.117l.052-.323c9.072,1.4,18.239,2.235,27.4,2.833,4.553.362,9.111.471,13.673.489Z" transform="translate(103.589 303.034)" fill="#d91a3d"/>
          <g id="Group_273" data-name="Group 273" transform="translate(468.772 450.24)">
            <path id="Path_901" data-name="Path 901" d="M371.153,120.944c10.294,1.886,20.728,3.073,31.161,3.933,4.51.319,9.041.72,13.551.812.707.013,5.37,2.458,6.072,2.458l11.77-2.467q1.552.007,3.1.017c9.46.065,18.89.271,28.293-.69a312.818,312.818,0,0,0,31.149-4.064l.079.428c-5.007,1.759-10.15,2.986-15.3,4.274q-7.773,1.585-15.642,2.737c-2.611.423-5.282.751-7.91.939l-3.92.306c-1.716.1-2.733.07-4.13.109l-15.729.306-15.725-.358-1.965-.048-1.157-.044-.991-.074-3.951-.319c-2.641-.179-5.265-.519-7.884-.934-5.234-.79-10.447-1.655-15.638-2.685a152.131,152.131,0,0,1-15.323-4.208Z" transform="translate(-371.066 -120.944)" fill="#e1c6ae"/>
          </g>
          <path id="Path_902" data-name="Path 902" d="M416.815,126.318c-4.876-.074-9.709-.541-14.555-.912-10.451-.93-20.872-2.178-31.192-4.13l.07-.319c5.252.358,10.46.838,15.7,1.043q7.812.576,15.637.864c3.754.031,7.6.345,11.337.458Z" transform="translate(97.713 329.339)" fill="#a3002a"/>
          <path id="Path_903" data-name="Path 903" d="M392.982,123.459c3.933-.066,8.037-.432,11.962-.454,5.217-.157,10.416-.52,15.624-.917,5.239-.218,10.429-.816,15.7-1.131l.061.319a312.119,312.119,0,0,1-31.17,4.256c-5.4.585-10.835.786-16.266.851Z" transform="translate(157.698 329.339)" fill="#a3002a"/>
          <g id="Group_274" data-name="Group 274" transform="translate(519.278 417.965)">
            <path id="Path_904" data-name="Path 904" d="M407.842,113.83c3.266-.864,7.085.336,9.949,2.82a12.882,12.882,0,0,1,3.2,4.824,19.973,19.973,0,0,1,.947,5.444c.345,3.191.41,6.382.616,9.569l.118,4.789a15.706,15.706,0,0,1-1,6.142,14.7,14.7,0,0,1-9.22,8.43,15.91,15.91,0,0,1-3.143.546l-1.558.009-1.2-.066c-1.593-.052-3.191-.218-4.789-.4l-9.569-1.03c-3.187-.611-6.383-.973-9.569-1.812v-.432l19.139-.109,4.789-.026a12.745,12.745,0,0,0,4.606-.572,10.653,10.653,0,0,0,6.461-6.155c1.2-2.82.668-6.147.816-9.312l.057-9.569a11.887,11.887,0,0,0-2.475-8.779,10.843,10.843,0,0,0-8.212-3.877Z" transform="translate(-382.635 -113.551)" fill="#e3cac8"/>
          </g>
          <path id="Path_905" data-name="Path 905" d="M407.842,113.615a11.336,11.336,0,0,1,8.6,3.955c2.222,2.458,2.907,5.981,2.711,9.133l.057,9.569c-.14,3.152.5,6.435-.773,9.635a11.449,11.449,0,0,1-7.033,6.553,13.332,13.332,0,0,1-4.846.559l-4.789-.031-19.139-.109v-.432c3.187-.838,6.382-1.2,9.569-1.812l9.569-1.03c1.6-.183,3.2-.349,4.789-.4l1.2-.065.834-.1a8.556,8.556,0,0,0,1.524-.467,7.4,7.4,0,0,0,4.274-4.278,7.75,7.75,0,0,0,.594-3.226l.113-4.789c.205-3.187.275-6.378.62-9.569a20.139,20.139,0,0,0,.157-4.056,8.53,8.53,0,0,0-1.2-3.589,10.554,10.554,0,0,0-6.863-5.012Z" transform="translate(136.643 304.629)" fill="#dd4f00"/>
          <path id="Path_906" data-name="Path 906" d="M391.43,153a11.34,11.34,0,0,1-8.6-3.951c-2.226-2.462-2.907-5.985-2.711-9.133l-.057-9.574c.14-3.152-.5-6.435.773-9.635a11.46,11.46,0,0,1,7.029-6.557,13.456,13.456,0,0,1,4.85-.554l4.785.031,19.143.109v.432c-3.187.838-6.382,1.2-9.569,1.812l-9.574,1.03c-1.6.183-3.191.349-4.785.406l-1.2.061-.829.1a8.6,8.6,0,0,0-1.528.467,7.392,7.392,0,0,0-4.27,4.278,7.758,7.758,0,0,0-.594,3.231l-.113,4.785c-.205,3.191-.275,6.382-.62,9.574a20.487,20.487,0,0,0-.162,4.056,8.615,8.615,0,0,0,1.2,3.584,10.563,10.563,0,0,0,6.867,5.012Z" transform="translate(127.835 304.511)" fill="#ff9c03"/>
          <g id="Group_275" data-name="Group 275" transform="translate(422.156 706.831)">
            <path id="Path_907" data-name="Path 907" d="M367.015,236.115c-3.977-10.945-6.849-22.382-6.614-34.623a40.024,40.024,0,0,1,1.122-9.482,24.907,24.907,0,0,1,1.821-5.09,13.965,13.965,0,0,1,4.4-5.339,10.461,10.461,0,0,1,8.688-1.489,15.206,15.206,0,0,1,5.959,3.3,36.861,36.861,0,0,1,6.531,7.871c6.369,10.687,10.163,21.243,14.786,31.445a146.6,146.6,0,0,0,7.539,14.791,59.507,59.507,0,0,0,10.22,13.293l-.349.554c-9.809-6.291-16.432-16.222-21.933-26.185-5.575-10.019-9.831-20.745-15.795-30.4a31.348,31.348,0,0,0-5.195-6.562c-1.951-1.869-4.85-3.056-7.046-1.48-2.152,1.5-3.318,4.256-4.112,6.893a44.815,44.815,0,0,0-1.493,8.334c-.956,11.342.323,22.8,2.126,34.056Z" transform="translate(-360.388 -179.72)" fill="#e1c6ae"/>
          </g>
          <g id="Group_276" data-name="Group 276" transform="translate(579.462 706.854)">
            <path id="Path_908" data-name="Path 908" d="M450.415,236.263c1.812-11.281,3.073-22.762,2.082-34.126a44.62,44.62,0,0,0-1.524-8.347c-.808-2.646-1.96-5.4-4.095-6.963-2.17-1.668-5.095-.563-7.081,1.262a30.722,30.722,0,0,0-5.23,6.548c-6,9.657-10.255,20.409-15.838,30.45-5.509,9.984-12.128,19.938-21.959,26.246l-.349-.554a59.547,59.547,0,0,0,10.237-13.324,146.616,146.616,0,0,0,7.548-14.817c4.641-10.229,8.43-20.806,14.839-31.515.773-1.2,2-2.921,2.824-3.929a26.418,26.418,0,0,1,3.789-3.964,14.938,14.938,0,0,1,6.16-3.217,10.46,10.46,0,0,1,8.613,1.768c4.27,3.519,5.086,7.19,6.046,10.394a39.9,39.9,0,0,1,1.157,9.491c.266,12.263-2.58,23.74-6.574,34.7Z" transform="translate(-396.421 -179.725)" fill="#e1c6ae"/>
          </g>
          <path id="Path_909" data-name="Path 909" d="M363.988,232.021c-1.89-11.268-3.274-22.74-2.4-34.217a45.6,45.6,0,0,1,1.458-8.509c.816-2.724,1.93-5.636,4.435-7.443a5.291,5.291,0,0,1,4.414-.72,9.813,9.813,0,0,1,3.833,2.226,31.872,31.872,0,0,1,5.444,6.749c5.976,9.858,10.119,20.571,15.594,30.594,5.4,9.958,11.879,19.837,21.5,26.115l-.24.362c-5.317-2.414-9.827-6.4-13.913-10.635a104.243,104.243,0,0,1-10.329-14.227c-6.129-9.888-10.381-20.815-16.3-29.878a29.336,29.336,0,0,0-4.5-5.933,6.341,6.341,0,0,0-2.165-1.445,1.226,1.226,0,0,0-1.139.1c-1,.546-2.322,2.825-3.008,5.191a65.972,65.972,0,0,0-1.7,7.749,102.58,102.58,0,0,0-.912,16.7c-.162,5.693.227,11.355.358,17.144Z" transform="translate(64.904 531.187)" fill="#d91a3d"/>
          <path id="Path_910" data-name="Path 910" d="M450.48,232.2c.131-5.784.524-11.481.349-17.174a102.953,102.953,0,0,0-.947-16.733,63.941,63.941,0,0,0-1.729-7.771c-.7-2.37-1.986-4.684-3.056-5.308a1.228,1.228,0,0,0-1.174-.153,6.03,6.03,0,0,0-2.126,1.345,28.529,28.529,0,0,0-4.51,5.907c-5.95,9.054-10.207,20.012-16.34,29.917A104.672,104.672,0,0,1,410.609,236.5c-4.095,4.243-8.609,8.242-13.939,10.661l-.236-.362c9.644-6.291,16.131-16.2,21.531-26.176,5.492-10.045,9.626-20.784,15.642-30.646a31.056,31.056,0,0,1,5.483-6.745,9.643,9.643,0,0,1,3.9-2.135,5.3,5.3,0,0,1,4.392.869c2.466,1.868,3.571,4.767,4.4,7.5a44.937,44.937,0,0,1,1.484,8.522c.913,11.5-.45,23-2.357,34.287Z" transform="translate(183.085 531.209)" fill="#d91a3d"/>
          <g id="Group_277" data-name="Group 277" transform="translate(481.424 196.822)">
            <path id="Path_911" data-name="Path 911" d="M374.073,63.567c4.514.965,8.923,2.192,13.407,3.165q6.62,1.762,13.28,3.283c4.453.956,8.814,2.192,13.245,3.052a118.048,118.048,0,0,0,13.175,2l-.738.031c8.43-1.314,16.856-3.431,25.251-5.335,4.217-.956,8.386-2.065,12.551-3.239,4.217-1.035,8.334-2.384,12.538-3.628l.135.3A182.072,182.072,0,0,1,452.4,72.163c-8.36,2.445-16.825,4.518-25.4,6.129l-.044.009-.035,0c-9.176-.882-18.069-3.292-26.875-5.793q-13.188-3.857-26.08-8.631Z" transform="translate(-373.964 -62.895)" fill="url(#linear-gradient-12)"/>
          </g>
          <path id="Path_913" data-name="Path 913" d="M366.467,69.663a427.5,427.5,0,0,0,42.949,1.026c14.258-.463,28.656-1.515,42.495-4.536l.275-.057.253.057c12.874,2.99,26.228,4.291,39.5,4.916a260.462,260.462,0,0,0,39.941-1.406,212.028,212.028,0,0,1-39.989,3.043c-6.7-.07-13.4-.533-20.064-1.253a178.685,178.685,0,0,1-19.916-3.2h.528A166.457,166.457,0,0,1,431,71.374c-7.177.616-14.363,1.017-21.562,1.026A313.4,313.4,0,0,1,366.467,69.663Z" transform="translate(82.228 144.7)" fill="url(#linear-gradient-12)"/>
          <path id="Path_917" data-name="Path 917" d="M378.286,75.171c-.925-7.1-1.55-14.241-2.13-21.352l0,.031a46.041,46.041,0,0,1-.567-11.639l.436.031A52.509,52.509,0,0,0,376.461,48a41.082,41.082,0,0,0,1.035,5.549l0-.009.03.175c1.161,7.295,2.213,14.638,3.519,21.876Z" transform="translate(112.507 64.313)" fill="url(#linear-gradient-5)"/>
          <path id="Path_918" data-name="Path 918" d="M463.326,49.72A164.39,164.39,0,0,1,457.961,76c-.589,1.916-1.257,3.82-1.978,5.693a13.061,13.061,0,0,1-3.274,5.138c-2.571,2.571-16.361,19.032-32.9,19.032s-30.21-16.129-33.1-19.015a13.177,13.177,0,0,1-3.283-5.143q-1.087-2.816-1.978-5.7A164.3,164.3,0,0,1,376.11,49.9l2.755.419A161.966,161.966,0,0,0,384.99,74.9c.6,1.834,1.27,3.654,1.982,5.426a8.548,8.548,0,0,0,1,2.03,13.214,13.214,0,0,0,1.515,1.764,36.922,36.922,0,0,0,9.015,6.02c6.719,3.322,14.319,5.675,21.3,6.033a39.247,39.247,0,0,0,10.626-1.764A64.531,64.531,0,0,0,441,90.268a36.969,36.969,0,0,0,9.05-6.046,16.8,16.8,0,0,0,1.55-1.777,3.99,3.99,0,0,0,.537-.838l.17-.332c-.07.192.065-.14.087-.183l.293-.668c.773-1.781,1.489-3.575,2.148-5.4a159.484,159.484,0,0,0,5.915-22.876c.14-.646.275-1.292.41-1.938Z" transform="translate(114.682 89.585)" fill="#fdd8bf"/>
          <path id="Path_919" data-name="Path 919" d="M395.593,66.558c1.48-7.164,2.55-14.433,3.837-21.7l.432.035c-.572,7.055-1.192,14.136-2.109,21.177Z" transform="translate(180.254 73.232)" fill="url(#linear-gradient-5)"/>
          <path id="Path_934" data-name="Path 934" d="M466.442,45.311c-4.1,2.017-7.739,1.185-12.253,1.041-4.562-.114-8.932-1.27-13.271-2.082-4.357-.86-8.718-1.7-13.092-2.414-8.7-1.554-17.541-2.72-26.346-2.283a40.618,40.618,0,0,0-12.83,2.571,20.913,20.913,0,0,0-10.028,8l-.742-.467c1.03-4.75,4.676-9.006,9.006-11.787a39.241,39.241,0,0,1,14.153-5.164c9.727-1.742,19.213-.851,28.263.533,4.51.891,8.941,1.842,13.284,2.955l6.409,1.868c1.834.5,3.645,1,5.47,1.393a28.137,28.137,0,0,0,10.975.118C469.162,38.922,470.523,43.307,466.442,45.311Z" transform="translate(120.633 29.137)" fill="url(#linear-gradient-3)"/>
          <path id="Path_936" data-name="Path 936" d="M373.977,63.606c8.753,2.7,17.506,5.365,26.333,7.731,8.805,2.318,17.7,4.645,26.678,5.444l-.271.013c8.508-1.48,16.96-3.549,25.333-5.771A231.443,231.443,0,0,0,476.8,62.929a149.967,149.967,0,0,1-24.29,9.674,237.2,237.2,0,0,1-25.43,6.321l-.127.026-.149-.013a98.723,98.723,0,0,1-13.669-2.362c-4.475-1.07-8.928-2.213-13.306-3.606C391.073,70.246,382.42,67.177,373.977,63.606Z" transform="translate(107.504 134.041)" fill="url(#linear-gradient-12)"/>
          <path id="Path_796" data-name="Path 796" d="M-4445.583,2732.625s7.232,4.109,14.731,4.857,15.927-1.691,15.927-1.691-7.793,9.664-15.292,8.916S-4445.583,2732.625-4445.583,2732.625Z" transform="matrix(0.995, -0.105, 0.105, 0.995, 4653.495, -3018.132)" fill="#682b2b"/>
          <g id="Mask_Group_53" data-name="Mask Group 53" transform="matrix(0.995, -0.105, 0.105, 0.995, 383.396, -59.344)" clip-path="url(#clip-path-2)">
            <path id="Path_797" data-name="Path 797" d="M-4445.583,2732.625s6.46,5.117,13.958,5.865,15.014-3.988,15.014-3.988-6.108,10.952-13.606,10.2S-4445.583,2732.625-4445.583,2732.625Z" transform="translate(-4304.208 2989.135) rotate(180)" fill="#943a3a"/>
          </g>
          <path id="Path_938" data-name="Path 938" d="M1604.174,1338.03a8.538,8.538,0,0,1-1.166,3.742c-1.932,3.645-6.389,6.6-5.744,8.74.824,2.734,8.513,0,8.513,0" transform="translate(-1068.702 -1199.849)" fill="none" stroke="#eaaa7f" stroke-linecap="round" stroke-width="1.5"/>
          <ellipse id="Ellipse_232" data-name="Ellipse 232" cx="7.5" cy="3.5" rx="7.5" ry="3.5" transform="translate(499.035 117.953)" fill="#fff"/>
          <ellipse id="Ellipse_233" data-name="Ellipse 233" cx="7.5" cy="3.5" rx="7.5" ry="3.5" transform="translate(554.035 117.953)" fill="#fff"/>
        </g>
      </g>
      <g id="exchange_2_" data-name="exchange (2)" transform="translate(422.421 3773.092)">
        <path id="Path_486" data-name="Path 486" d="M19.406,79.1a29.647,29.647,0,0,0,21.3,0L59.154,56.754A29.56,29.56,0,1,0,.5,51.522a29.714,29.714,0,0,0,.462,5.232Zm0,0" transform="translate(0 -19.315)" fill="url(#linear-gradient-18)"/>
        <path id="Path_487" data-name="Path 487" d="M293.554,268.83a15.007,15.007,0,0,0-10.213-5.353,21.293,21.293,0,0,1-15.916,11.408,15.016,15.016,0,0,0,7.345,16.7,29.6,29.6,0,0,0,18.784-22.759Zm0,0" transform="translate(-234.35 -231.693)" fill="#fff084"/>
        <path id="Path_488" data-name="Path 488" d="M275.906,332.915a14.687,14.687,0,0,1,.422-3.509,21.122,21.122,0,0,1-8.9,3.454,15.016,15.016,0,0,0,7.345,16.7,29.521,29.521,0,0,0,8.346-4.807c-4.186-1.63-7.211-6.315-7.211-11.842Zm0,0" transform="translate(-234.351 -289.668)" fill="#ffd47c"/>
        <path id="Path_489" data-name="Path 489" d="M317.491,297.987a11.6,11.6,0,0,0-10.4-6.495q-.428,0-.85.032a21.327,21.327,0,0,1-9.82,7.045,11.582,11.582,0,0,0,7.638,15.683,29.645,29.645,0,0,0,13.434-16.264Zm0,0" transform="translate(-259.419 -256.328)" fill="#ffd47c"/>
        <path id="Path_490" data-name="Path 490" d="M317.491,297.987a11.6,11.6,0,0,0-10.4-6.495q-.428,0-.85.032a21.327,21.327,0,0,1-9.82,7.045,11.582,11.582,0,0,0,7.638,15.683,29.645,29.645,0,0,0,13.434-16.264Zm0,0" transform="translate(-259.419 -256.328)" fill="#ffd47c"/>
        <path id="Path_491" data-name="Path 491" d="M300.923,333.207a14.66,14.66,0,0,1,.412-3.469,21.2,21.2,0,0,1-4.914,2.463,11.582,11.582,0,0,0,7.638,15.682,29.625,29.625,0,0,0,4.111-2.82C303.964,343.445,300.923,338.749,300.923,333.207Zm0,0" transform="translate(-259.42 -289.96)" fill="#ffb874"/>
        <path id="Path_492" data-name="Path 492" d="M382.637,333.6a1.274,1.274,0,0,1-1.274-1.274v-1.78a1.274,1.274,0,0,1,2.547,0v1.78A1.274,1.274,0,0,1,382.637,333.6Zm0,0" transform="translate(-334.918 -289.552)" fill="#ff9165"/>
        <path id="Path_493" data-name="Path 493" d="M382.637,414.663a1.274,1.274,0,0,1-1.274-1.274v-1.78a1.274,1.274,0,0,1,2.547,0v1.78A1.274,1.274,0,0,1,382.637,414.663Zm0,0" transform="translate(-334.918 -360.835)" fill="#ffa46d"/>
        <path id="Path_494" data-name="Path 494" d="M358.8,350.574h-2.1a3.273,3.273,0,0,1,0-6.547h3.623a1.273,1.273,0,1,1,0,2.547h-3.623a.726.726,0,1,0,0,1.452h2.1a1.274,1.274,0,0,1,0,2.547Zm0,0" transform="translate(-310.344 -302.526)" fill="#ffa46d"/>
        <path id="Path_495" data-name="Path 495" d="M366.764,383.726h-3.623a1.273,1.273,0,1,1,0-2.547h3.623a.726.726,0,0,0,0-1.452h-2.1a1.274,1.274,0,1,1,0-2.547h2.1a3.273,3.273,0,1,1,0,6.547Zm0,0" transform="translate(-317.774 -331.679)" fill="#ffb874"/>
        <path id="Path_496" data-name="Path 496" d="M14.123,263.477A15.006,15.006,0,0,0,3.91,268.829a29.6,29.6,0,0,0,18.784,22.759,15.016,15.016,0,0,0,7.345-16.7,21.3,21.3,0,0,1-15.916-11.408Zm0,0" transform="translate(-2.999 -231.692)" fill="#fff084"/>
        <path id="Path_497" data-name="Path 497" d="M3.91,277.936A29.452,29.452,0,0,0,10.842,292.5V276.919a2.16,2.16,0,0,1-1.522-3.087,15.112,15.112,0,0,0-5.411,4.1Zm0,0" transform="translate(-2.999 -240.799)" fill="#ffd47c"/>
        <path id="Path_498" data-name="Path 498" d="M24.548,291.524q-.421-.031-.849-.032a11.6,11.6,0,0,0-10.4,6.495A29.645,29.645,0,0,0,26.73,314.251a11.582,11.582,0,0,0,7.638-15.683,21.328,21.328,0,0,1-9.82-7.045Zm0,0" transform="translate(-11.253 -256.328)" fill="#ffd47c"/>
        <path id="Path_499" data-name="Path 499" d="M90.66,333.6a1.274,1.274,0,0,1-1.274-1.274v-1.78a1.274,1.274,0,0,1,2.547,0v1.78A1.274,1.274,0,0,1,90.66,333.6Zm0,0" transform="translate(-78.164 -289.552)" fill="#ff9165"/>
        <path id="Path_500" data-name="Path 500" d="M90.66,414.663a1.274,1.274,0,0,1-1.274-1.274v-1.78a1.274,1.274,0,0,1,2.547,0v1.78A1.274,1.274,0,0,1,90.66,414.663Zm0,0" transform="translate(-78.164 -360.835)" fill="#ffa46d"/>
        <path id="Path_501" data-name="Path 501" d="M66.816,350.574h-2.1a3.273,3.273,0,1,1,0-6.547h3.623a1.273,1.273,0,1,1,0,2.547H64.712a.726.726,0,1,0,0,1.452h2.1a1.274,1.274,0,0,1,0,2.547Zm0,0" transform="translate(-53.587 -302.526)" fill="#ffa46d"/>
        <path id="Path_502" data-name="Path 502" d="M74.787,383.726H71.164a1.273,1.273,0,1,1,0-2.547h3.623a.726.726,0,0,0,0-1.452h-2.1a1.274,1.274,0,0,1,0-2.547h2.1a3.273,3.273,0,0,1,0,6.547Zm0,0" transform="translate(-61.019 -331.679)" fill="#ffb874"/>
        <path id="Path_503" data-name="Path 503" d="M98.245,48.4a21.7,21.7,0,1,1,7.941-29.637A21.721,21.721,0,0,1,98.245,48.4Zm0,0" transform="translate(-57.34 -6.962)" fill="#ffd47c"/>
        <g id="Group_97" data-name="Group 97" transform="translate(24.982 11.589)">
          <path id="Path_505" data-name="Path 505" d="M205.989,99.495V96.44a.369.369,0,0,0-.369-.369h-1.808a.369.369,0,0,0-.369.369v3.055Zm0,0" transform="translate(-203.442 -96.07)" fill="#ffa46d"/>
          <path id="Path_506" data-name="Path 506" d="M203.441,142.879h2.547V154.21h-2.547Zm0,0" transform="translate(-203.441 -137.232)" fill="#ffa46d"/>
          <path id="Path_507" data-name="Path 507" d="M203.441,255.223v3.055a.369.369,0,0,0,.369.369h1.808a.37.37,0,0,0,.37-.369v-3.055Zm0,0" transform="translate(-203.441 -236.024)" fill="#ffa46d"/>
          <path id="Path_508" data-name="Path 508" d="M254.2,101.88h-2.547V96.44a.369.369,0,0,1,.369-.369h1.809a.369.369,0,0,1,.369.369v5.44Zm0,0" transform="translate(-245.833 -96.071)" fill="#ffa46d"/>
          <path id="Path_509" data-name="Path 509" d="M253.822,241.261h-1.808a.37.37,0,0,1-.37-.369v-5.44h2.547v5.44A.369.369,0,0,1,253.822,241.261Zm0,0" transform="translate(-245.829 -218.638)" fill="#ffa46d"/>
        </g>
        <path id="Path_515" data-name="Path 515" d="M104.148,223.353a.955.955,0,0,1-.821-.466l-1.845-3.093h-4.3a.955.955,0,0,1,0-1.911h4.842a.954.954,0,0,1,.82.466l2.123,3.559a.955.955,0,0,1-.819,1.445Zm0,0" transform="translate(-84.179 -191.599)" fill="#ffd47c"/>
        <path id="Path_516" data-name="Path 516" d="M91.76,42.263a22.651,22.651,0,1,1,8.291-30.942A22.677,22.677,0,0,1,91.76,42.263ZM70.065,4.684A20.741,20.741,0,1,0,98.4,12.276,20.764,20.764,0,0,0,70.065,4.684Zm0,0" transform="translate(-50.377 0)" fill="#ffb874"/>
        <path id="Path_517" data-name="Path 517" d="M90.985,62.864a1.086,1.086,0,0,1-.071-.942.116.116,0,0,0-.024-.122l-.084.05a20.741,20.741,0,0,1-20.74-35.924l.09-.05a.118.118,0,0,0-.084-.055,1.09,1.09,0,0,1-.754-1.666c-.069.039-.139.076-.207.116A22.651,22.651,0,1,0,91.761,63.5l.16-.095a1.091,1.091,0,0,1-.936-.546Zm0,0" transform="translate(-50.378 -21.242)" fill="#ffa46d"/>
        <path id="Path_520" data-name="Path 520" d="M197.617,130.619a4.566,4.566,0,0,0,.991-2.736,4.667,4.667,0,0,0-4.66-4.774H183.69a.369.369,0,0,0-.369.369v1.808a.369.369,0,0,0,.369.369h10.258a2.117,2.117,0,0,1,2.114,2.079,2.161,2.161,0,0,1-2.17,2.151H185.8v2.547h9.314a2.117,2.117,0,0,1,2.114,2.079,2.161,2.161,0,0,1-2.17,2.151H183.69a.369.369,0,0,0-.369.369v1.808a.369.369,0,0,0,.369.369h11.335a4.719,4.719,0,0,0,4.748-4.549,4.66,4.66,0,0,0-2.155-4.041Zm0,0" transform="translate(-160.766 -108.258)" fill="#ffb874"/>
        <path id="Path_521" data-name="Path 521" d="M209.574,179.281H203.86v2.547h5.714a1.274,1.274,0,1,1,0-2.547Zm0,0" transform="translate(-178.828 -157.654)" fill="#ffa46d"/>
        <path id="Path_522" data-name="Path 522" d="M183.69,125.657h7.822a1.275,1.275,0,0,1-1.257-1.483,1.3,1.3,0,0,1,1.293-1.065H183.69a.369.369,0,0,0-.369.369v1.808a.37.37,0,0,0,.369.37Zm0,0" transform="translate(-160.766 -108.259)" fill="#ffa46d"/>
        <path id="Path_523" data-name="Path 523" d="M190.238,236.727a1.274,1.274,0,0,1,1.274-1.274H183.69a.369.369,0,0,0-.369.369v1.809a.369.369,0,0,0,.369.369h7.822A1.274,1.274,0,0,1,190.238,236.727Zm0,0" transform="translate(-160.766 -207.05)" fill="#ffa46d"/>
        <path id="Path_524" data-name="Path 524" d="M19.1,299.418a11.658,11.658,0,0,0-5.8,5.539,29.472,29.472,0,0,0,4.37,8.286c-2.057-4.986-1.411-10.348,1.43-13.825Zm0,0" transform="translate(-11.253 -263.298)" fill="#ffb874"/>
      </g>
    </g>
    <path id="Union_5" data-name="Union 5" d="M125.409,394.537a206.016,206.016,0,1,1,79.926,16.136A205.326,205.326,0,0,1,125.409,394.537Zm-94.8-187.925c0,97.048,78.955,176,176,176,79.313,0,146.543-52.74,168.464-124.988H373.77a30,30,0,0,1-30-30V183.046a30,30,0,0,1,30-30h.51C351.565,82.109,284.989,30.608,206.611,30.608,109.563,30.608,30.608,109.563,30.608,206.612Z" transform="translate(250 3485.4)" fill="url(#linear-gradient-19)"/>
  </g>
</svg>
