<svg id="_030---Safe-Investment" data-name="030---Safe-Investment" xmlns="http://www.w3.org/2000/svg" xmlns:xlink="http://www.w3.org/1999/xlink" width="96.508" height="86.857" viewBox="0 0 96.508 86.857">
  <defs>
    <linearGradient id="linear-gradient" x1="0.5" x2="0.5" y2="1" gradientUnits="objectBoundingBox">
      <stop offset="0" stop-color="#00ffed"/>
      <stop offset="1" stop-color="#00c2a8"/>
    </linearGradient>
  </defs>
  <path id="Shape" d="M90.074,0H6.434A6.434,6.434,0,0,0,0,6.434V70.772a6.434,6.434,0,0,0,4.825,6.205v5.054a4.825,4.825,0,0,0,4.825,4.825H24.014a4.825,4.825,0,0,0,4.021-2.149l4.994-7.5H63.478l5,7.5a4.825,4.825,0,0,0,4.015,2.149H86.857a4.825,4.825,0,0,0,4.825-4.825V76.978a6.434,6.434,0,0,0,4.825-6.205V6.434A6.434,6.434,0,0,0,90.074,0ZM25.353,82.924a1.608,1.608,0,0,1-1.338.716H9.651a1.608,1.608,0,0,1-1.608-1.608V77.206H29.165Zm63.113-.893a1.608,1.608,0,0,1-1.608,1.608H72.493a1.608,1.608,0,0,1-1.338-.716l-3.812-5.718H88.465Zm4.825-11.259a3.217,3.217,0,0,1-3.217,3.217H6.434a3.217,3.217,0,0,1-3.217-3.217V6.434A3.217,3.217,0,0,1,6.434,3.217h83.64a3.217,3.217,0,0,1,3.217,3.217Z" fill="url(#linear-gradient)"/>
  <path id="Shape-2" data-name="Shape" d="M82.815,4H12.042A4.825,4.825,0,0,0,7.217,8.825v5.121A4.825,4.825,0,0,0,4,18.476v9.651a4.825,4.825,0,0,0,3.217,4.529v7.026A4.825,4.825,0,0,0,4,44.212v9.651a4.825,4.825,0,0,0,3.217,4.529v5.121a4.825,4.825,0,0,0,4.825,4.825H82.815a4.825,4.825,0,0,0,4.825-4.825V8.825A4.825,4.825,0,0,0,82.815,4ZM7.217,18.476a1.608,1.608,0,0,1,3.217,0v9.651a1.608,1.608,0,1,1-3.217,0Zm0,25.735a1.608,1.608,0,0,1,3.217,0v9.651a1.608,1.608,0,0,1-3.217,0Zm77.206,19.3a1.608,1.608,0,0,1-1.608,1.608H12.042a1.608,1.608,0,0,1-1.608-1.608V58.392a4.825,4.825,0,0,0,3.217-4.529V44.212a4.825,4.825,0,0,0-3.217-4.529V32.656a4.825,4.825,0,0,0,3.217-4.529V18.476a4.825,4.825,0,0,0-3.217-4.529V8.825a1.608,1.608,0,0,1,1.608-1.608H82.815a1.608,1.608,0,0,1,1.608,1.608Z" transform="translate(2.434 2.434)" fill="url(#linear-gradient)"/>
  <path id="Shape-3" data-name="Shape" d="M56.565,28.1l-2.958-.494a19.153,19.153,0,0,0-1.51-3.648l1.745-2.443A3.207,3.207,0,0,0,53.5,17.37l-2.623-2.622a3.2,3.2,0,0,0-4.143-.343L44.3,16.158a19.078,19.078,0,0,0-3.64-1.51l-.494-2.963A3.217,3.217,0,0,0,36.98,9h-3.7a3.217,3.217,0,0,0-3.175,2.688l-.494,2.96a19.078,19.078,0,0,0-3.64,1.51L23.53,14.412a3.2,3.2,0,0,0-4.145.343l-2.623,2.622a3.207,3.207,0,0,0-.343,4.145l1.739,2.437a19.153,19.153,0,0,0-1.51,3.642l-2.958.494A3.2,3.2,0,0,0,11,31.272v3.709a3.2,3.2,0,0,0,2.689,3.172l2.958.494a19.153,19.153,0,0,0,1.51,3.648l-1.745,2.443a3.207,3.207,0,0,0,.343,4.145l2.623,2.622a3.2,3.2,0,0,0,4.143.343L25.959,50.1a19.077,19.077,0,0,0,3.64,1.51l.494,2.963a3.217,3.217,0,0,0,3.182,2.685h3.7a3.217,3.217,0,0,0,3.175-2.688l.494-2.96A19.078,19.078,0,0,0,44.3,50.1l2.442,1.745a3.2,3.2,0,0,0,4.145-.343l2.623-2.622a3.207,3.207,0,0,0,.343-4.145L52.1,42.3a19.154,19.154,0,0,0,1.51-3.642l2.958-.494a3.2,3.2,0,0,0,2.689-3.178V31.272A3.206,3.206,0,0,0,56.565,28.1Zm-.528,6.881-3.979.663a1.608,1.608,0,0,0-1.3,1.214,15.994,15.994,0,0,1-1.941,4.679,1.608,1.608,0,0,0,.061,1.777L51.224,46.6,48.6,49.224l-3.284-2.347a1.608,1.608,0,0,0-1.779-.061,15.969,15.969,0,0,1-4.679,1.941,1.608,1.608,0,0,0-1.214,1.3l-.664,3.979h-3.7l-.663-3.979a1.608,1.608,0,0,0-1.214-1.3c-3.619-.862-4.462-2.181-5.523-2.181-.687,0-.672.114-4.219,2.648L19.038,46.6l2.347-3.286a1.608,1.608,0,0,0,.061-1.777A16,16,0,0,1,19.5,36.859a1.608,1.608,0,0,0-1.3-1.214l-3.987-.663V31.272L18.2,30.61A1.608,1.608,0,0,0,19.5,29.4a15.994,15.994,0,0,1,1.941-4.679,1.608,1.608,0,0,0-.061-1.777l-2.347-3.286,2.623-2.623,3.284,2.347a1.608,1.608,0,0,0,1.779.061A15.969,15.969,0,0,1,31.4,17.5a1.608,1.608,0,0,0,1.214-1.3l.664-3.979h3.7l.663,3.979a1.608,1.608,0,0,0,1.214,1.3,15.969,15.969,0,0,1,4.679,1.941,1.608,1.608,0,0,0,1.779-.061l3.284-2.347,2.623,2.623L48.87,22.939a1.608,1.608,0,0,0-.061,1.777A15.994,15.994,0,0,1,50.75,29.4a1.608,1.608,0,0,0,1.3,1.214l3.987.663Z" transform="translate(6.693 5.476)" fill="url(#linear-gradient)"/>
  <path id="Shape-4" data-name="Shape" d="M33.868,23.993A1.608,1.608,0,0,0,35.476,25.6c3.091,0,1.835-6.826-4.825-7.912a1.608,1.608,0,0,0-3.217,0c-3.666.6-6.434,3.2-6.434,6.3s2.768,5.705,6.434,6.3v6.36c-1.85-.455-3.217-1.644-3.217-3.013a1.608,1.608,0,0,0-1.608-1.608c-3.091,0-1.835,6.826,4.825,7.912a1.608,1.608,0,1,0,3.217,0c3.666-.6,6.434-3.2,6.434-6.3s-2.768-5.705-6.434-6.3V20.98C32.5,21.436,33.868,22.624,33.868,23.993ZM27.434,20.98v6.025C23.16,25.955,23.16,22.031,27.434,20.98Zm3.217,15.676V30.631C34.924,31.681,34.924,35.606,30.651,36.656Z" transform="translate(12.778 9.785)" fill="url(#linear-gradient)"/>
  <path id="Shape-5" data-name="Shape" d="M54.474,17.72a5.033,5.033,0,0,0-10.046,0c-1.851,29.618-1.411,21.071-1.411,22.625a6.434,6.434,0,0,0,12.868,0C55.885,40.184,55.525,34.516,54.474,17.72Zm-5.023-1.5a1.819,1.819,0,0,1,1.813,1.7l1.042,16.688a6.185,6.185,0,0,0-5.71,0l1.042-16.688a1.819,1.819,0,0,1,1.813-1.7Zm0,27.344a3.217,3.217,0,1,1,2.3-.971,3.217,3.217,0,0,1-2.3.971Z" transform="translate(26.146 7.909)" fill="url(#linear-gradient)"/>
</svg>
