<svg xmlns="http://www.w3.org/2000/svg" xmlns:xlink="http://www.w3.org/1999/xlink" width="77.625" height="97.627" viewBox="0 0 77.625 97.627">
  <defs>
    <linearGradient id="linear-gradient" x1="0.5" x2="0.5" y2="1" gradientUnits="objectBoundingBox">
      <stop offset="0" stop-color="#00ffed"/>
      <stop offset="1" stop-color="#00c2a8"/>
    </linearGradient>
  </defs>
  <path id="Union_33" data-name="Union 33" d="M-13278.965,1838.628v-2.587h2.59v2.587Zm-75.035,0v-2.587h7.762v-50.456a1.3,1.3,0,0,1,1.294-1.294h14.229v-5.175h-1.293a1.291,1.291,0,0,1-1.29-1.294v-5.175a1.289,1.289,0,0,1,1.192-1.294l4.323-.332a12.925,12.925,0,0,1,11.6-9.984c.33-.025.659-.038.985-.039v-19.634a.348.348,0,0,1,.336-.365.35.35,0,0,1,.338.365v.845c1.013.285,4.987,1.267,7.249-.04,2.859-1.649,6.528-.087,6.683-.017a.362.362,0,0,1,.212.339v11a.371.371,0,0,1-.147.305.316.316,0,0,1-.315.037c-.033-.013-3.539-1.5-6.116-.017a6.873,6.873,0,0,1-3.4.751,16.8,16.8,0,0,1-4.162-.6v7.046a12.915,12.915,0,0,1,11.331,8.112l4.719-.362a1.279,1.279,0,0,1,.982.342,1.293,1.293,0,0,1,.412.952v7.762a1.3,1.3,0,0,1-1.294,1.294h-1.293v5.175h14.229a1.292,1.292,0,0,1,1.294,1.294v50.456h2.591v2.587Zm54.337-2.587h12.936v-2.587h-12.936Zm-7.763-12.937a1.294,1.294,0,0,1,1.294,1.29v11.646h3.881v-15.524h-25.873v15.524h3.881v-11.646a1.292,1.292,0,0,1,1.294-1.29Zm-6.468,12.937h5.175v-10.349h-5.175v3.881h2.587v2.587h-2.587Zm-7.766,0h5.179v-3.881h-2.588v-2.587h2.588v-3.881h-5.179Zm-21.991,0h12.936v-2.587h-12.936Zm43.987-5.175h12.936v-43.987h-12.936Zm-43.987,0h12.936v-43.987h-12.936Zm15.526-12.94h25.873v-38.809h-1.089a12.924,12.924,0,0,1-11.848,7.762,12.928,12.928,0,0,1-11.851-7.762h-1.086Zm2.588-43.984a10.348,10.348,0,0,0,10.349,10.349,10.351,10.351,0,0,0,10.35-10.349,10.352,10.352,0,0,0-10.35-10.352A10.362,10.362,0,0,0-13325.536,1773.943Zm23.074-2.269a12.6,12.6,0,0,1-.047,4.856h2.846v-5.071Zm-28.253,2.172v2.684h2.85a12.657,12.657,0,0,1-.259-2.587c0-.1.014-.2.014-.3Zm16.194-20.745v.114c1.016.281,4.987,1.263,7.249-.044,2.3-1.327,5.125-.573,6.221-.194v-10.225c-.8-.295-3.693-1.21-5.905.067-2.387,1.377-6.268.506-7.564.154Zm18.738,75.179a1.3,1.3,0,0,1-1.294-1.294v-5.175a1.293,1.293,0,0,1,1.294-1.294h5.174a1.293,1.293,0,0,1,1.294,1.294v5.175a1.3,1.3,0,0,1-1.294,1.294Zm1.293-2.587h2.588V1823.1h-2.588Zm-45.28,2.587a1.3,1.3,0,0,1-1.294-1.294v-5.175a1.293,1.293,0,0,1,1.294-1.294h5.174a1.3,1.3,0,0,1,1.3,1.294v5.175a1.3,1.3,0,0,1-1.3,1.294Zm1.293-2.587h2.588V1823.1h-2.588Zm56.928,0v-27.17h2.584v27.17Zm-69.864-3.881v-2.587h2.588v2.587Zm55.631-3.884a1.292,1.292,0,0,1-1.294-1.29v-5.178a1.3,1.3,0,0,1,1.294-1.294h5.174a1.3,1.3,0,0,1,1.294,1.294v5.178a1.292,1.292,0,0,1-1.294,1.29Zm1.293-2.587h2.588v-2.587h-2.588Zm-45.28,2.587a1.292,1.292,0,0,1-1.294-1.29v-5.178a1.3,1.3,0,0,1,1.294-1.294h5.174a1.3,1.3,0,0,1,1.3,1.294v5.178a1.3,1.3,0,0,1-1.3,1.29Zm1.293-2.587h2.588v-2.587h-2.588Zm-12.937,1.3v-27.17h2.588v27.17Zm38.813-1.3a1.292,1.292,0,0,1-1.294-1.29v-5.178a1.3,1.3,0,0,1,1.294-1.294h5.174a1.3,1.3,0,0,1,1.294,1.294v5.178a1.292,1.292,0,0,1-1.294,1.29Zm1.293-2.587h2.588v-2.587h-2.588Zm-11.643,2.587a1.29,1.29,0,0,1-1.294-1.29v-5.178a1.293,1.293,0,0,1,1.294-1.294h5.171a1.3,1.3,0,0,1,1.3,1.294v5.178a1.293,1.293,0,0,1-1.3,1.29Zm1.29-2.587h2.591v-2.587h-2.591Zm25.877-5.175a1.292,1.292,0,0,1-1.294-1.294v-5.175a1.3,1.3,0,0,1,1.294-1.294h5.174a1.3,1.3,0,0,1,1.294,1.294v5.175a1.292,1.292,0,0,1-1.294,1.294Zm1.293-2.587h2.588V1802.4h-2.588Zm-45.28,2.587a1.292,1.292,0,0,1-1.294-1.294v-5.175a1.3,1.3,0,0,1,1.294-1.294h5.174a1.3,1.3,0,0,1,1.3,1.294v5.175a1.3,1.3,0,0,1-1.3,1.294Zm1.293-2.587h2.588V1802.4h-2.588Zm25.877,0a1.3,1.3,0,0,1-1.294-1.294v-5.175a1.3,1.3,0,0,1,1.294-1.294h5.174a1.3,1.3,0,0,1,1.294,1.294v5.175a1.3,1.3,0,0,1-1.294,1.294Zm1.293-2.587h2.588v-2.587h-2.588Zm-11.643,2.587a1.293,1.293,0,0,1-1.294-1.294v-5.175a1.293,1.293,0,0,1,1.294-1.294h5.171a1.3,1.3,0,0,1,1.3,1.294v5.175a1.3,1.3,0,0,1-1.3,1.294Zm1.29-2.587h2.591v-2.587h-2.591Zm25.877-5.175a1.3,1.3,0,0,1-1.294-1.294v-5.175a1.3,1.3,0,0,1,1.294-1.294h5.174a1.3,1.3,0,0,1,1.294,1.294v5.175a1.3,1.3,0,0,1-1.294,1.294Zm1.293-2.587h2.588v-2.587h-2.588Zm-45.28,2.587a1.3,1.3,0,0,1-1.294-1.294v-5.175a1.3,1.3,0,0,1,1.294-1.294h5.174a1.3,1.3,0,0,1,1.3,1.294v5.175a1.3,1.3,0,0,1-1.3,1.294Zm1.293-2.587h2.588v-2.587h-2.588Zm25.877,0a1.3,1.3,0,0,1-1.294-1.294v-5.175h2.587v3.881h2.588v-3.881h2.587v5.175a1.3,1.3,0,0,1-1.294,1.294Zm-10.35,0a1.293,1.293,0,0,1-1.294-1.294v-5.175h2.584v3.881h2.591v-3.881h2.588v5.175a1.3,1.3,0,0,1-1.3,1.294Zm6.469-12.936v-1.481a3.683,3.683,0,0,1-2.588-3.506v-.188h2.588v.188a1.106,1.106,0,0,0,1.1,1.106h.378a1.108,1.108,0,0,0,1.076-.851,1.106,1.106,0,0,0-.583-1.243l-2.521-1.26a3.687,3.687,0,0,1-2.031-3.589,3.682,3.682,0,0,1,2.578-3.217v-1.485h2.587v1.485a3.682,3.682,0,0,1,2.587,3.5v.191h-2.587v-.191a1.107,1.107,0,0,0-1.106-1.1h-.378a1.1,1.1,0,0,0-1.073.851,1.1,1.1,0,0,0,.58,1.24l2.523,1.263a3.677,3.677,0,0,1,2.028,3.586,3.682,3.682,0,0,1-2.574,3.221v1.481Z" transform="translate(13354 -1741.001)" fill="url(#linear-gradient)"/>
</svg>
