<svg xmlns="http://www.w3.org/2000/svg" xmlns:xlink="http://www.w3.org/1999/xlink" width="95.597" height="95.597" viewBox="0 0 95.597 95.597">
  <defs>
    <linearGradient id="linear-gradient" x1="0.5" x2="0.5" y2="1" gradientUnits="objectBoundingBox">
      <stop offset="0" stop-color="#00ffed"/>
      <stop offset="1" stop-color="#00c2a8"/>
    </linearGradient>
  </defs>
  <g id="budget" transform="translate(0.002)">
    <path id="Union_32" data-name="Union 32" d="M-14229.759-6588.1c-23.286,0-36.646-10.487-36.646-28.768,0-20.1,11.841-35.779,23.9-41.615v-6.889l-5.735-4.3a1.59,1.59,0,0,1-.634-1.274v-11.153a1.591,1.591,0,0,1,1.59-1.593h6.373a1.6,1.6,0,0,1,1.128.465l2.059,2.062,2.063-2.062a1.588,1.588,0,0,1,1.124-.465h9.56a1.6,1.6,0,0,1,1.128.465l2.059,2.062,2.063-2.062a1.588,1.588,0,0,1,1.124-.465h6.373a1.592,1.592,0,0,1,1.593,1.593v11.153a1.592,1.592,0,0,1-.637,1.274l-5.736,4.3v6.871a36.683,36.683,0,0,1,12.4,9.857h32.209a1.592,1.592,0,0,1,1.593,1.593v57.358a1.592,1.592,0,0,1-1.593,1.593h-44.612a1.591,1.591,0,0,1-1.471-1,61.737,61.737,0,0,1-11.044,1Zm-33.458-28.768c0,23.09,23.4,25.582,33.458,25.582a58.028,58.028,0,0,0,11.157-1.031v-13.4a20.711,20.711,0,0,1-22.367,0,20.713,20.713,0,0,1-6.251-28.618,20.71,20.71,0,0,1,28.614-6.251v-6.463a1.594,1.594,0,0,1,1.593-1.593h8.139a31.414,31.414,0,0,0-11.844-7.966h-18.066C-14254.08-6651.079-14263.217-6632.113-14263.217-6616.871Zm47.8,25.582h41.425v-41.425h-41.425Zm-25.539-45.363a17.523,17.523,0,0,0-2.323,24.676,17.523,17.523,0,0,0,24.676,2.32v-27a17.487,17.487,0,0,0-11.177-4.028A17.486,17.486,0,0,0-14240.958-6636.653Zm25.539.752h41.425v-9.56h-41.425Zm-23.9-23.9h19.119v-4.78h-19.119Zm-6.373-11.948,5.31,3.981h21.246l5.31-3.981v-8.765h-4.117l-2.721,2.721a1.6,1.6,0,0,1-2.252,0l-2.722-2.721h-8.238l-2.721,2.721a1.6,1.6,0,0,1-2.252,0l-2.722-2.721h-4.121Zm60.545,77.272a1.594,1.594,0,0,1-1.594-1.593v-19.119a1.594,1.594,0,0,1,1.594-1.593h6.373a1.592,1.592,0,0,1,1.593,1.593v19.119a1.592,1.592,0,0,1-1.593,1.593Zm1.593-3.187h3.187V-6613.6h-3.187Zm-14.339,3.187a1.594,1.594,0,0,1-1.594-1.593v-6.373a1.594,1.594,0,0,1,1.594-1.593h6.373a1.592,1.592,0,0,1,1.593,1.593v6.373a1.592,1.592,0,0,1-1.593,1.593Zm1.593-3.187h3.187v-3.187h-3.187Zm-14.34,3.187a1.594,1.594,0,0,1-1.593-1.593v-6.373a1.594,1.594,0,0,1,1.593-1.593h6.374a1.592,1.592,0,0,1,1.593,1.593v6.373a1.592,1.592,0,0,1-1.593,1.593Zm1.594-3.187h3.187v-3.187h-3.187Zm11.153-9.56a1.594,1.594,0,0,1-1.594-1.593v-6.373a1.594,1.594,0,0,1,1.594-1.593h6.373a1.592,1.592,0,0,1,1.593,1.593v6.373a1.592,1.592,0,0,1-1.593,1.593Zm1.593-3.187h3.187v-3.187h-3.187Zm-14.34,3.187a1.594,1.594,0,0,1-1.593-1.593v-6.373a1.594,1.594,0,0,1,1.593-1.593h6.374a1.592,1.592,0,0,1,1.593,1.593v6.373a1.592,1.592,0,0,1-1.593,1.593Zm1.594-3.187h3.187v-3.187h-3.187Zm-22.3,1.593v-3.412a6.375,6.375,0,0,1-4.783-6.147h3.187a3.187,3.187,0,0,0,3.187,3.187,3.184,3.184,0,0,0,3.187-3.187,2.83,2.83,0,0,0-1.933-2.686l-3.513-1.167a6.016,6.016,0,0,1-4.114-5.707,6.378,6.378,0,0,1,4.783-6.147v-3.413h3.187v3.413a6.375,6.375,0,0,1,4.776,6.147h-3.187a3.184,3.184,0,0,0-3.187-3.187,3.187,3.187,0,0,0-3.187,3.187,2.834,2.834,0,0,0,1.938,2.685l3.512,1.167a6,6,0,0,1,4.11,5.707,6.372,6.372,0,0,1-4.776,6.147v3.412Zm46.2-11.153a1.594,1.594,0,0,1-1.594-1.593v-6.373a1.594,1.594,0,0,1,1.594-1.593h6.373a1.592,1.592,0,0,1,1.593,1.593v6.373a1.592,1.592,0,0,1-1.593,1.593Zm1.593-3.187h3.187v-3.187h-3.187Zm-14.339,3.187a1.594,1.594,0,0,1-1.594-1.593v-6.373a1.594,1.594,0,0,1,1.594-1.593h6.373a1.592,1.592,0,0,1,1.593,1.593v6.373a1.592,1.592,0,0,1-1.593,1.593Zm1.593-3.187h3.187v-3.187h-3.187Zm-14.34,3.187a1.594,1.594,0,0,1-1.593-1.593v-6.373a1.594,1.594,0,0,1,1.593-1.593h6.374a1.592,1.592,0,0,1,1.593,1.593v6.373a1.592,1.592,0,0,1-1.593,1.593Zm1.594-3.187h3.187v-3.187h-3.187Zm28.679-15.933v-3.187h3.187v3.187Zm-6.373,0v-3.187h3.187v3.187Zm-6.373,0v-3.187h3.187v3.187Z" transform="translate(14266.403 6683.699)" fill="url(#linear-gradient)"/>
  </g>
</svg>
