<svg xmlns="http://www.w3.org/2000/svg" xmlns:xlink="http://www.w3.org/1999/xlink" width="87.264" height="87.255" viewBox="0 0 87.264 87.255">
  <defs>
    <linearGradient id="linear-gradient" x1="0.5" x2="0.5" y2="1" gradientUnits="objectBoundingBox">
      <stop offset="0" stop-color="#00ffed"/>
      <stop offset="1" stop-color="#00c2a8"/>
    </linearGradient>
  </defs>
  <g id="payment-method" transform="translate(0 -0.023)">
    <g id="Group_319" data-name="Group 319" transform="translate(26.034 65.442)">
      <g id="Group_318" data-name="Group 318">
        <path id="Path_1078" data-name="Path 1078" d="M156.125,385.228a1.778,1.778,0,0,0-.1-.32,1.729,1.729,0,0,0-.157-.293,1.656,1.656,0,0,0-.47-.47,1.681,1.681,0,0,0-.295-.157,1.6,1.6,0,0,0-.319-.1,1.677,1.677,0,0,0-.665,0,1.649,1.649,0,0,0-.32.1,1.728,1.728,0,0,0-.293.157,1.7,1.7,0,0,0-.627.764,1.651,1.651,0,0,0-.1.32,1.637,1.637,0,0,0,0,.665,1.6,1.6,0,0,0,.1.319,1.575,1.575,0,0,0,.157.295,1.656,1.656,0,0,0,.47.47,1.718,1.718,0,0,0,.293.157,1.653,1.653,0,0,0,.32.1,1.639,1.639,0,0,0,.665,0,1.6,1.6,0,0,0,.319-.1,1.682,1.682,0,0,0,.295-.157,1.656,1.656,0,0,0,.47-.47,1.68,1.68,0,0,0,.157-.295,1.721,1.721,0,0,0,.1-.319,1.637,1.637,0,0,0,0-.665Z" transform="translate(-152.75 -383.857)" fill="url(#linear-gradient)"/>
      </g>
    </g>
    <g id="Group_321" data-name="Group 321" transform="translate(0 52.841)">
      <g id="Group_320" data-name="Group 320">
        <path id="Path_1079" data-name="Path 1079" d="M78.4,324.419l-.021-.051c-1.569-3.671-5.248-5.027-9.6-3.54L56.9,324.112a7.784,7.784,0,0,0-4.82-4.747l-.045-.016-13.052-4.43a13.462,13.462,0,0,0-10.861-5c-4.453,0-8.392,3.055-10.645,6.384H1.7a1.7,1.7,0,0,0-1.7,1.7V339.5a1.7,1.7,0,0,0,1.7,1.7H11.838a1.7,1.7,0,0,0,1.7-1.7v-1.472h4.752a1.7,1.7,0,0,0,1.7-1.7v-.491c2.77.242,3.681.767,6.226,2.234a103.131,103.131,0,0,0,10.239,5.228l.075.032a15.3,15.3,0,0,0,5.483,1.034,13.585,13.585,0,0,0,5.647-1.209l26.245-9.4c.047-.017.093-.035.138-.056C76.56,332.543,80.3,329.29,78.4,324.419ZM10.134,337.794H3.409V319.715h6.725Zm6.457-3.176H13.542v-14.9H16.59Zm56.1-4.047-26.234,9.393-.077.03-.069.03a11.047,11.047,0,0,1-8.488.145,98.728,98.728,0,0,1-9.9-5.055c-2.789-1.608-4.133-2.383-7.928-2.7V318.689c1.616-2.648,4.748-5.358,8.126-5.358,5.792,0,8.247,3.767,8.343,3.919a1.7,1.7,0,0,0,.9.721l13.545,4.6c2.163.812,3.307,2.665,2.781,4.512a3.321,3.321,0,0,1-4.08,2.292l-15.27-4.839a1.7,1.7,0,1,0-1.03,3.25l15.3,4.847.049.015a6.69,6.69,0,0,0,5.116-.594,6.684,6.684,0,0,0,3.2-4.038q.059-.207.1-.414l12.8-3.545c1.848-.631,4.274-.859,5.355,1.629C76.351,328.6,73.445,330.21,72.69,330.571Z" transform="translate(0 -309.922)" fill="url(#linear-gradient)"/>
      </g>
    </g>
    <g id="Group_323" data-name="Group 323" transform="translate(57.82 21.068)">
      <g id="Group_322" data-name="Group 322">
        <path id="Path_1080" data-name="Path 1080" d="M342.626,124.869a1.657,1.657,0,0,0-.1-.32,1.68,1.68,0,0,0-.627-.764,1.729,1.729,0,0,0-.293-.157,1.7,1.7,0,0,0-.985-.1,1.6,1.6,0,0,0-.319.1,1.682,1.682,0,0,0-.295.157,1.656,1.656,0,0,0-.47.47,1.729,1.729,0,0,0-.157.293,1.651,1.651,0,0,0-.1.32,1.637,1.637,0,0,0,0,.665,1.6,1.6,0,0,0,.1.319,1.683,1.683,0,0,0,.157.295,1.656,1.656,0,0,0,.47.47,1.682,1.682,0,0,0,.295.157,1.721,1.721,0,0,0,.319.1,1.679,1.679,0,0,0,.332.034,1.709,1.709,0,0,0,.334-.034,1.8,1.8,0,0,0,.319-.1,1.729,1.729,0,0,0,.293-.157,1.657,1.657,0,0,0,.47-.47,1.576,1.576,0,0,0,.157-.295,1.606,1.606,0,0,0,.1-.319,1.722,1.722,0,0,0,0-.665Z" transform="translate(-339.25 -123.498)" fill="url(#linear-gradient)"/>
      </g>
    </g>
    <g id="Group_325" data-name="Group 325" transform="translate(5.06 0.023)">
      <g id="Group_324" data-name="Group 324">
        <path id="Path_1081" data-name="Path 1081" d="M110.189,5.8H100.055a1.7,1.7,0,0,0-1.7,1.7V8.971H93.6a1.7,1.7,0,0,0-1.7,1.7v.491c-2.77-.242-3.681-.767-6.225-2.234A103.131,103.131,0,0,0,75.429,3.7l-.075-.032a14.5,14.5,0,0,0-11.129.175L57.367,6.3,51.586.522a1.7,1.7,0,0,0-2.41,0L30.2,19.5a1.69,1.69,0,0,0,0,2.41L62.628,54.344a1.842,1.842,0,0,0,2.41,0L82.366,37.016c.45.039.918.06,1.4.06,4.453,0,8.392-3.055,10.645-6.384h15.776a1.7,1.7,0,0,0,1.7-1.7V7.5A1.7,1.7,0,0,0,110.189,5.8ZM50.381,4.138l3.885,3.885a7.431,7.431,0,0,1-7.769,0ZM37.7,24.591l-3.885-3.885L37.7,16.822a7.431,7.431,0,0,1,0,7.769ZM63.833,50.728l-3.884-3.884a7.421,7.421,0,0,1,7.768,0Zm6.339-6.339a10.831,10.831,0,0,0-12.679,0L40.152,27.047a10.831,10.831,0,0,0,0-12.68l3.889-3.889a10.831,10.831,0,0,0,12.68,0l3.686,3.686a6.755,6.755,0,0,0-5.071,3.716A9.714,9.714,0,1,0,66.5,29.906l5.755,1.953A10.881,10.881,0,0,0,74.065,40.5ZM59.81,27.633l.045.016,3.408,1.157a6.307,6.307,0,1,1-8.56-7.2A7.546,7.546,0,0,0,59.81,27.633Zm16.71,10.408A7.455,7.455,0,0,1,75.432,34.5a13.252,13.252,0,0,0,3.006,1.627Zm15.374-9.732c-1.615,2.648-4.748,5.359-8.126,5.359a12.4,12.4,0,0,1-1.778-.125h-.007a9.762,9.762,0,0,1-6.313-3.455c-.035-.051-.183-.245-.2-.277a1.7,1.7,0,0,0-.939-.781l-13.551-4.6c-2.162-.812-3.306-2.663-2.782-4.51v-.008a3.321,3.321,0,0,1,4.079-2.286l15.27,4.839a1.7,1.7,0,0,0,1.03-3.25L66.429,15.366l-.106-.106,0,0L60.033,8.969l5.4-1.935.059-.022L65.514,7l.069-.03A11.046,11.046,0,0,1,74.07,6.83a98.725,98.725,0,0,1,9.9,5.055c2.789,1.608,4.133,2.383,7.928,2.7Zm6.457-1.025H95.3V12.38h3.048Zm10.134,0H101.76V9.2h6.725Z" transform="translate(-29.691 -0.023)" fill="url(#linear-gradient)"/>
      </g>
    </g>
  </g>
</svg>
