<svg xmlns="http://www.w3.org/2000/svg" xmlns:xlink="http://www.w3.org/1999/xlink" width="192.885" height="145.533" viewBox="0 0 192.885 145.533">
  <defs>
    <linearGradient id="linear-gradient" x1="0.5" x2="0.5" y2="1" gradientUnits="objectBoundingBox">
      <stop offset="0" stop-color="#9ceeff"/>
      <stop offset="1" stop-color="#6454f0"/>
    </linearGradient>
  </defs>
  <g id="Group_183" data-name="Group 183" transform="translate(-1387.235 -1864.324)">
    <g id="clean" transform="translate(1536.928 1864.324)">
      <path id="Union_21" data-name="Union 21" d="M8.5,39.163c0-8.192-7.014-8.447-7.832-8.447A.678.678,0,0,1,0,30.05a.706.706,0,0,1,.563-.665H.718c.818,0,7.832-.255,7.832-8.447a.665.665,0,1,1,1.331,0c0,8.14,7.011,8.447,7.832,8.447h.153a.554.554,0,0,1,.463.665.679.679,0,0,1-.668.665c-.818,0-7.832.255-7.832,8.447a.665.665,0,1,1-1.331,0Zm16.945-7.372c0-11.724-10.033-12.132-11.212-12.132h-.05a.7.7,0,0,1-.563-.36.758.758,0,0,1,0-.665.4.4,0,0,1,.205-.205.589.589,0,0,1,.408-.153c1.128,0,11.212-.41,11.264-12.132a.665.665,0,0,1,1.331,0c0,11.722,10.083,12.132,11.159,12.132a.841.841,0,0,1,.563.358.626.626,0,0,1,.053.665.787.787,0,0,1-.615.36c-1.126,0-11.212.408-11.212,12.132a.665.665,0,0,1-1.331,0Zm-12.9-16.485c0-6.451-5.528-6.654-6.144-6.654a.678.678,0,0,1-.665-.665.665.665,0,0,1,.615-.665H6.4c.665,0,6.144-.258,6.144-6.656a.665.665,0,1,1,1.331,0c0,6.451,5.528,6.656,6.144,6.656a.665.665,0,0,1,0,1.331h-.053c-.665,0-6.141.255-6.141,6.654a.671.671,0,0,1-.615.665A.678.678,0,0,1,12.542,15.306ZM9.421,7.987a6.52,6.52,0,0,1,3.685,3.635,6.871,6.871,0,0,1,3.687-3.635,6.878,6.878,0,0,1-3.687-3.635A6.877,6.877,0,0,1,9.421,7.987Z" transform="translate(4.521)" fill="url(#linear-gradient)"/>
      <path id="Path_193" data-name="Path 193" d="M128.98,54.5a14.628,14.628,0,0,1-1.331-6.5c0,12.542-11.211,12.8-11.928,12.8a13.579,13.579,0,0,1,5.529,1.331A10.967,10.967,0,0,0,128.98,54.5Z" transform="translate(-96.968 -41.857)" fill="url(#linear-gradient)"/>
      <path id="Path_195" data-name="Path 195" d="M19.4,168.268a10.155,10.155,0,0,1-1.177-5.068c0,8.959-7.986,9.164-8.5,9.164a9.772,9.772,0,0,1,4.454,1.229A7.93,7.93,0,0,0,19.4,168.268Z" transform="translate(-4.534 -142.313)" fill="url(#linear-gradient)"/>
      <path id="Path_196" data-name="Path 196" d="M53.721,12.521s6.809-.1,6.809,7.321c0-7.423,6.809-7.321,6.809-7.321s-6.809.1-6.809-7.321A6.8,6.8,0,0,1,53.721,12.521Z" transform="translate(-42.903 -4.535)" fill="url(#linear-gradient)"/>
      <path id="Path_197" data-name="Path 197" d="M62,9.5A7.83,7.83,0,0,1,60.93,5.2c0,7.167-6.4,7.321-6.809,7.321a7.789,7.789,0,0,1,3.788,1.126A6.305,6.305,0,0,0,62,9.5Z" transform="translate(-43.252 -4.535)" fill="url(#linear-gradient)"/>
    </g>
    <g id="exchange_2_" data-name="exchange (2)" transform="translate(1420.986 1874.5)">
      <path id="Path_486" data-name="Path 486" d="M41.932,147.176a64.972,64.972,0,0,0,46.687,0L129.039,98.2A64.78,64.78,0,1,0,.5,86.739,65.118,65.118,0,0,0,1.512,98.2Zm0,0" transform="translate(0 -16.158)" fill="url(#linear-gradient)"/>
      <path id="Path_487" data-name="Path 487" d="M325.194,275.207a32.887,32.887,0,0,0-22.38-11.73,46.664,46.664,0,0,1-34.88,25,32.907,32.907,0,0,0,16.1,36.606,64.864,64.864,0,0,0,41.165-49.875Zm0,0" transform="translate(-196.045 -193.822)" fill="#fff084"/>
      <path id="Path_488" data-name="Path 488" d="M286.517,337.1a32.187,32.187,0,0,1,.924-7.689,46.287,46.287,0,0,1-19.508,7.57,32.907,32.907,0,0,0,16.1,36.606,64.7,64.7,0,0,0,18.291-10.533c-9.174-3.572-15.8-13.84-15.8-25.953Zm0,0" transform="translate(-196.046 -242.322)" fill="#ffd47c"/>
      <path id="Path_489" data-name="Path 489" d="M343.684,305.726a25.41,25.41,0,0,0-22.8-14.234q-.939,0-1.862.069A46.736,46.736,0,0,1,297.506,307a25.382,25.382,0,0,0,16.738,34.368,64.966,64.966,0,0,0,29.44-35.642Zm0,0" transform="translate(-217.017 -214.431)" fill="#ffd47c"/>
      <path id="Path_490" data-name="Path 490" d="M343.684,305.726a25.41,25.41,0,0,0-22.8-14.234q-.939,0-1.862.069A46.736,46.736,0,0,1,297.506,307a25.382,25.382,0,0,0,16.738,34.368,64.966,64.966,0,0,0,29.44-35.642Zm0,0" transform="translate(-217.017 -214.431)" fill="#ffd47c"/>
      <path id="Path_491" data-name="Path 491" d="M307.374,337.34a32.127,32.127,0,0,1,.9-7.6,46.455,46.455,0,0,1-10.77,5.4A25.381,25.381,0,0,0,314.244,369.5a64.92,64.92,0,0,0,9.008-6.181c-9.214-3.544-15.879-13.836-15.879-25.981Zm0,0" transform="translate(-217.017 -242.566)" fill="#ffb874"/>
      <path id="Path_492" data-name="Path 492" d="M384.155,338.756a2.791,2.791,0,0,1-2.791-2.791v-3.9a2.791,2.791,0,0,1,5.583,0v3.9A2.791,2.791,0,0,1,384.155,338.756Zm0,0" transform="translate(-280.175 -242.224)" fill="#ff9165"/>
      <path id="Path_493" data-name="Path 493" d="M384.155,419.818a2.791,2.791,0,0,1-2.791-2.791v-3.9a2.791,2.791,0,0,1,5.583,0v3.9A2.791,2.791,0,0,1,384.155,419.818Zm0,0" transform="translate(-280.175 -301.856)" fill="#ffa46d"/>
      <path id="Path_494" data-name="Path 494" d="M365.2,358.375h-4.612a7.174,7.174,0,0,1,0-14.347h7.94a2.791,2.791,0,1,1,0,5.582h-7.94a1.591,1.591,0,0,0,0,3.183H365.2a2.791,2.791,0,0,1,0,5.583Zm0,0" transform="translate(-259.617 -253.078)" fill="#ffa46d"/>
      <path id="Path_495" data-name="Path 495" d="M372.6,391.527h-7.94a2.791,2.791,0,1,1,0-5.582h7.94a1.591,1.591,0,0,0,0-3.183h-4.611a2.791,2.791,0,1,1,0-5.583H372.6a7.174,7.174,0,1,1,0,14.347Zm0,0" transform="translate(-265.833 -277.465)" fill="#ffb874"/>
      <path id="Path_496" data-name="Path 496" d="M26.291,263.477a32.887,32.887,0,0,0-22.38,11.73,64.862,64.862,0,0,0,41.165,49.875,32.907,32.907,0,0,0,16.1-36.606,46.669,46.669,0,0,1-34.88-25Zm0,0" transform="translate(-2.509 -193.822)" fill="#fff084"/>
      <path id="Path_497" data-name="Path 497" d="M3.91,282.825A64.543,64.543,0,0,0,19.1,314.744V280.6s-5.438-1.237-3.335-6.764A33.117,33.117,0,0,0,3.91,282.825Zm0,0" transform="translate(-2.509 -201.44)" fill="#ffd47c"/>
      <path id="Path_498" data-name="Path 498" d="M37.954,291.561q-.922-.068-1.861-.069a25.41,25.41,0,0,0-22.8,14.234,64.966,64.966,0,0,0,29.44,35.642A25.382,25.382,0,0,0,59.474,307a46.739,46.739,0,0,1-21.52-15.439Zm0,0" transform="translate(-9.414 -214.431)" fill="#ffd47c"/>
      <path id="Path_499" data-name="Path 499" d="M92.178,338.756a2.791,2.791,0,0,1-2.791-2.791v-3.9a2.791,2.791,0,0,1,5.583,0v3.9A2.791,2.791,0,0,1,92.178,338.756Zm0,0" transform="translate(-65.388 -242.224)" fill="#ff9165"/>
      <path id="Path_500" data-name="Path 500" d="M92.178,419.818a2.791,2.791,0,0,1-2.791-2.791v-3.9a2.791,2.791,0,0,1,5.583,0v3.9A2.791,2.791,0,0,1,92.178,419.818Zm0,0" transform="translate(-65.388 -301.856)" fill="#ffa46d"/>
      <path id="Path_501" data-name="Path 501" d="M73.223,358.375H68.612a7.174,7.174,0,1,1,0-14.347h7.94a2.791,2.791,0,1,1,0,5.582h-7.94a1.591,1.591,0,1,0,0,3.183h4.611a2.791,2.791,0,1,1,0,5.583Zm0,0" transform="translate(-44.828 -253.078)" fill="#ffa46d"/>
      <path id="Path_502" data-name="Path 502" d="M80.622,391.527h-7.94a2.791,2.791,0,1,1,0-5.582h7.94a1.591,1.591,0,1,0,0-3.183H76.011a2.791,2.791,0,0,1,0-5.583h4.611a7.174,7.174,0,0,1,0,14.347Zm0,0" transform="translate(-51.046 -277.465)" fill="#ffb874"/>
      <path id="Path_503" data-name="Path 503" d="M137.015,96.629a47.546,47.546,0,1,1,17.4-64.949A47.6,47.6,0,0,1,137.015,96.629Zm0,0" transform="translate(-47.968 -5.824)" fill="#ffd47c"/>
      <g id="Group_97" data-name="Group 97" transform="translate(54.151 25.398)">
        <path id="Path_505" data-name="Path 505" d="M209.023,103.575V96.88a.81.81,0,0,0-.81-.81h-3.962a.81.81,0,0,0-.81.81v6.695Zm0,0" transform="translate(-203.441 -96.07)" fill="#ffa46d"/>
        <path id="Path_506" data-name="Path 506" d="M203.441,142.879h5.582V167.71h-5.582Zm0,0" transform="translate(-203.441 -130.504)" fill="#ffa46d"/>
        <path id="Path_507" data-name="Path 507" d="M203.441,255.223v6.695a.809.809,0,0,0,.81.809h3.962a.81.81,0,0,0,.811-.809v-6.695Zm0,0" transform="translate(-203.441 -213.148)" fill="#ffa46d"/>
        <path id="Path_508" data-name="Path 508" d="M257.23,108.8h-5.582V96.88a.81.81,0,0,1,.81-.81h3.963a.81.81,0,0,1,.81.81V108.8Zm0,0" transform="translate(-238.904 -96.071)" fill="#ffa46d"/>
        <path id="Path_509" data-name="Path 509" d="M256.417,248.183h-3.962a.81.81,0,0,1-.811-.809V235.453h5.583v11.921A.809.809,0,0,1,256.417,248.183Zm0,0" transform="translate(-238.901 -198.604)" fill="#ffa46d"/>
      </g>
      <path id="Path_515" data-name="Path 515" d="M113.585,229.871a2.093,2.093,0,0,1-1.8-1.021l-4.043-6.779H98.32a2.094,2.094,0,0,1,0-4.188h10.612a2.091,2.091,0,0,1,1.8,1.021l4.652,7.8a2.094,2.094,0,0,1-1.8,3.166Zm0,0" transform="translate(-70.42 -160.282)" fill="#ffd47c"/>
      <path id="Path_516" data-name="Path 516" d="M132.237,92.618a49.639,49.639,0,1,1,18.169-67.808,49.695,49.695,0,0,1-18.169,67.808ZM84.692,10.266A45.452,45.452,0,1,0,146.78,26.9,45.5,45.5,0,0,0,84.692,10.266Zm0,0" transform="translate(-42.143)" fill="#ffb874"/>
      <path id="Path_517" data-name="Path 517" d="M130.536,108.983a2.381,2.381,0,0,1-.155-2.064.254.254,0,0,0-.052-.266c-.062.036-.122.073-.185.109A45.452,45.452,0,0,1,84.693,28.036l.2-.109a.259.259,0,0,0-.184-.12,2.388,2.388,0,0,1-1.652-3.651c-.151.086-.3.167-.453.254a49.639,49.639,0,1,0,49.638,85.978c.118-.068.233-.139.35-.208a2.392,2.392,0,0,1-2.052-1.2Zm0,0" transform="translate(-42.144 -17.77)" fill="#ffa46d"/>
      <path id="Path_520" data-name="Path 520" d="M214.652,139.566a10.007,10.007,0,0,0,2.172-5.995,10.227,10.227,0,0,0-10.213-10.462H184.13a.81.81,0,0,0-.81.81v3.962a.81.81,0,0,0,.81.81H206.61a4.64,4.64,0,0,1,4.634,4.555,4.736,4.736,0,0,1-4.756,4.713H188.75v5.582h20.412a4.638,4.638,0,0,1,4.633,4.555,4.736,4.736,0,0,1-4.756,4.713H184.13a.81.81,0,0,0-.81.81v3.962a.81.81,0,0,0,.81.81h24.84a10.341,10.341,0,0,0,10.405-9.97,10.213,10.213,0,0,0-4.724-8.855Zm0,0" transform="translate(-134.488 -90.563)" fill="#ffb874"/>
      <path id="Path_521" data-name="Path 521" d="M216.382,179.281H203.86v5.583h12.522a2.791,2.791,0,1,1,0-5.583Zm0,0" transform="translate(-149.598 -131.885)" fill="#ffa46d"/>
      <path id="Path_522" data-name="Path 522" d="M184.13,128.693h17.143a2.794,2.794,0,0,1-2.755-3.25,2.841,2.841,0,0,1,2.834-2.333H184.13a.81.81,0,0,0-.81.81v3.962a.81.81,0,0,0,.81.811Zm0,0" transform="translate(-134.489 -90.564)" fill="#ffa46d"/>
      <path id="Path_523" data-name="Path 523" d="M198.481,238.245a2.791,2.791,0,0,1,2.791-2.791H184.13a.81.81,0,0,0-.81.81v3.963a.81.81,0,0,0,.81.81h17.143A2.791,2.791,0,0,1,198.481,238.245Zm0,0" transform="translate(-134.488 -173.207)" fill="#ffa46d"/>
      <path id="Path_524" data-name="Path 524" d="M26.007,299.418A25.547,25.547,0,0,0,13.3,311.556a64.589,64.589,0,0,0,9.576,18.159c-4.508-10.927-3.092-22.678,3.134-30.3Zm0,0" transform="translate(-9.414 -220.261)" fill="#ffb874"/>
    </g>
    <g id="anonymous" transform="translate(1387.235 1810.325)">
      <path id="Path_525" data-name="Path 525" d="M29.72,151.9a16.451,16.451,0,0,0-6.9-3.23,15.238,15.238,0,0,0-2.994-.3,30.617,30.617,0,0,0-6.3.644,15.068,15.068,0,0,1-11.394-2.1l-.021-.014A1.36,1.36,0,0,0,0,148.037v19.626C0,173.2,5.75,177.9,13.7,179.523a17.9,17.9,0,0,0,9.951-.856h0a16.1,16.1,0,0,1,1.992-.616,13.121,13.121,0,0,1,10.761,2.225l0,0a8.049,8.049,0,0,0,9.486,0h0a13.187,13.187,0,0,1,11.095-2.146,16.114,16.114,0,0,1,1.663.534h0a17.9,17.9,0,0,0,9.951.856c7.953-1.622,13.7-6.318,13.7-11.859V148.037A1.36,1.36,0,0,0,80.2,146.9l-.021.014a15.068,15.068,0,0,1-11.394,2.1,30.628,30.628,0,0,0-6.3-.644,15.238,15.238,0,0,0-2.995.3,16.452,16.452,0,0,0-6.9,3.23l-11.435,8.971Z" fill="url(#linear-gradient)"/>
      <path id="Path_526" data-name="Path 526" d="M41.155,160.872,29.72,151.9a16.451,16.451,0,0,0-6.9-3.23,15.238,15.238,0,0,0-2.994-.3,30.616,30.616,0,0,0-6.3.644,15.068,15.068,0,0,1-11.394-2.1l-.021-.014A1.36,1.36,0,0,0,0,148.037v19.626C0,173.2,5.75,177.9,13.7,179.523a17.9,17.9,0,0,0,9.951-.856,16.1,16.1,0,0,1,1.992-.616,13.121,13.121,0,0,1,10.761,2.225l0,0a8.037,8.037,0,0,0,4.905,1.544Z" transform="translate(0 0)" fill="url(#linear-gradient)"/>
      <g id="Group_98" data-name="Group 98" transform="translate(14.741 160.467)">
        <path id="Path_527" data-name="Path 527" d="M107.523,236.46a1.418,1.418,0,0,1-.436,2.35,14.574,14.574,0,0,1-7.92,1.036,14.574,14.574,0,0,1-7.022-3.807,1.418,1.418,0,0,1,.436-2.35,14.574,14.574,0,0,1,7.92-1.036A14.575,14.575,0,0,1,107.523,236.46Z" transform="translate(-91.696 -232.466)" fill="#f2ffff"/>
        <path id="Path_528" data-name="Path 528" d="M319.5,236.46a1.418,1.418,0,0,0,.436,2.35,12.953,12.953,0,0,0,14.941-2.771,1.418,1.418,0,0,0-.436-2.35A12.953,12.953,0,0,0,319.5,236.46Z" transform="translate(-282.501 -232.466)" fill="#f2ffff"/>
      </g>
    </g>
  </g>
</svg>
