<svg xmlns="http://www.w3.org/2000/svg" xmlns:xlink="http://www.w3.org/1999/xlink" width="130.976" height="136.857" viewBox="0 0 130.976 136.857">
  <defs>
    <linearGradient id="linear-gradient" x1="0.5" x2="0.5" y2="1" gradientUnits="objectBoundingBox">
      <stop offset="0" stop-color="#9ceeff"/>
      <stop offset="1" stop-color="#6454f0"/>
    </linearGradient>
  </defs>
  <g id="Group_182" data-name="Group 182" transform="translate(-368.5 -1880)">
    <g id="bitcoin_8_" data-name="bitcoin (8)" transform="translate(368 1880.001)">
      <path id="Path_445" data-name="Path 445" d="M114.125,131.885a65.485,65.485,0,1,0-48.137,21.091,66.01,66.01,0,0,0,8.851-.6Zm0,0" transform="translate(0 -16.12)" fill="url(#linear-gradient)"/>
      <path id="Path_446" data-name="Path 446" d="M129.8,220.272s-2.131-15.1,10.378-20.972c5.937-2.788,10.333-4.879,13.315-6.309l-2.372-1.565s-5.676,2.787-18.185,8.66-10.379,20.972-10.379,20.972c.435,9.548,1.611,16.452,5.969,17.108a4.941,4.941,0,0,0,4.854-2.037c-2.439-2.491-3.239-8.357-3.58-15.857Zm0,0" transform="translate(-89.333 -140.259)" fill="#eab39b"/>
      <path id="Path_447" data-name="Path 447" d="M166.868,201.82l-15.744-10.393s-5.676,2.787-18.186,8.66-10.378,20.972-10.378,20.972c.435,9.548,1.61,16.452,5.969,17.108,4.085.615,5.632-3.358,5.632-3.358a42.011,42.011,0,0,0,1.946-7.871L147.9,215.6s8.3,9.918,15.267,13.51,8.8-2.81,8.8-2.81c8.428-13.26-5.094-24.485-5.094-24.485Zm0,0" transform="translate(-89.333 -140.259)" fill="#f2c3aa"/>
      <path id="Path_448" data-name="Path 448" d="M240.9,272.287c-6.965-3.592-15.267-13.51-15.267-13.51l-6.787,6.524c1.539,1.788,8.781,9.97,14.97,13.162,6.965,3.592,8.8-2.811,8.8-2.811a19.526,19.526,0,0,0,1.275-2.34A9.633,9.633,0,0,1,240.9,272.287Zm0,0" transform="translate(-159.981 -189.607)" fill="#eab39b"/>
      <path id="Path_449" data-name="Path 449" d="M184.32,200.607a7.293,7.293,0,0,1-.323-2.728c.776-11.13,1.156-24.366-1.057-35.693a14.751,14.751,0,0,0-2.8-6.168c-2.719-3.526-7.735-9.586-11.052-10.938-9.4-3.833-20.112-12.812-28.065-10.271-11.594,3.7-36.449,19.227-34.395,25.654a3.377,3.377,0,0,0,3.075,2.356l4.676-.289c7.308-1.26,18.527-7.215,22.8-9.59a3.512,3.512,0,0,1,3.566.085c2.74,1.706,6.649,4.6,9.429,6.29,7.126,4.325,11.233,11.826,9.686,20.086a19.05,19.05,0,0,1-1.212,4.684s-1.873,4.4-5.152,2.713l-10.408-7.319c-.87-1.034-13.312-19.215-24.22-16.877a8.816,8.816,0,0,0-.928.268,4.731,4.731,0,0,0-3.144,3.077c-.318,1.37.61,2.282,6.238,12.663,2.466,4.526,4.925,9.266,5.818,12.062,1.489,4.661,13.907,15.383,19.641,20.151a12.907,12.907,0,0,1,4.045,6l5.507,17.314a65.326,65.326,0,0,0,33.389-17.483Zm0,0" transform="translate(-77.67 -98.449)" fill="#ffead7"/>
      <path id="Path_450" data-name="Path 450" d="M109.7,188.145l4.676-.289c6.684-1.153,16.87-6.294,22.8-9.59h0a3.536,3.536,0,0,1,3.574.092c1.271.791,2.972,1.962,4.221,2.824l.019.013c1.814,1.25,3.664,2.528,5.178,3.447,7.2,4.368,11.1,11.795,9.736,19.787l.009,0a21.467,21.467,0,0,1-1.27,4.987c-.673,1.379-1.706,2.792-3.214,3.058,0,0,9.218,3.061,12.305-5.963.747-1.44.987-3.848,1.547-6.258a17.85,17.85,0,0,0-8.183-19.2l-18.745-11.436a4.488,4.488,0,0,0-4.558-.114c-22,12.237-30.01,12.263-30.043,12.274l0,0-.017.026c-.766,1.145-1.525,2.684-1.108,3.993a3.153,3.153,0,0,0,1.532,1.883,4.441,4.441,0,0,0,1.543.473Zm0,0" transform="translate(-77.672 -123.774)" fill="#f9d6bf"/>
      <path id="Path_451" data-name="Path 451" d="M182.168,290.787a12.907,12.907,0,0,0-4.045-6c-5.734-4.767-18.152-15.49-19.641-20.151-2.117-6.626-12.017-22.28-12.11-24.159a2.36,2.36,0,0,1,.1-.726c-3.786-1.061-6.019,0-5.991-.014-1.97.717-3.709,2.581-3.068,4.295,1.045,2.817,10.013,17.355,11.979,23.509,1.489,4.661,13.907,15.383,19.641,20.151a12.9,12.9,0,0,1,4.045,6l5.507,17.314a65.089,65.089,0,0,0,9.227-2.48Zm0,0" transform="translate(-100.215 -175.323)" fill="#f9d6bf"/>
      <path id="Path_452" data-name="Path 452" d="M304.253,408.585l-1.94-6.1a3.08,3.08,0,0,0-3.857-2l-36.972,11.756a3.079,3.079,0,0,0-2,3.857l4.319,13.582a65.344,65.344,0,0,0,40.446-21.1Zm0,0" transform="translate(-189.656 -293.334)" fill="#dcfeff"/>
      <path id="Path_453" data-name="Path 453" d="M269.28,438.13a3.57,3.57,0,0,1,.9-3.618l-8.7,2.767a3.081,3.081,0,0,0-2,3.857l4.32,13.583a65.2,65.2,0,0,0,10.089-2.076Zm0,0" transform="translate(-189.654 -318.368)" fill="#9af0f9"/>
      <path id="Path_454" data-name="Path 454" d="M173.186,22.193a28.152,28.152,0,1,0-10.3,38.456,28.15,28.15,0,0,0,10.3-38.456Zm0,0" transform="translate(-88.034 -5.944)" fill="#ffd47c"/>
      <path id="Path_457" data-name="Path 457" d="M175.763,79.607a.27.27,0,0,0-.171-.073,3.043,3.043,0,0,1-2.563-1.565,3.082,3.082,0,0,1,.191-3.255c-.072.043-.142.089-.214.132a16.918,16.918,0,1,1-16.918-29.3c.045-.026.092-.049.138-.075A3.078,3.078,0,0,1,153.418,44a3.042,3.042,0,0,1-.074-3,.279.279,0,0,0,.014-.234l-.021.011a22.421,22.421,0,1,0,22.421,38.834l.006,0Zm0,0" transform="translate(-103.773 -29.869)" fill="#ffd47c"/>
      <g id="Group_96" data-name="Group 96" transform="translate(54.349 16.797)">
        <path id="Path_458" data-name="Path 458" d="M206.317,66.893V65.019a2.18,2.18,0,0,0-4.359,0v1.874Zm0,0" transform="translate(-201.957 -62.84)" fill="#ff9165"/>
        <path id="Path_459" data-name="Path 459" d="M201.957,148.9v1.873a2.18,2.18,0,1,0,4.359,0V148.9Zm0,0" transform="translate(-201.957 -125.898)" fill="#ff9165"/>
        <path id="Path_460" data-name="Path 460" d="M228.735,70.887a2.18,2.18,0,0,1-2.18-2.18V65.019a2.18,2.18,0,0,1,4.359,0v3.688A2.18,2.18,0,0,1,228.735,70.887Zm0,0" transform="translate(-219.98 -62.84)" fill="#ff9165"/>
        <path id="Path_461" data-name="Path 461" d="M228.735,142.008a2.18,2.18,0,0,1-2.18-2.18V136.14a2.18,2.18,0,0,1,4.359,0v3.688A2.18,2.18,0,0,1,228.735,142.008Zm0,0" transform="translate(-219.98 -114.95)" fill="#ff9165"/>
      </g>
      <path id="Path_462" data-name="Path 462" d="M158.033,56.594a30.332,30.332,0,1,1,11.1-41.434,30.365,30.365,0,0,1-11.1,41.434ZM129.881,7.832a25.973,25.973,0,1,0,35.48,9.507,26,26,0,0,0-35.48-9.507Zm0,0" transform="translate(-82.093 0)" fill="#ffb874"/>
      <path id="Path_464" data-name="Path 464" d="M209.619,85.7a6.007,6.007,0,0,0-5.173-9.066H193.871a2.18,2.18,0,0,0,0,4.359h10.576a1.651,1.651,0,1,1,0,3.3h-7.775a2.18,2.18,0,0,0,0,4.359h9.091a1.651,1.651,0,0,1,0,3.3H193.871a2.18,2.18,0,0,0,0,4.359h11.893A6.007,6.007,0,0,0,209.619,85.7Zm0,0" transform="translate(-140.086 -56.153)" fill="#ffa46d"/>
      <path id="Path_465" data-name="Path 465" d="M208.92,105.3h-4.569a2.18,2.18,0,0,0,0,4.359h4.569a2.18,2.18,0,1,1,0-4.359Zm0,0" transform="translate(-147.765 -77.152)" fill="#ff9165"/>
      <path id="Path_466" data-name="Path 466" d="M193.871,81H201.1a2.18,2.18,0,0,1,0-4.359h-7.234a2.18,2.18,0,0,0,0,4.359Zm0,0" transform="translate(-140.086 -56.152)" fill="#ff9165"/>
      <path id="Path_467" data-name="Path 467" d="M198.925,136.141a2.179,2.179,0,0,1,2.179-2.18h-7.234a2.18,2.18,0,0,0,0,4.359H201.1A2.18,2.18,0,0,1,198.925,136.141Zm0,0" transform="translate(-140.086 -98.154)" fill="#ff9165"/>
      <path id="Path_468" data-name="Path 468" d="M201.957,91.578h4.359v11.694h-4.359Zm0,0" transform="translate(-147.608 -67.1)" fill="#ff9165"/>
      <path id="Path_469" data-name="Path 469" d="M92.393,106.348a28.152,28.152,0,1,0-10.3,38.455,28.152,28.152,0,0,0,10.3-38.455Zm0,0" transform="translate(-28.837 -67.605)" fill="#ffd47c"/>
      <path id="Path_473" data-name="Path 473" d="M125.52,151.049v-1.873a2.18,2.18,0,1,0-4.359,0v1.873Zm0,0" transform="translate(-88.408 -107.705)" fill="#ff9165"/>
      <path id="Path_474" data-name="Path 474" d="M121.16,233.059v1.874a2.18,2.18,0,0,0,4.359,0v-1.874Zm0,0" transform="translate(-88.408 -170.763)" fill="#ff9165"/>
      <path id="Path_475" data-name="Path 475" d="M147.938,155.044a2.18,2.18,0,0,1-2.18-2.18v-3.688a2.18,2.18,0,0,1,4.359,0v3.688A2.179,2.179,0,0,1,147.938,155.044Zm0,0" transform="translate(-106.431 -107.705)" fill="#ff9165"/>
      <path id="Path_476" data-name="Path 476" d="M147.938,226.165a2.18,2.18,0,0,1-2.18-2.18V220.3a2.18,2.18,0,0,1,4.359,0v3.688A2.179,2.179,0,0,1,147.938,226.165Zm0,0" transform="translate(-106.431 -159.816)" fill="#ff9165"/>
      <path id="Path_477" data-name="Path 477" d="M77.238,140.75a30.332,30.332,0,1,1,11.1-41.434A30.367,30.367,0,0,1,77.238,140.75ZM49.085,91.989a25.972,25.972,0,1,0,35.48,9.507,26,26,0,0,0-35.48-9.507Zm0,0" transform="translate(-22.894 -61.661)" fill="#ffb874"/>
      <path id="Path_479" data-name="Path 479" d="M128.822,169.859a6.006,6.006,0,0,0-5.173-9.066H113.074a2.18,2.18,0,0,0,0,4.359H123.65a1.651,1.651,0,1,1,0,3.3h-7.774a2.18,2.18,0,1,0,0,4.359h9.09a1.651,1.651,0,0,1,0,3.3H113.074a2.18,2.18,0,0,0,0,4.359h11.893a6.008,6.008,0,0,0,3.856-10.617Zm0,0" transform="translate(-80.886 -117.814)" fill="#ffa46d"/>
      <path id="Path_480" data-name="Path 480" d="M128.123,189.457h-4.568a2.179,2.179,0,1,0,0,4.358h4.568a2.179,2.179,0,1,1,0-4.358Zm0,0" transform="translate(-88.565 -138.816)" fill="#ff9165"/>
      <path id="Path_481" data-name="Path 481" d="M113.074,165.153h7.235a2.18,2.18,0,1,1,0-4.359h-7.235a2.18,2.18,0,0,0,0,4.359Zm0,0" transform="translate(-80.886 -117.814)" fill="#ff9165"/>
      <path id="Path_482" data-name="Path 482" d="M118.128,220.3a2.18,2.18,0,0,1,2.18-2.18h-7.234a2.18,2.18,0,1,0,0,4.359h7.234A2.179,2.179,0,0,1,118.128,220.3Zm0,0" transform="translate(-80.886 -159.815)" fill="#ff9165"/>
      <path id="Path_483" data-name="Path 483" d="M121.16,175.734h4.359v11.7H121.16Zm0,0" transform="translate(-88.408 -128.761)" fill="#ff9165"/>
      <path id="Path_484" data-name="Path 484" d="M165.637,256.309c-.87-1.034-13.312-19.215-24.22-16.877a9.432,9.432,0,0,0-.928.268,4.731,4.731,0,0,0-3.144,3.077c-.318,1.37.61,2.282,6.238,12.663,6.79,12.459,5.07,11.183,6.622,13.7l23.158-7.4Zm0,0" transform="translate(-100.226 -175.281)" fill="#ffead7"/>
      <path id="Path_485" data-name="Path 485" d="M159.257,266.337a7.813,7.813,0,0,1-.8-1.638c-2.117-6.627-12.017-22.281-12.11-24.159a2.35,2.35,0,0,1,.1-.726c-3.453-.968-7.394-.467-8.867,2.318-.913,1.8-.293,1.872,5.843,13.177,7.127,13.006,5.031,11.145,6.747,13.931h0Zm0,0" transform="translate(-100.186 -175.381)" fill="#f9d6bf"/>
    </g>
  </g>
</svg>
