<svg enable-background="new 0 0 512 512" height="512" viewBox="0 0 512 512" width="512" xmlns="http://www.w3.org/2000/svg"><path d="m276.7 392.555-100.201 99.901c-2.999 1.8-6.899 6.301-15 3.9-4.199-1.5-9.3-6.301-10.199-11.7v-.3l-28.801-172.2 23.401-17.699c3.03 1.777 60.854 35.684 57.299 33.6l73.5 43.2c5.701 5.999 5.701 15.299.001 21.298z" fill="#009ae4"/><path d="m511.708 32.964-91.008 451.992c-.9 4.8-4.5 9-9.3 10.8-1.8.9-3.6 1.2-5.4 1.2-3 0-6-.9-8.7-2.7-3.018-2.156-224.061-160.044-210-150-133.84-66.3-64.027-31.453-178.9-88.8-5.4-2.7-8.4-8.1-8.4-13.8.3-6 3.6-11.1 9-13.5l482.008-211.992c5.1-2.1 11.1-1.5 15.3 2.1.6.6 1.5 1.5 2.1 2.1 3 3.6 4.2 8.1 3.3 12.6z" fill="#25d9f8"/><path d="m508.408 20.364-305.208 307.692-15.899 16.199-25.801 152.1c-4.199-1.5-9.3-6.301-10.199-11.7v-.3l-28.801-172.2 23.401-17.699z" fill="#00c0f1"/></svg>