<svg height="48" viewBox="0 0 48 48" width="48" xmlns="http://www.w3.org/2000/svg" xmlns:xlink="http://www.w3.org/1999/xlink"><linearGradient id="a" gradientUnits="objectBoundingBox" x1=".5" x2=".5" y2="1"><stop offset="0" stop-color="#9ceeff"/><stop offset="1" stop-color="#6454f0"/></linearGradient><clipPath id="b"><circle cx="24" cy="24" r="24" transform="translate(171 1112)"/></clipPath><g clip-path="url(#b)" transform="translate(-171 -1112)"><path d="m985 1000.978s2.4 5.607 9.694 0 12.5 2.082 19.33 2.082 6.934-3.569 12.092-4.533a11.364 11.364 0 0 1 8.981 2.451v34.241h-48.991z" fill="url(#a)" transform="translate(-816.079 124.78)"/></g><path d="m16.92-18.63a9.632 9.632 0 0 1 4.88 3.13 8.557 8.557 0 0 1 1.823 5.6q0 5.22-3.33 7.92a12.86 12.86 0 0 1 -8.37 2.7 13.657 13.657 0 0 1 -7.243-1.89 10.526 10.526 0 0 1 -4.455-5.58l7.92-4.55q.945 3.29 3.78 3.29a2.923 2.923 0 0 0 1.957-.63 2.126 2.126 0 0 0 .743-1.71q0-2.25-2.7-2.25h-1.935l-3.51-5.22 4.23-4.95h-9.5v-8.73h20.7v6.93z" fill="#0c2a57" stroke="#fff" stroke-width="2" transform="translate(12.275 39)"/></svg>