<svg height="48" viewBox="0 0 48 48" width="48" xmlns="http://www.w3.org/2000/svg" xmlns:xlink="http://www.w3.org/1999/xlink"><linearGradient id="a" gradientUnits="objectBoundingBox" x1=".5" x2=".5" y2="1"><stop offset="0" stop-color="#00ffed"/><stop offset="1" stop-color="#00c2a8"/></linearGradient><clipPath id="b"><circle cx="24" cy="24" r="24" transform="translate(171 1112)"/></clipPath><g clip-path="url(#b)" transform="translate(-171 -1112)"><path d="m985 999.734s5.178 2.226 12.474-1.729 10.155 4.45 16.989 4.45 6.495-3.769 11.653-4.45a14.615 14.615 0 0 1 8.981 1.729v24.152h-48.991z" fill="url(#a)" transform="translate(-816.079 136.114)"/></g><path d="m.9 0v-6.57l10.26-11.115q.27-.315.787-.855t.72-.765q.2-.225.54-.608a2.809 2.809 0 0 0 .45-.63q.112-.247.225-.54a1.678 1.678 0 0 0 .118-.607 1.7 1.7 0 0 0 -.54-1.282 2.19 2.19 0 0 0 -1.575-.517q-2.52 0-3.735 3.195l-7.92-4.32a11.946 11.946 0 0 1 4.658-5.67 12.645 12.645 0 0 1 6.862-1.935 12.36 12.36 0 0 1 7.943 2.632 8.776 8.776 0 0 1 3.307 7.267 9.624 9.624 0 0 1 -1.237 4.95 33.431 33.431 0 0 1 -3.893 5.085l-3.2 3.555h9v8.73z" fill="#0c2a57" stroke="#fff" stroke-width="2" transform="translate(12 35)"/></svg>